%TF.GenerationSoftware,KiCad,Pcbnew,(5.1.10)-1*%
%TF.CreationDate,2022-01-11T17:35:31-08:00*%
%TF.ProjectId,science_cake_mosfets_2,73636965-6e63-4655-9f63-616b655f6d6f,rev?*%
%TF.SameCoordinates,Original*%
%TF.FileFunction,Soldermask,Bot*%
%TF.FilePolarity,Negative*%
%FSLAX46Y46*%
G04 Gerber Fmt 4.6, Leading zero omitted, Abs format (unit mm)*
G04 Created by KiCad (PCBNEW (5.1.10)-1) date 2022-01-11 17:35:31*
%MOMM*%
%LPD*%
G01*
G04 APERTURE LIST*
%ADD10O,1.905000X2.000000*%
%ADD11R,1.905000X2.000000*%
%ADD12R,1.700000X1.700000*%
%ADD13O,1.700000X1.700000*%
%ADD14R,3.000000X3.000000*%
%ADD15C,3.000000*%
%ADD16R,2.200000X2.200000*%
%ADD17O,2.200000X2.200000*%
G04 APERTURE END LIST*
D10*
%TO.C,Q5*%
X148590000Y-100330000D03*
X146050000Y-100330000D03*
D11*
X143510000Y-100330000D03*
%TD*%
D12*
%TO.C,J3*%
X116840000Y-86360000D03*
D13*
X116840000Y-88900000D03*
X116840000Y-91440000D03*
X116840000Y-93980000D03*
X116840000Y-96520000D03*
X116840000Y-99060000D03*
X116840000Y-101600000D03*
X116840000Y-104140000D03*
X116840000Y-106680000D03*
X116840000Y-109220000D03*
X116840000Y-111760000D03*
X116840000Y-114300000D03*
X116840000Y-116840000D03*
X116840000Y-119380000D03*
X116840000Y-121920000D03*
X116840000Y-124460000D03*
X116840000Y-127000000D03*
X116840000Y-129540000D03*
X116840000Y-132080000D03*
X116840000Y-134620000D03*
%TD*%
%TO.C,J2*%
X110490000Y-134620000D03*
X110490000Y-132080000D03*
X110490000Y-129540000D03*
X110490000Y-127000000D03*
X110490000Y-124460000D03*
X110490000Y-121920000D03*
X110490000Y-119380000D03*
X110490000Y-116840000D03*
X110490000Y-114300000D03*
X110490000Y-111760000D03*
X110490000Y-109220000D03*
X110490000Y-106680000D03*
X110490000Y-104140000D03*
X110490000Y-101600000D03*
X110490000Y-99060000D03*
X110490000Y-96520000D03*
X110490000Y-93980000D03*
X110490000Y-91440000D03*
X110490000Y-88900000D03*
D12*
X110490000Y-86360000D03*
%TD*%
D11*
%TO.C,Q6*%
X143510000Y-107950000D03*
D10*
X146050000Y-107950000D03*
X148590000Y-107950000D03*
%TD*%
D14*
%TO.C,J7*%
X160020000Y-107950000D03*
X160020000Y-102870000D03*
X160020000Y-113030000D03*
X160020000Y-97790000D03*
X160020000Y-92710000D03*
D15*
X160020000Y-87630000D03*
%TD*%
D16*
%TO.C,D1*%
X153670000Y-139700000D03*
D17*
X153670000Y-129540000D03*
%TD*%
D13*
%TO.C,J1*%
X92710000Y-134620000D03*
X92710000Y-132080000D03*
X92710000Y-129540000D03*
X92710000Y-127000000D03*
X92710000Y-124460000D03*
X92710000Y-121920000D03*
X92710000Y-119380000D03*
X92710000Y-116840000D03*
X92710000Y-114300000D03*
X92710000Y-111760000D03*
X92710000Y-109220000D03*
X92710000Y-106680000D03*
X92710000Y-104140000D03*
X92710000Y-101600000D03*
X92710000Y-99060000D03*
X92710000Y-96520000D03*
X92710000Y-93980000D03*
X92710000Y-91440000D03*
X92710000Y-88900000D03*
D12*
X92710000Y-86360000D03*
%TD*%
%TO.C,J4*%
X123190000Y-134620000D03*
D13*
X125730000Y-134620000D03*
X128270000Y-134620000D03*
%TD*%
D12*
%TO.C,J5*%
X134620000Y-86360000D03*
D13*
X134620000Y-88900000D03*
X134620000Y-91440000D03*
X134620000Y-93980000D03*
X134620000Y-96520000D03*
X134620000Y-99060000D03*
X134620000Y-101600000D03*
X134620000Y-104140000D03*
X134620000Y-106680000D03*
X134620000Y-109220000D03*
X134620000Y-111760000D03*
X134620000Y-114300000D03*
X134620000Y-116840000D03*
X134620000Y-119380000D03*
X134620000Y-121920000D03*
X134620000Y-124460000D03*
X134620000Y-127000000D03*
X134620000Y-129540000D03*
X134620000Y-132080000D03*
X134620000Y-134620000D03*
%TD*%
D14*
%TO.C,J6*%
X143510000Y-138430000D03*
D15*
X148590000Y-138430000D03*
%TD*%
D14*
%TO.C,J8*%
X160020000Y-129540000D03*
D15*
X160020000Y-124460000D03*
X160020000Y-134620000D03*
D14*
X160020000Y-119380000D03*
%TD*%
D11*
%TO.C,Q1*%
X143510000Y-130810000D03*
D10*
X146050000Y-130810000D03*
X148590000Y-130810000D03*
%TD*%
%TO.C,Q2*%
X148590000Y-85090000D03*
X146050000Y-85090000D03*
D11*
X143510000Y-85090000D03*
%TD*%
%TO.C,Q3*%
X143510000Y-92710000D03*
D10*
X146050000Y-92710000D03*
X148590000Y-92710000D03*
%TD*%
D11*
%TO.C,Q4*%
X143510000Y-123190000D03*
D10*
X146050000Y-123190000D03*
X148590000Y-123190000D03*
%TD*%
%TO.C,Q7*%
X148590000Y-115570000D03*
X146050000Y-115570000D03*
D11*
X143510000Y-115570000D03*
%TD*%
M02*
