%TF.GenerationSoftware,KiCad,Pcbnew,(5.1.10)-1*%
%TF.CreationDate,2022-01-11T17:35:31-08:00*%
%TF.ProjectId,science_cake_mosfets_2,73636965-6e63-4655-9f63-616b655f6d6f,rev?*%
%TF.SameCoordinates,Original*%
%TF.FileFunction,Copper,L1,Top*%
%TF.FilePolarity,Positive*%
%FSLAX46Y46*%
G04 Gerber Fmt 4.6, Leading zero omitted, Abs format (unit mm)*
G04 Created by KiCad (PCBNEW (5.1.10)-1) date 2022-01-11 17:35:31*
%MOMM*%
%LPD*%
G01*
G04 APERTURE LIST*
%TA.AperFunction,ComponentPad*%
%ADD10O,1.905000X2.000000*%
%TD*%
%TA.AperFunction,ComponentPad*%
%ADD11R,1.905000X2.000000*%
%TD*%
%TA.AperFunction,ComponentPad*%
%ADD12R,1.700000X1.700000*%
%TD*%
%TA.AperFunction,ComponentPad*%
%ADD13O,1.700000X1.700000*%
%TD*%
%TA.AperFunction,ComponentPad*%
%ADD14R,3.000000X3.000000*%
%TD*%
%TA.AperFunction,ComponentPad*%
%ADD15C,3.000000*%
%TD*%
%TA.AperFunction,ComponentPad*%
%ADD16R,2.200000X2.200000*%
%TD*%
%TA.AperFunction,ComponentPad*%
%ADD17O,2.200000X2.200000*%
%TD*%
%TA.AperFunction,ViaPad*%
%ADD18C,5.000000*%
%TD*%
%TA.AperFunction,Conductor*%
%ADD19C,2.790000*%
%TD*%
%TA.AperFunction,Conductor*%
%ADD20C,0.760000*%
%TD*%
%TA.AperFunction,Conductor*%
%ADD21C,2.760000*%
%TD*%
%TA.AperFunction,Conductor*%
%ADD22C,0.250000*%
%TD*%
G04 APERTURE END LIST*
D10*
%TO.P,Q5,3*%
%TO.N,COM*%
X148590000Y-100330000D03*
%TO.P,Q5,2*%
%TO.N,D_PUMP_C*%
X146050000Y-100330000D03*
D11*
%TO.P,Q5,1*%
%TO.N,G_PUMP_C*%
X143510000Y-100330000D03*
%TD*%
D12*
%TO.P,J3,1*%
%TO.N,RX*%
X116840000Y-86360000D03*
D13*
%TO.P,J3,2*%
%TO.N,TX*%
X116840000Y-88900000D03*
%TO.P,J3,3*%
%TO.N,Net-(J3-Pad3)*%
X116840000Y-91440000D03*
%TO.P,J3,4*%
%TO.N,Net-(J3-Pad4)*%
X116840000Y-93980000D03*
%TO.P,J3,5*%
%TO.N,Net-(J3-Pad5)*%
X116840000Y-96520000D03*
%TO.P,J3,6*%
%TO.N,Net-(J3-Pad6)*%
X116840000Y-99060000D03*
%TO.P,J3,7*%
%TO.N,Net-(J3-Pad7)*%
X116840000Y-101600000D03*
%TO.P,J3,8*%
%TO.N,Net-(J3-Pad8)*%
X116840000Y-104140000D03*
%TO.P,J3,9*%
%TO.N,Net-(J3-Pad9)*%
X116840000Y-106680000D03*
%TO.P,J3,10*%
%TO.N,Net-(J3-Pad10)*%
X116840000Y-109220000D03*
%TO.P,J3,11*%
%TO.N,Net-(J3-Pad11)*%
X116840000Y-111760000D03*
%TO.P,J3,12*%
%TO.N,Net-(J3-Pad12)*%
X116840000Y-114300000D03*
%TO.P,J3,13*%
%TO.N,Net-(J3-Pad13)*%
X116840000Y-116840000D03*
%TO.P,J3,14*%
%TO.N,Net-(J3-Pad14)*%
X116840000Y-119380000D03*
%TO.P,J3,15*%
%TO.N,Net-(J3-Pad15)*%
X116840000Y-121920000D03*
%TO.P,J3,16*%
%TO.N,Net-(J3-Pad16)*%
X116840000Y-124460000D03*
%TO.P,J3,17*%
%TO.N,Net-(J3-Pad17)*%
X116840000Y-127000000D03*
%TO.P,J3,18*%
%TO.N,COM*%
X116840000Y-129540000D03*
%TO.P,J3,19*%
%TO.N,Net-(J3-Pad19)*%
X116840000Y-132080000D03*
%TO.P,J3,20*%
%TO.N,Net-(J3-Pad20)*%
X116840000Y-134620000D03*
%TD*%
%TO.P,J2,20*%
%TO.N,Net-(J2-Pad20)*%
X110490000Y-134620000D03*
%TO.P,J2,19*%
%TO.N,Net-(J2-Pad19)*%
X110490000Y-132080000D03*
%TO.P,J2,18*%
%TO.N,Net-(J2-Pad18)*%
X110490000Y-129540000D03*
%TO.P,J2,17*%
%TO.N,Net-(J2-Pad17)*%
X110490000Y-127000000D03*
%TO.P,J2,16*%
%TO.N,Net-(J2-Pad16)*%
X110490000Y-124460000D03*
%TO.P,J2,15*%
%TO.N,Net-(J2-Pad15)*%
X110490000Y-121920000D03*
%TO.P,J2,14*%
%TO.N,Net-(J2-Pad14)*%
X110490000Y-119380000D03*
%TO.P,J2,13*%
%TO.N,Net-(J2-Pad13)*%
X110490000Y-116840000D03*
%TO.P,J2,12*%
%TO.N,Net-(J2-Pad12)*%
X110490000Y-114300000D03*
%TO.P,J2,11*%
%TO.N,Net-(J2-Pad11)*%
X110490000Y-111760000D03*
%TO.P,J2,10*%
%TO.N,Net-(J2-Pad10)*%
X110490000Y-109220000D03*
%TO.P,J2,9*%
%TO.N,Net-(J2-Pad9)*%
X110490000Y-106680000D03*
%TO.P,J2,8*%
%TO.N,Net-(J2-Pad8)*%
X110490000Y-104140000D03*
%TO.P,J2,7*%
%TO.N,Net-(J2-Pad7)*%
X110490000Y-101600000D03*
%TO.P,J2,6*%
%TO.N,Net-(J2-Pad6)*%
X110490000Y-99060000D03*
%TO.P,J2,5*%
%TO.N,Net-(J2-Pad5)*%
X110490000Y-96520000D03*
%TO.P,J2,4*%
%TO.N,Net-(J2-Pad4)*%
X110490000Y-93980000D03*
%TO.P,J2,3*%
%TO.N,Net-(J2-Pad3)*%
X110490000Y-91440000D03*
%TO.P,J2,2*%
%TO.N,Net-(J2-Pad2)*%
X110490000Y-88900000D03*
D12*
%TO.P,J2,1*%
%TO.N,VBUS*%
X110490000Y-86360000D03*
%TD*%
D11*
%TO.P,Q6,1*%
%TO.N,G_PUMP_D*%
X143510000Y-107950000D03*
D10*
%TO.P,Q6,2*%
%TO.N,D_PUMP_D*%
X146050000Y-107950000D03*
%TO.P,Q6,3*%
%TO.N,COM*%
X148590000Y-107950000D03*
%TD*%
D14*
%TO.P,J7,2*%
%TO.N,D_PUMP_D*%
X160020000Y-107950000D03*
%TO.P,J7,3*%
%TO.N,D_PUMP_C*%
X160020000Y-102870000D03*
%TO.P,J7,1*%
%TO.N,D_PUMP_E*%
X160020000Y-113030000D03*
%TO.P,J7,4*%
%TO.N,D_PUMP_B*%
X160020000Y-97790000D03*
%TO.P,J7,5*%
%TO.N,D_PUMP_A*%
X160020000Y-92710000D03*
D15*
%TO.P,J7,6*%
%TO.N,PUMPS_12V*%
X160020000Y-87630000D03*
%TD*%
D16*
%TO.P,D1,1*%
%TO.N,PUMPS_12V*%
X153670000Y-139700000D03*
D17*
%TO.P,D1,2*%
%TO.N,D_WATER*%
X153670000Y-129540000D03*
%TD*%
D13*
%TO.P,J1,20*%
%TO.N,Net-(J1-Pad20)*%
X92710000Y-134620000D03*
%TO.P,J1,19*%
%TO.N,Net-(J1-Pad19)*%
X92710000Y-132080000D03*
%TO.P,J1,18*%
%TO.N,Net-(J1-Pad18)*%
X92710000Y-129540000D03*
%TO.P,J1,17*%
%TO.N,Net-(J1-Pad17)*%
X92710000Y-127000000D03*
%TO.P,J1,16*%
%TO.N,Net-(J1-Pad16)*%
X92710000Y-124460000D03*
%TO.P,J1,15*%
%TO.N,Net-(J1-Pad15)*%
X92710000Y-121920000D03*
%TO.P,J1,14*%
%TO.N,Net-(J1-Pad14)*%
X92710000Y-119380000D03*
%TO.P,J1,13*%
%TO.N,Net-(J1-Pad13)*%
X92710000Y-116840000D03*
%TO.P,J1,12*%
%TO.N,Net-(J1-Pad12)*%
X92710000Y-114300000D03*
%TO.P,J1,11*%
%TO.N,Net-(J1-Pad11)*%
X92710000Y-111760000D03*
%TO.P,J1,10*%
%TO.N,Net-(J1-Pad10)*%
X92710000Y-109220000D03*
%TO.P,J1,9*%
%TO.N,Net-(J1-Pad9)*%
X92710000Y-106680000D03*
%TO.P,J1,8*%
%TO.N,Net-(J1-Pad8)*%
X92710000Y-104140000D03*
%TO.P,J1,7*%
%TO.N,RX*%
X92710000Y-101600000D03*
%TO.P,J1,6*%
%TO.N,TX*%
X92710000Y-99060000D03*
%TO.P,J1,5*%
%TO.N,SWDIO*%
X92710000Y-96520000D03*
%TO.P,J1,4*%
%TO.N,SWCLK*%
X92710000Y-93980000D03*
%TO.P,J1,3*%
%TO.N,COM*%
X92710000Y-91440000D03*
%TO.P,J1,2*%
%TO.N,Net-(J1-Pad2)*%
X92710000Y-88900000D03*
D12*
%TO.P,J1,1*%
%TO.N,Net-(J1-Pad1)*%
X92710000Y-86360000D03*
%TD*%
%TO.P,J4,1*%
%TO.N,SWCLK*%
X123190000Y-134620000D03*
D13*
%TO.P,J4,2*%
%TO.N,COM*%
X125730000Y-134620000D03*
%TO.P,J4,3*%
%TO.N,SWDIO*%
X128270000Y-134620000D03*
%TD*%
D12*
%TO.P,J5,1*%
%TO.N,VBUS*%
X134620000Y-86360000D03*
D13*
%TO.P,J5,2*%
%TO.N,Net-(J5-Pad2)*%
X134620000Y-88900000D03*
%TO.P,J5,3*%
%TO.N,COM*%
X134620000Y-91440000D03*
%TO.P,J5,4*%
%TO.N,Net-(J5-Pad4)*%
X134620000Y-93980000D03*
%TO.P,J5,5*%
%TO.N,Net-(J5-Pad5)*%
X134620000Y-96520000D03*
%TO.P,J5,6*%
%TO.N,Net-(J5-Pad6)*%
X134620000Y-99060000D03*
%TO.P,J5,7*%
%TO.N,Net-(J5-Pad7)*%
X134620000Y-101600000D03*
%TO.P,J5,8*%
%TO.N,Net-(J5-Pad8)*%
X134620000Y-104140000D03*
%TO.P,J5,9*%
%TO.N,Net-(J5-Pad9)*%
X134620000Y-106680000D03*
%TO.P,J5,10*%
%TO.N,Net-(J5-Pad10)*%
X134620000Y-109220000D03*
%TO.P,J5,11*%
%TO.N,Net-(J5-Pad11)*%
X134620000Y-111760000D03*
%TO.P,J5,12*%
%TO.N,G_PUMP_A*%
X134620000Y-114300000D03*
%TO.P,J5,13*%
%TO.N,Net-(J5-Pad13)*%
X134620000Y-116840000D03*
%TO.P,J5,14*%
%TO.N,G_PUMP_B*%
X134620000Y-119380000D03*
%TO.P,J5,15*%
%TO.N,G_PUMP_C*%
X134620000Y-121920000D03*
%TO.P,J5,16*%
%TO.N,G_PUMP_D*%
X134620000Y-124460000D03*
%TO.P,J5,17*%
%TO.N,G_PUMP_E*%
X134620000Y-127000000D03*
%TO.P,J5,18*%
%TO.N,COM*%
X134620000Y-129540000D03*
%TO.P,J5,19*%
%TO.N,G_VACUUM*%
X134620000Y-132080000D03*
%TO.P,J5,20*%
%TO.N,G_WATER*%
X134620000Y-134620000D03*
%TD*%
D14*
%TO.P,J6,1*%
%TO.N,COM*%
X143510000Y-138430000D03*
D15*
%TO.P,J6,2*%
%TO.N,PUMPS_12V*%
X148590000Y-138430000D03*
%TD*%
D14*
%TO.P,J8,2*%
%TO.N,D_WATER*%
X160020000Y-129540000D03*
D15*
%TO.P,J8,3*%
%TO.N,PUMPS_12V*%
X160020000Y-124460000D03*
%TO.P,J8,1*%
X160020000Y-134620000D03*
D14*
%TO.P,J8,4*%
%TO.N,D_VACUUM*%
X160020000Y-119380000D03*
%TD*%
D11*
%TO.P,Q1,1*%
%TO.N,G_WATER*%
X143510000Y-130810000D03*
D10*
%TO.P,Q1,2*%
%TO.N,D_WATER*%
X146050000Y-130810000D03*
%TO.P,Q1,3*%
%TO.N,COM*%
X148590000Y-130810000D03*
%TD*%
%TO.P,Q2,3*%
%TO.N,COM*%
X148590000Y-85090000D03*
%TO.P,Q2,2*%
%TO.N,D_PUMP_A*%
X146050000Y-85090000D03*
D11*
%TO.P,Q2,1*%
%TO.N,G_PUMP_A*%
X143510000Y-85090000D03*
%TD*%
%TO.P,Q3,1*%
%TO.N,G_PUMP_B*%
X143510000Y-92710000D03*
D10*
%TO.P,Q3,2*%
%TO.N,D_PUMP_B*%
X146050000Y-92710000D03*
%TO.P,Q3,3*%
%TO.N,COM*%
X148590000Y-92710000D03*
%TD*%
D11*
%TO.P,Q4,1*%
%TO.N,G_VACUUM*%
X143510000Y-123190000D03*
D10*
%TO.P,Q4,2*%
%TO.N,D_VACUUM*%
X146050000Y-123190000D03*
%TO.P,Q4,3*%
%TO.N,COM*%
X148590000Y-123190000D03*
%TD*%
%TO.P,Q7,3*%
%TO.N,COM*%
X148590000Y-115570000D03*
%TO.P,Q7,2*%
%TO.N,D_PUMP_E*%
X146050000Y-115570000D03*
D11*
%TO.P,Q7,1*%
%TO.N,G_PUMP_E*%
X143510000Y-115570000D03*
%TD*%
%TO.P,R1,1*%
%TO.N,G_WATER*%
%TA.AperFunction,SMDPad,CuDef*%
G36*
G01*
X144110000Y-126549999D02*
X144110000Y-127450001D01*
G75*
G02*
X143860001Y-127700000I-249999J0D01*
G01*
X143159999Y-127700000D01*
G75*
G02*
X142910000Y-127450001I0J249999D01*
G01*
X142910000Y-126549999D01*
G75*
G02*
X143159999Y-126300000I249999J0D01*
G01*
X143860001Y-126300000D01*
G75*
G02*
X144110000Y-126549999I0J-249999D01*
G01*
G37*
%TD.AperFunction*%
%TO.P,R1,2*%
%TO.N,COM*%
%TA.AperFunction,SMDPad,CuDef*%
G36*
G01*
X142110000Y-126549999D02*
X142110000Y-127450001D01*
G75*
G02*
X141860001Y-127700000I-249999J0D01*
G01*
X141159999Y-127700000D01*
G75*
G02*
X140910000Y-127450001I0J249999D01*
G01*
X140910000Y-126549999D01*
G75*
G02*
X141159999Y-126300000I249999J0D01*
G01*
X141860001Y-126300000D01*
G75*
G02*
X142110000Y-126549999I0J-249999D01*
G01*
G37*
%TD.AperFunction*%
%TD*%
%TO.P,R2,1*%
%TO.N,G_PUMP_A*%
%TA.AperFunction,SMDPad,CuDef*%
G36*
G01*
X144110000Y-80829999D02*
X144110000Y-81730001D01*
G75*
G02*
X143860001Y-81980000I-249999J0D01*
G01*
X143159999Y-81980000D01*
G75*
G02*
X142910000Y-81730001I0J249999D01*
G01*
X142910000Y-80829999D01*
G75*
G02*
X143159999Y-80580000I249999J0D01*
G01*
X143860001Y-80580000D01*
G75*
G02*
X144110000Y-80829999I0J-249999D01*
G01*
G37*
%TD.AperFunction*%
%TO.P,R2,2*%
%TO.N,COM*%
%TA.AperFunction,SMDPad,CuDef*%
G36*
G01*
X142110000Y-80829999D02*
X142110000Y-81730001D01*
G75*
G02*
X141860001Y-81980000I-249999J0D01*
G01*
X141159999Y-81980000D01*
G75*
G02*
X140910000Y-81730001I0J249999D01*
G01*
X140910000Y-80829999D01*
G75*
G02*
X141159999Y-80580000I249999J0D01*
G01*
X141860001Y-80580000D01*
G75*
G02*
X142110000Y-80829999I0J-249999D01*
G01*
G37*
%TD.AperFunction*%
%TD*%
%TO.P,R3,2*%
%TO.N,COM*%
%TA.AperFunction,SMDPad,CuDef*%
G36*
G01*
X142110000Y-87814999D02*
X142110000Y-88715001D01*
G75*
G02*
X141860001Y-88965000I-249999J0D01*
G01*
X141159999Y-88965000D01*
G75*
G02*
X140910000Y-88715001I0J249999D01*
G01*
X140910000Y-87814999D01*
G75*
G02*
X141159999Y-87565000I249999J0D01*
G01*
X141860001Y-87565000D01*
G75*
G02*
X142110000Y-87814999I0J-249999D01*
G01*
G37*
%TD.AperFunction*%
%TO.P,R3,1*%
%TO.N,G_PUMP_B*%
%TA.AperFunction,SMDPad,CuDef*%
G36*
G01*
X144110000Y-87814999D02*
X144110000Y-88715001D01*
G75*
G02*
X143860001Y-88965000I-249999J0D01*
G01*
X143159999Y-88965000D01*
G75*
G02*
X142910000Y-88715001I0J249999D01*
G01*
X142910000Y-87814999D01*
G75*
G02*
X143159999Y-87565000I249999J0D01*
G01*
X143860001Y-87565000D01*
G75*
G02*
X144110000Y-87814999I0J-249999D01*
G01*
G37*
%TD.AperFunction*%
%TD*%
%TO.P,R4,2*%
%TO.N,COM*%
%TA.AperFunction,SMDPad,CuDef*%
G36*
G01*
X142110000Y-118929999D02*
X142110000Y-119830001D01*
G75*
G02*
X141860001Y-120080000I-249999J0D01*
G01*
X141159999Y-120080000D01*
G75*
G02*
X140910000Y-119830001I0J249999D01*
G01*
X140910000Y-118929999D01*
G75*
G02*
X141159999Y-118680000I249999J0D01*
G01*
X141860001Y-118680000D01*
G75*
G02*
X142110000Y-118929999I0J-249999D01*
G01*
G37*
%TD.AperFunction*%
%TO.P,R4,1*%
%TO.N,G_VACUUM*%
%TA.AperFunction,SMDPad,CuDef*%
G36*
G01*
X144110000Y-118929999D02*
X144110000Y-119830001D01*
G75*
G02*
X143860001Y-120080000I-249999J0D01*
G01*
X143159999Y-120080000D01*
G75*
G02*
X142910000Y-119830001I0J249999D01*
G01*
X142910000Y-118929999D01*
G75*
G02*
X143159999Y-118680000I249999J0D01*
G01*
X143860001Y-118680000D01*
G75*
G02*
X144110000Y-118929999I0J-249999D01*
G01*
G37*
%TD.AperFunction*%
%TD*%
%TO.P,R5,1*%
%TO.N,G_PUMP_C*%
%TA.AperFunction,SMDPad,CuDef*%
G36*
G01*
X144110000Y-96069999D02*
X144110000Y-96970001D01*
G75*
G02*
X143860001Y-97220000I-249999J0D01*
G01*
X143159999Y-97220000D01*
G75*
G02*
X142910000Y-96970001I0J249999D01*
G01*
X142910000Y-96069999D01*
G75*
G02*
X143159999Y-95820000I249999J0D01*
G01*
X143860001Y-95820000D01*
G75*
G02*
X144110000Y-96069999I0J-249999D01*
G01*
G37*
%TD.AperFunction*%
%TO.P,R5,2*%
%TO.N,COM*%
%TA.AperFunction,SMDPad,CuDef*%
G36*
G01*
X142110000Y-96069999D02*
X142110000Y-96970001D01*
G75*
G02*
X141860001Y-97220000I-249999J0D01*
G01*
X141159999Y-97220000D01*
G75*
G02*
X140910000Y-96970001I0J249999D01*
G01*
X140910000Y-96069999D01*
G75*
G02*
X141159999Y-95820000I249999J0D01*
G01*
X141860001Y-95820000D01*
G75*
G02*
X142110000Y-96069999I0J-249999D01*
G01*
G37*
%TD.AperFunction*%
%TD*%
%TO.P,R6,1*%
%TO.N,G_PUMP_D*%
%TA.AperFunction,SMDPad,CuDef*%
G36*
G01*
X144110000Y-103689999D02*
X144110000Y-104590001D01*
G75*
G02*
X143860001Y-104840000I-249999J0D01*
G01*
X143159999Y-104840000D01*
G75*
G02*
X142910000Y-104590001I0J249999D01*
G01*
X142910000Y-103689999D01*
G75*
G02*
X143159999Y-103440000I249999J0D01*
G01*
X143860001Y-103440000D01*
G75*
G02*
X144110000Y-103689999I0J-249999D01*
G01*
G37*
%TD.AperFunction*%
%TO.P,R6,2*%
%TO.N,COM*%
%TA.AperFunction,SMDPad,CuDef*%
G36*
G01*
X142110000Y-103689999D02*
X142110000Y-104590001D01*
G75*
G02*
X141860001Y-104840000I-249999J0D01*
G01*
X141159999Y-104840000D01*
G75*
G02*
X140910000Y-104590001I0J249999D01*
G01*
X140910000Y-103689999D01*
G75*
G02*
X141159999Y-103440000I249999J0D01*
G01*
X141860001Y-103440000D01*
G75*
G02*
X142110000Y-103689999I0J-249999D01*
G01*
G37*
%TD.AperFunction*%
%TD*%
%TO.P,R7,2*%
%TO.N,COM*%
%TA.AperFunction,SMDPad,CuDef*%
G36*
G01*
X142110000Y-111309999D02*
X142110000Y-112210001D01*
G75*
G02*
X141860001Y-112460000I-249999J0D01*
G01*
X141159999Y-112460000D01*
G75*
G02*
X140910000Y-112210001I0J249999D01*
G01*
X140910000Y-111309999D01*
G75*
G02*
X141159999Y-111060000I249999J0D01*
G01*
X141860001Y-111060000D01*
G75*
G02*
X142110000Y-111309999I0J-249999D01*
G01*
G37*
%TD.AperFunction*%
%TO.P,R7,1*%
%TO.N,G_PUMP_E*%
%TA.AperFunction,SMDPad,CuDef*%
G36*
G01*
X144110000Y-111309999D02*
X144110000Y-112210001D01*
G75*
G02*
X143860001Y-112460000I-249999J0D01*
G01*
X143159999Y-112460000D01*
G75*
G02*
X142910000Y-112210001I0J249999D01*
G01*
X142910000Y-111309999D01*
G75*
G02*
X143159999Y-111060000I249999J0D01*
G01*
X143860001Y-111060000D01*
G75*
G02*
X144110000Y-111309999I0J-249999D01*
G01*
G37*
%TD.AperFunction*%
%TD*%
D18*
%TO.N,*%
X162560000Y-140970000D03*
X92710000Y-140970000D03*
X92710000Y-81280000D03*
X162560000Y-81280000D03*
%TD*%
D19*
%TO.N,PUMPS_12V*%
X148590000Y-138430000D02*
X149860000Y-139700000D01*
X154940000Y-139700000D02*
X153670000Y-139700000D01*
X160020000Y-134620000D02*
X154940000Y-139700000D01*
X149860000Y-139700000D02*
X153670000Y-139700000D01*
D20*
X160020000Y-87630000D02*
X157480000Y-87630000D01*
X157480000Y-87630000D02*
X154940000Y-90170000D01*
X154940000Y-90170000D02*
X154940000Y-121920000D01*
X157480000Y-124460000D02*
X160020000Y-124460000D01*
X154940000Y-121920000D02*
X157480000Y-124460000D01*
D19*
X160020000Y-134620000D02*
X162560000Y-134620000D01*
X162560000Y-124460000D02*
X160020000Y-124460000D01*
X162560000Y-124460000D02*
X163830000Y-125730000D01*
X163830000Y-125730000D02*
X163830000Y-133350000D01*
X163830000Y-133350000D02*
X162560000Y-134620000D01*
%TO.N,COM*%
X149000000Y-92710000D02*
X149000000Y-85090000D01*
X149000000Y-100330000D02*
X149000000Y-92710000D01*
X149000000Y-107950000D02*
X149000000Y-100330000D01*
X149000000Y-115570000D02*
X149000000Y-107950000D01*
D21*
X149000000Y-130900000D02*
X149000000Y-133350000D01*
D19*
X143920000Y-138430000D02*
X149000000Y-133350000D01*
D22*
X143510000Y-138430000D02*
X143920000Y-138430000D01*
X148590000Y-127000000D02*
X149000000Y-127410000D01*
D19*
X149000000Y-127410000D02*
X149000000Y-123190000D01*
X149000000Y-130810000D02*
X149000000Y-127410000D01*
X149000000Y-123190000D02*
X149000000Y-115570000D01*
D22*
X141605000Y-127095000D02*
X141510000Y-127000000D01*
X141510000Y-136430000D02*
X143510000Y-138430000D01*
X141510000Y-127000000D02*
X141510000Y-136430000D01*
X137160000Y-127000000D02*
X134620000Y-129540000D01*
X141510000Y-127000000D02*
X137160000Y-127000000D01*
X141510000Y-127000000D02*
X141510000Y-119380000D01*
X141510000Y-119380000D02*
X141510000Y-111760000D01*
X141510000Y-111760000D02*
X141510000Y-104140000D01*
X141510000Y-104140000D02*
X141510000Y-96520000D01*
X141510000Y-96520000D02*
X141510000Y-88265000D01*
X141510000Y-88265000D02*
X141510000Y-81280000D01*
%TO.N,SWDIO*%
X128270000Y-137160000D02*
X128270000Y-134620000D01*
X127000000Y-138430000D02*
X128270000Y-137160000D01*
X97790000Y-138430000D02*
X127000000Y-138430000D01*
X96520000Y-137160000D02*
X97790000Y-138430000D01*
X96520000Y-100330000D02*
X96520000Y-137160000D01*
X92710000Y-96520000D02*
X96520000Y-100330000D01*
%TO.N,SWCLK*%
X92710000Y-93980000D02*
X97790000Y-99060000D01*
X97790000Y-99060000D02*
X97790000Y-135890000D01*
X97790000Y-135890000D02*
X99060000Y-137160000D01*
X99060000Y-137160000D02*
X121920000Y-137160000D01*
X123190000Y-135890000D02*
X123190000Y-134620000D01*
X121920000Y-137160000D02*
X123190000Y-135890000D01*
%TO.N,VBUS*%
X110490000Y-86360000D02*
X113030000Y-83820000D01*
X113030000Y-83820000D02*
X132080000Y-83820000D01*
X132080000Y-83820000D02*
X134620000Y-86360000D01*
%TO.N,G_PUMP_A*%
X143510000Y-85090000D02*
X143510000Y-81280000D01*
%TO.N,G_PUMP_B*%
X143510000Y-88900000D02*
X143510000Y-92710000D01*
%TO.N,G_PUMP_C*%
X143510000Y-96520000D02*
X143510000Y-100330000D01*
%TO.N,G_PUMP_D*%
X143510000Y-104140000D02*
X143510000Y-107950000D01*
%TO.N,G_PUMP_E*%
X143510000Y-111760000D02*
X143510000Y-115570000D01*
%TO.N,G_WATER*%
X143510000Y-130810000D02*
X143510000Y-127000000D01*
%TO.N,G_VACUUM*%
X143510000Y-123190000D02*
X143510000Y-119380000D01*
%TD*%
M02*
