M48
; DRILL file {KiCad (5.1.10)-1} date 01/11/22 17:35:40
; FORMAT={-:-/ absolute / inch / decimal}
; #@! TF.CreationDate,2022-01-11T17:35:40-08:00
; #@! TF.GenerationSoftware,Kicad,Pcbnew,(5.1.10)-1
FMAT,2
INCH
T1C0.0394
T2C0.0433
T3C0.0598
T4C0.1378
%
G90
G05
T1
X3.65Y-3.4
X3.65Y-3.5
X3.65Y-3.6
X3.65Y-3.7
X3.65Y-3.8
X3.65Y-3.9
X3.65Y-4.0
X3.65Y-4.1
X3.65Y-4.2
X3.65Y-4.3
X3.65Y-4.4
X3.65Y-4.5
X3.65Y-4.6
X3.65Y-4.7
X3.65Y-4.8
X3.65Y-4.9
X3.65Y-5.0
X3.65Y-5.1
X3.65Y-5.2
X3.65Y-5.3
X4.35Y-3.4
X4.35Y-3.5
X4.35Y-3.6
X4.35Y-3.7
X4.35Y-3.8
X4.35Y-3.9
X4.35Y-4.0
X4.35Y-4.1
X4.35Y-4.2
X4.35Y-4.3
X4.35Y-4.4
X4.35Y-4.5
X4.35Y-4.6
X4.35Y-4.7
X4.35Y-4.8
X4.35Y-4.9
X4.35Y-5.0
X4.35Y-5.1
X4.35Y-5.2
X4.35Y-5.3
X4.6Y-3.4
X4.6Y-3.5
X4.6Y-3.6
X4.6Y-3.7
X4.6Y-3.8
X4.6Y-3.9
X4.6Y-4.0
X4.6Y-4.1
X4.6Y-4.2
X4.6Y-4.3
X4.6Y-4.4
X4.6Y-4.5
X4.6Y-4.6
X4.6Y-4.7
X4.6Y-4.8
X4.6Y-4.9
X4.6Y-5.0
X4.6Y-5.1
X4.6Y-5.2
X4.6Y-5.3
X4.85Y-5.3
X4.95Y-5.3
X5.05Y-5.3
X5.3Y-3.4
X5.3Y-3.5
X5.3Y-3.6
X5.3Y-3.7
X5.3Y-3.8
X5.3Y-3.9
X5.3Y-4.0
X5.3Y-4.1
X5.3Y-4.2
X5.3Y-4.3
X5.3Y-4.4
X5.3Y-4.5
X5.3Y-4.6
X5.3Y-4.7
X5.3Y-4.8
X5.3Y-4.9
X5.3Y-5.0
X5.3Y-5.1
X5.3Y-5.2
X5.3Y-5.3
T2
X5.65Y-3.35
X5.65Y-3.65
X5.65Y-3.95
X5.65Y-4.25
X5.65Y-4.55
X5.65Y-4.85
X5.65Y-5.15
X5.75Y-3.35
X5.75Y-3.65
X5.75Y-3.95
X5.75Y-4.25
X5.75Y-4.55
X5.75Y-4.85
X5.75Y-5.15
X5.85Y-3.35
X5.85Y-3.65
X5.85Y-3.95
X5.85Y-4.25
X5.85Y-4.55
X5.85Y-4.85
X5.85Y-5.15
X6.05Y-5.1
X6.05Y-5.5
T3
X5.65Y-5.45
X5.85Y-5.45
X6.3Y-3.45
X6.3Y-3.65
X6.3Y-3.85
X6.3Y-4.05
X6.3Y-4.25
X6.3Y-4.45
X6.3Y-4.7
X6.3Y-4.9
X6.3Y-5.1
X6.3Y-5.3
T4
X3.65Y-3.2
X3.65Y-5.55
X6.4Y-3.2
X6.4Y-5.55
T0
M30
