%TF.GenerationSoftware,KiCad,Pcbnew,(5.1.10)-1*%
%TF.CreationDate,2022-01-11T17:35:31-08:00*%
%TF.ProjectId,science_cake_mosfets_2,73636965-6e63-4655-9f63-616b655f6d6f,rev?*%
%TF.SameCoordinates,Original*%
%TF.FileFunction,Legend,Bot*%
%TF.FilePolarity,Positive*%
%FSLAX46Y46*%
G04 Gerber Fmt 4.6, Leading zero omitted, Abs format (unit mm)*
G04 Created by KiCad (PCBNEW (5.1.10)-1) date 2022-01-11 17:35:31*
%MOMM*%
%LPD*%
G01*
G04 APERTURE LIST*
%ADD10C,0.150000*%
%ADD11C,0.120000*%
%ADD12C,0.010000*%
G04 APERTURE END LIST*
D10*
X137921904Y-129040000D02*
X138017142Y-128992380D01*
X138160000Y-128992380D01*
X138302857Y-129040000D01*
X138398095Y-129135238D01*
X138445714Y-129230476D01*
X138493333Y-129420952D01*
X138493333Y-129563809D01*
X138445714Y-129754285D01*
X138398095Y-129849523D01*
X138302857Y-129944761D01*
X138160000Y-129992380D01*
X138064761Y-129992380D01*
X137921904Y-129944761D01*
X137874285Y-129897142D01*
X137874285Y-129563809D01*
X138064761Y-129563809D01*
X137445714Y-129992380D02*
X137445714Y-128992380D01*
X136874285Y-129992380D01*
X136874285Y-128992380D01*
X136398095Y-129992380D02*
X136398095Y-128992380D01*
X136160000Y-128992380D01*
X136017142Y-129040000D01*
X135921904Y-129135238D01*
X135874285Y-129230476D01*
X135826666Y-129420952D01*
X135826666Y-129563809D01*
X135874285Y-129754285D01*
X135921904Y-129849523D01*
X136017142Y-129944761D01*
X136160000Y-129992380D01*
X136398095Y-129992380D01*
X108465714Y-85812380D02*
X108465714Y-86621904D01*
X108418095Y-86717142D01*
X108370476Y-86764761D01*
X108275238Y-86812380D01*
X108084761Y-86812380D01*
X107989523Y-86764761D01*
X107941904Y-86717142D01*
X107894285Y-86621904D01*
X107894285Y-85812380D01*
X107084761Y-86288571D02*
X106941904Y-86336190D01*
X106894285Y-86383809D01*
X106846666Y-86479047D01*
X106846666Y-86621904D01*
X106894285Y-86717142D01*
X106941904Y-86764761D01*
X107037142Y-86812380D01*
X107418095Y-86812380D01*
X107418095Y-85812380D01*
X107084761Y-85812380D01*
X106989523Y-85860000D01*
X106941904Y-85907619D01*
X106894285Y-86002857D01*
X106894285Y-86098095D01*
X106941904Y-86193333D01*
X106989523Y-86240952D01*
X107084761Y-86288571D01*
X107418095Y-86288571D01*
X106418095Y-85812380D02*
X106418095Y-86621904D01*
X106370476Y-86717142D01*
X106322857Y-86764761D01*
X106227619Y-86812380D01*
X106037142Y-86812380D01*
X105941904Y-86764761D01*
X105894285Y-86717142D01*
X105846666Y-86621904D01*
X105846666Y-85812380D01*
X105418095Y-86764761D02*
X105275238Y-86812380D01*
X105037142Y-86812380D01*
X104941904Y-86764761D01*
X104894285Y-86717142D01*
X104846666Y-86621904D01*
X104846666Y-86526666D01*
X104894285Y-86431428D01*
X104941904Y-86383809D01*
X105037142Y-86336190D01*
X105227619Y-86288571D01*
X105322857Y-86240952D01*
X105370476Y-86193333D01*
X105418095Y-86098095D01*
X105418095Y-86002857D01*
X105370476Y-85907619D01*
X105322857Y-85860000D01*
X105227619Y-85812380D01*
X104989523Y-85812380D01*
X104846666Y-85860000D01*
X120641904Y-129040000D02*
X120737142Y-128992380D01*
X120880000Y-128992380D01*
X121022857Y-129040000D01*
X121118095Y-129135238D01*
X121165714Y-129230476D01*
X121213333Y-129420952D01*
X121213333Y-129563809D01*
X121165714Y-129754285D01*
X121118095Y-129849523D01*
X121022857Y-129944761D01*
X120880000Y-129992380D01*
X120784761Y-129992380D01*
X120641904Y-129944761D01*
X120594285Y-129897142D01*
X120594285Y-129563809D01*
X120784761Y-129563809D01*
X120165714Y-129992380D02*
X120165714Y-128992380D01*
X119594285Y-129992380D01*
X119594285Y-128992380D01*
X119118095Y-129992380D02*
X119118095Y-128992380D01*
X118880000Y-128992380D01*
X118737142Y-129040000D01*
X118641904Y-129135238D01*
X118594285Y-129230476D01*
X118546666Y-129420952D01*
X118546666Y-129563809D01*
X118594285Y-129754285D01*
X118641904Y-129849523D01*
X118737142Y-129944761D01*
X118880000Y-129992380D01*
X119118095Y-129992380D01*
X124872380Y-88352380D02*
X124872380Y-89161904D01*
X124824761Y-89257142D01*
X124777142Y-89304761D01*
X124681904Y-89352380D01*
X124491428Y-89352380D01*
X124396190Y-89304761D01*
X124348571Y-89257142D01*
X124300952Y-89161904D01*
X124300952Y-88352380D01*
X123872380Y-89066666D02*
X123396190Y-89066666D01*
X123967619Y-89352380D02*
X123634285Y-88352380D01*
X123300952Y-89352380D01*
X122396190Y-89352380D02*
X122729523Y-88876190D01*
X122967619Y-89352380D02*
X122967619Y-88352380D01*
X122586666Y-88352380D01*
X122491428Y-88400000D01*
X122443809Y-88447619D01*
X122396190Y-88542857D01*
X122396190Y-88685714D01*
X122443809Y-88780952D01*
X122491428Y-88828571D01*
X122586666Y-88876190D01*
X122967619Y-88876190D01*
X122110476Y-88352380D02*
X121539047Y-88352380D01*
X121824761Y-89352380D02*
X121824761Y-88352380D01*
X119872380Y-89352380D02*
X120205714Y-88876190D01*
X120443809Y-89352380D02*
X120443809Y-88352380D01*
X120062857Y-88352380D01*
X119967619Y-88400000D01*
X119920000Y-88447619D01*
X119872380Y-88542857D01*
X119872380Y-88685714D01*
X119920000Y-88780952D01*
X119967619Y-88828571D01*
X120062857Y-88876190D01*
X120443809Y-88876190D01*
X119539047Y-88352380D02*
X118872380Y-89352380D01*
X118872380Y-88352380D02*
X119539047Y-89352380D01*
X96511904Y-90940000D02*
X96607142Y-90892380D01*
X96750000Y-90892380D01*
X96892857Y-90940000D01*
X96988095Y-91035238D01*
X97035714Y-91130476D01*
X97083333Y-91320952D01*
X97083333Y-91463809D01*
X97035714Y-91654285D01*
X96988095Y-91749523D01*
X96892857Y-91844761D01*
X96750000Y-91892380D01*
X96654761Y-91892380D01*
X96511904Y-91844761D01*
X96464285Y-91797142D01*
X96464285Y-91463809D01*
X96654761Y-91463809D01*
X96035714Y-91892380D02*
X96035714Y-90892380D01*
X95464285Y-91892380D01*
X95464285Y-90892380D01*
X94988095Y-91892380D02*
X94988095Y-90892380D01*
X94750000Y-90892380D01*
X94607142Y-90940000D01*
X94511904Y-91035238D01*
X94464285Y-91130476D01*
X94416666Y-91320952D01*
X94416666Y-91463809D01*
X94464285Y-91654285D01*
X94511904Y-91749523D01*
X94607142Y-91844761D01*
X94750000Y-91892380D01*
X94988095Y-91892380D01*
X100742380Y-101052380D02*
X100742380Y-101861904D01*
X100694761Y-101957142D01*
X100647142Y-102004761D01*
X100551904Y-102052380D01*
X100361428Y-102052380D01*
X100266190Y-102004761D01*
X100218571Y-101957142D01*
X100170952Y-101861904D01*
X100170952Y-101052380D01*
X99742380Y-101766666D02*
X99266190Y-101766666D01*
X99837619Y-102052380D02*
X99504285Y-101052380D01*
X99170952Y-102052380D01*
X98266190Y-102052380D02*
X98599523Y-101576190D01*
X98837619Y-102052380D02*
X98837619Y-101052380D01*
X98456666Y-101052380D01*
X98361428Y-101100000D01*
X98313809Y-101147619D01*
X98266190Y-101242857D01*
X98266190Y-101385714D01*
X98313809Y-101480952D01*
X98361428Y-101528571D01*
X98456666Y-101576190D01*
X98837619Y-101576190D01*
X97980476Y-101052380D02*
X97409047Y-101052380D01*
X97694761Y-102052380D02*
X97694761Y-101052380D01*
X95742380Y-102052380D02*
X96075714Y-101576190D01*
X96313809Y-102052380D02*
X96313809Y-101052380D01*
X95932857Y-101052380D01*
X95837619Y-101100000D01*
X95790000Y-101147619D01*
X95742380Y-101242857D01*
X95742380Y-101385714D01*
X95790000Y-101480952D01*
X95837619Y-101528571D01*
X95932857Y-101576190D01*
X96313809Y-101576190D01*
X95409047Y-101052380D02*
X94742380Y-102052380D01*
X94742380Y-101052380D02*
X95409047Y-102052380D01*
X100623333Y-98512380D02*
X100623333Y-99321904D01*
X100575714Y-99417142D01*
X100528095Y-99464761D01*
X100432857Y-99512380D01*
X100242380Y-99512380D01*
X100147142Y-99464761D01*
X100099523Y-99417142D01*
X100051904Y-99321904D01*
X100051904Y-98512380D01*
X99623333Y-99226666D02*
X99147142Y-99226666D01*
X99718571Y-99512380D02*
X99385238Y-98512380D01*
X99051904Y-99512380D01*
X98147142Y-99512380D02*
X98480476Y-99036190D01*
X98718571Y-99512380D02*
X98718571Y-98512380D01*
X98337619Y-98512380D01*
X98242380Y-98560000D01*
X98194761Y-98607619D01*
X98147142Y-98702857D01*
X98147142Y-98845714D01*
X98194761Y-98940952D01*
X98242380Y-98988571D01*
X98337619Y-99036190D01*
X98718571Y-99036190D01*
X97861428Y-98512380D02*
X97290000Y-98512380D01*
X97575714Y-99512380D02*
X97575714Y-98512380D01*
X96337619Y-98512380D02*
X95766190Y-98512380D01*
X96051904Y-99512380D02*
X96051904Y-98512380D01*
X95528095Y-98512380D02*
X94861428Y-99512380D01*
X94861428Y-98512380D02*
X95528095Y-99512380D01*
X97996190Y-96020000D02*
X98091428Y-95972380D01*
X98234285Y-95972380D01*
X98377142Y-96020000D01*
X98472380Y-96115238D01*
X98520000Y-96210476D01*
X98567619Y-96400952D01*
X98567619Y-96543809D01*
X98520000Y-96734285D01*
X98472380Y-96829523D01*
X98377142Y-96924761D01*
X98234285Y-96972380D01*
X98139047Y-96972380D01*
X97996190Y-96924761D01*
X97948571Y-96877142D01*
X97948571Y-96543809D01*
X98139047Y-96543809D01*
X97520000Y-96972380D02*
X97520000Y-95972380D01*
X97139047Y-95972380D01*
X97043809Y-96020000D01*
X96996190Y-96067619D01*
X96948571Y-96162857D01*
X96948571Y-96305714D01*
X96996190Y-96400952D01*
X97043809Y-96448571D01*
X97139047Y-96496190D01*
X97520000Y-96496190D01*
X96520000Y-96972380D02*
X96520000Y-95972380D01*
X95853333Y-95972380D02*
X95662857Y-95972380D01*
X95567619Y-96020000D01*
X95472380Y-96115238D01*
X95424761Y-96305714D01*
X95424761Y-96639047D01*
X95472380Y-96829523D01*
X95567619Y-96924761D01*
X95662857Y-96972380D01*
X95853333Y-96972380D01*
X95948571Y-96924761D01*
X96043809Y-96829523D01*
X96091428Y-96639047D01*
X96091428Y-96305714D01*
X96043809Y-96115238D01*
X95948571Y-96020000D01*
X95853333Y-95972380D01*
X95091428Y-95972380D02*
X94472380Y-95972380D01*
X94805714Y-96353333D01*
X94662857Y-96353333D01*
X94567619Y-96400952D01*
X94520000Y-96448571D01*
X94472380Y-96543809D01*
X94472380Y-96781904D01*
X94520000Y-96877142D01*
X94567619Y-96924761D01*
X94662857Y-96972380D01*
X94948571Y-96972380D01*
X95043809Y-96924761D01*
X95091428Y-96877142D01*
X97996190Y-93480000D02*
X98091428Y-93432380D01*
X98234285Y-93432380D01*
X98377142Y-93480000D01*
X98472380Y-93575238D01*
X98520000Y-93670476D01*
X98567619Y-93860952D01*
X98567619Y-94003809D01*
X98520000Y-94194285D01*
X98472380Y-94289523D01*
X98377142Y-94384761D01*
X98234285Y-94432380D01*
X98139047Y-94432380D01*
X97996190Y-94384761D01*
X97948571Y-94337142D01*
X97948571Y-94003809D01*
X98139047Y-94003809D01*
X97520000Y-94432380D02*
X97520000Y-93432380D01*
X97139047Y-93432380D01*
X97043809Y-93480000D01*
X96996190Y-93527619D01*
X96948571Y-93622857D01*
X96948571Y-93765714D01*
X96996190Y-93860952D01*
X97043809Y-93908571D01*
X97139047Y-93956190D01*
X97520000Y-93956190D01*
X96520000Y-94432380D02*
X96520000Y-93432380D01*
X95853333Y-93432380D02*
X95662857Y-93432380D01*
X95567619Y-93480000D01*
X95472380Y-93575238D01*
X95424761Y-93765714D01*
X95424761Y-94099047D01*
X95472380Y-94289523D01*
X95567619Y-94384761D01*
X95662857Y-94432380D01*
X95853333Y-94432380D01*
X95948571Y-94384761D01*
X96043809Y-94289523D01*
X96091428Y-94099047D01*
X96091428Y-93765714D01*
X96043809Y-93575238D01*
X95948571Y-93480000D01*
X95853333Y-93432380D01*
X95043809Y-93527619D02*
X94996190Y-93480000D01*
X94900952Y-93432380D01*
X94662857Y-93432380D01*
X94567619Y-93480000D01*
X94520000Y-93527619D01*
X94472380Y-93622857D01*
X94472380Y-93718095D01*
X94520000Y-93860952D01*
X95091428Y-94432380D01*
X94472380Y-94432380D01*
X138761904Y-90940000D02*
X138857142Y-90892380D01*
X139000000Y-90892380D01*
X139142857Y-90940000D01*
X139238095Y-91035238D01*
X139285714Y-91130476D01*
X139333333Y-91320952D01*
X139333333Y-91463809D01*
X139285714Y-91654285D01*
X139238095Y-91749523D01*
X139142857Y-91844761D01*
X139000000Y-91892380D01*
X138904761Y-91892380D01*
X138761904Y-91844761D01*
X138714285Y-91797142D01*
X138714285Y-91463809D01*
X138904761Y-91463809D01*
X138285714Y-91892380D02*
X138285714Y-90892380D01*
X137714285Y-91892380D01*
X137714285Y-90892380D01*
X137238095Y-91892380D02*
X137238095Y-90892380D01*
X137000000Y-90892380D01*
X136857142Y-90940000D01*
X136761904Y-91035238D01*
X136714285Y-91130476D01*
X136666666Y-91320952D01*
X136666666Y-91463809D01*
X136714285Y-91654285D01*
X136761904Y-91749523D01*
X136857142Y-91844761D01*
X137000000Y-91892380D01*
X137238095Y-91892380D01*
X124753333Y-85812380D02*
X124753333Y-86621904D01*
X124705714Y-86717142D01*
X124658095Y-86764761D01*
X124562857Y-86812380D01*
X124372380Y-86812380D01*
X124277142Y-86764761D01*
X124229523Y-86717142D01*
X124181904Y-86621904D01*
X124181904Y-85812380D01*
X123753333Y-86526666D02*
X123277142Y-86526666D01*
X123848571Y-86812380D02*
X123515238Y-85812380D01*
X123181904Y-86812380D01*
X122277142Y-86812380D02*
X122610476Y-86336190D01*
X122848571Y-86812380D02*
X122848571Y-85812380D01*
X122467619Y-85812380D01*
X122372380Y-85860000D01*
X122324761Y-85907619D01*
X122277142Y-86002857D01*
X122277142Y-86145714D01*
X122324761Y-86240952D01*
X122372380Y-86288571D01*
X122467619Y-86336190D01*
X122848571Y-86336190D01*
X121991428Y-85812380D02*
X121420000Y-85812380D01*
X121705714Y-86812380D02*
X121705714Y-85812380D01*
X120467619Y-85812380D02*
X119896190Y-85812380D01*
X120181904Y-86812380D02*
X120181904Y-85812380D01*
X119658095Y-85812380D02*
X118991428Y-86812380D01*
X118991428Y-85812380D02*
X119658095Y-86812380D01*
X126230000Y-138411904D02*
X126277619Y-138507142D01*
X126277619Y-138650000D01*
X126230000Y-138792857D01*
X126134761Y-138888095D01*
X126039523Y-138935714D01*
X125849047Y-138983333D01*
X125706190Y-138983333D01*
X125515714Y-138935714D01*
X125420476Y-138888095D01*
X125325238Y-138792857D01*
X125277619Y-138650000D01*
X125277619Y-138554761D01*
X125325238Y-138411904D01*
X125372857Y-138364285D01*
X125706190Y-138364285D01*
X125706190Y-138554761D01*
X125277619Y-137935714D02*
X126277619Y-137935714D01*
X125277619Y-137364285D01*
X126277619Y-137364285D01*
X125277619Y-136888095D02*
X126277619Y-136888095D01*
X126277619Y-136650000D01*
X126230000Y-136507142D01*
X126134761Y-136411904D01*
X126039523Y-136364285D01*
X125849047Y-136316666D01*
X125706190Y-136316666D01*
X125515714Y-136364285D01*
X125420476Y-136411904D01*
X125325238Y-136507142D01*
X125277619Y-136650000D01*
X125277619Y-136888095D01*
X128674761Y-136310952D02*
X128722380Y-136453809D01*
X128722380Y-136691904D01*
X128674761Y-136787142D01*
X128627142Y-136834761D01*
X128531904Y-136882380D01*
X128436666Y-136882380D01*
X128341428Y-136834761D01*
X128293809Y-136787142D01*
X128246190Y-136691904D01*
X128198571Y-136501428D01*
X128150952Y-136406190D01*
X128103333Y-136358571D01*
X128008095Y-136310952D01*
X127912857Y-136310952D01*
X127817619Y-136358571D01*
X127770000Y-136406190D01*
X127722380Y-136501428D01*
X127722380Y-136739523D01*
X127770000Y-136882380D01*
X127722380Y-137215714D02*
X128722380Y-137453809D01*
X128008095Y-137644285D01*
X128722380Y-137834761D01*
X127722380Y-138072857D01*
X128722380Y-138453809D02*
X127722380Y-138453809D01*
X127722380Y-138691904D01*
X127770000Y-138834761D01*
X127865238Y-138930000D01*
X127960476Y-138977619D01*
X128150952Y-139025238D01*
X128293809Y-139025238D01*
X128484285Y-138977619D01*
X128579523Y-138930000D01*
X128674761Y-138834761D01*
X128722380Y-138691904D01*
X128722380Y-138453809D01*
X128722380Y-139453809D02*
X127722380Y-139453809D01*
X127722380Y-140120476D02*
X127722380Y-140310952D01*
X127770000Y-140406190D01*
X127865238Y-140501428D01*
X128055714Y-140549047D01*
X128389047Y-140549047D01*
X128579523Y-140501428D01*
X128674761Y-140406190D01*
X128722380Y-140310952D01*
X128722380Y-140120476D01*
X128674761Y-140025238D01*
X128579523Y-139930000D01*
X128389047Y-139882380D01*
X128055714Y-139882380D01*
X127865238Y-139930000D01*
X127770000Y-140025238D01*
X127722380Y-140120476D01*
X123594761Y-136168095D02*
X123642380Y-136310952D01*
X123642380Y-136549047D01*
X123594761Y-136644285D01*
X123547142Y-136691904D01*
X123451904Y-136739523D01*
X123356666Y-136739523D01*
X123261428Y-136691904D01*
X123213809Y-136644285D01*
X123166190Y-136549047D01*
X123118571Y-136358571D01*
X123070952Y-136263333D01*
X123023333Y-136215714D01*
X122928095Y-136168095D01*
X122832857Y-136168095D01*
X122737619Y-136215714D01*
X122690000Y-136263333D01*
X122642380Y-136358571D01*
X122642380Y-136596666D01*
X122690000Y-136739523D01*
X122642380Y-137072857D02*
X123642380Y-137310952D01*
X122928095Y-137501428D01*
X123642380Y-137691904D01*
X122642380Y-137930000D01*
X123547142Y-138882380D02*
X123594761Y-138834761D01*
X123642380Y-138691904D01*
X123642380Y-138596666D01*
X123594761Y-138453809D01*
X123499523Y-138358571D01*
X123404285Y-138310952D01*
X123213809Y-138263333D01*
X123070952Y-138263333D01*
X122880476Y-138310952D01*
X122785238Y-138358571D01*
X122690000Y-138453809D01*
X122642380Y-138596666D01*
X122642380Y-138691904D01*
X122690000Y-138834761D01*
X122737619Y-138882380D01*
X123642380Y-139787142D02*
X123642380Y-139310952D01*
X122642380Y-139310952D01*
X123642380Y-140120476D02*
X122642380Y-140120476D01*
X123642380Y-140691904D02*
X123070952Y-140263333D01*
X122642380Y-140691904D02*
X123213809Y-140120476D01*
X140215714Y-85812380D02*
X140215714Y-86621904D01*
X140168095Y-86717142D01*
X140120476Y-86764761D01*
X140025238Y-86812380D01*
X139834761Y-86812380D01*
X139739523Y-86764761D01*
X139691904Y-86717142D01*
X139644285Y-86621904D01*
X139644285Y-85812380D01*
X138834761Y-86288571D02*
X138691904Y-86336190D01*
X138644285Y-86383809D01*
X138596666Y-86479047D01*
X138596666Y-86621904D01*
X138644285Y-86717142D01*
X138691904Y-86764761D01*
X138787142Y-86812380D01*
X139168095Y-86812380D01*
X139168095Y-85812380D01*
X138834761Y-85812380D01*
X138739523Y-85860000D01*
X138691904Y-85907619D01*
X138644285Y-86002857D01*
X138644285Y-86098095D01*
X138691904Y-86193333D01*
X138739523Y-86240952D01*
X138834761Y-86288571D01*
X139168095Y-86288571D01*
X138168095Y-85812380D02*
X138168095Y-86621904D01*
X138120476Y-86717142D01*
X138072857Y-86764761D01*
X137977619Y-86812380D01*
X137787142Y-86812380D01*
X137691904Y-86764761D01*
X137644285Y-86717142D01*
X137596666Y-86621904D01*
X137596666Y-85812380D01*
X137168095Y-86764761D02*
X137025238Y-86812380D01*
X136787142Y-86812380D01*
X136691904Y-86764761D01*
X136644285Y-86717142D01*
X136596666Y-86621904D01*
X136596666Y-86526666D01*
X136644285Y-86431428D01*
X136691904Y-86383809D01*
X136787142Y-86336190D01*
X136977619Y-86288571D01*
X137072857Y-86240952D01*
X137120476Y-86193333D01*
X137168095Y-86098095D01*
X137168095Y-86002857D01*
X137120476Y-85907619D01*
X137072857Y-85860000D01*
X136977619Y-85812380D01*
X136739523Y-85812380D01*
X136596666Y-85860000D01*
X140382380Y-134120000D02*
X140477619Y-134072380D01*
X140620476Y-134072380D01*
X140763333Y-134120000D01*
X140858571Y-134215238D01*
X140906190Y-134310476D01*
X140953809Y-134500952D01*
X140953809Y-134643809D01*
X140906190Y-134834285D01*
X140858571Y-134929523D01*
X140763333Y-135024761D01*
X140620476Y-135072380D01*
X140525238Y-135072380D01*
X140382380Y-135024761D01*
X140334761Y-134977142D01*
X140334761Y-134643809D01*
X140525238Y-134643809D01*
X139906190Y-135072380D02*
X139906190Y-134072380D01*
X139525238Y-134072380D01*
X139430000Y-134120000D01*
X139382380Y-134167619D01*
X139334761Y-134262857D01*
X139334761Y-134405714D01*
X139382380Y-134500952D01*
X139430000Y-134548571D01*
X139525238Y-134596190D01*
X139906190Y-134596190D01*
X138906190Y-135072380D02*
X138906190Y-134072380D01*
X138239523Y-134072380D02*
X138049047Y-134072380D01*
X137953809Y-134120000D01*
X137858571Y-134215238D01*
X137810952Y-134405714D01*
X137810952Y-134739047D01*
X137858571Y-134929523D01*
X137953809Y-135024761D01*
X138049047Y-135072380D01*
X138239523Y-135072380D01*
X138334761Y-135024761D01*
X138430000Y-134929523D01*
X138477619Y-134739047D01*
X138477619Y-134405714D01*
X138430000Y-134215238D01*
X138334761Y-134120000D01*
X138239523Y-134072380D01*
X136858571Y-135072380D02*
X137430000Y-135072380D01*
X137144285Y-135072380D02*
X137144285Y-134072380D01*
X137239523Y-134215238D01*
X137334761Y-134310476D01*
X137430000Y-134358095D01*
X136001428Y-134072380D02*
X136191904Y-134072380D01*
X136287142Y-134120000D01*
X136334761Y-134167619D01*
X136430000Y-134310476D01*
X136477619Y-134500952D01*
X136477619Y-134881904D01*
X136430000Y-134977142D01*
X136382380Y-135024761D01*
X136287142Y-135072380D01*
X136096666Y-135072380D01*
X136001428Y-135024761D01*
X135953809Y-134977142D01*
X135906190Y-134881904D01*
X135906190Y-134643809D01*
X135953809Y-134548571D01*
X136001428Y-134500952D01*
X136096666Y-134453333D01*
X136287142Y-134453333D01*
X136382380Y-134500952D01*
X136430000Y-134548571D01*
X136477619Y-134643809D01*
X140382380Y-131580000D02*
X140477619Y-131532380D01*
X140620476Y-131532380D01*
X140763333Y-131580000D01*
X140858571Y-131675238D01*
X140906190Y-131770476D01*
X140953809Y-131960952D01*
X140953809Y-132103809D01*
X140906190Y-132294285D01*
X140858571Y-132389523D01*
X140763333Y-132484761D01*
X140620476Y-132532380D01*
X140525238Y-132532380D01*
X140382380Y-132484761D01*
X140334761Y-132437142D01*
X140334761Y-132103809D01*
X140525238Y-132103809D01*
X139906190Y-132532380D02*
X139906190Y-131532380D01*
X139525238Y-131532380D01*
X139430000Y-131580000D01*
X139382380Y-131627619D01*
X139334761Y-131722857D01*
X139334761Y-131865714D01*
X139382380Y-131960952D01*
X139430000Y-132008571D01*
X139525238Y-132056190D01*
X139906190Y-132056190D01*
X138906190Y-132532380D02*
X138906190Y-131532380D01*
X138239523Y-131532380D02*
X138049047Y-131532380D01*
X137953809Y-131580000D01*
X137858571Y-131675238D01*
X137810952Y-131865714D01*
X137810952Y-132199047D01*
X137858571Y-132389523D01*
X137953809Y-132484761D01*
X138049047Y-132532380D01*
X138239523Y-132532380D01*
X138334761Y-132484761D01*
X138430000Y-132389523D01*
X138477619Y-132199047D01*
X138477619Y-131865714D01*
X138430000Y-131675238D01*
X138334761Y-131580000D01*
X138239523Y-131532380D01*
X136858571Y-132532380D02*
X137430000Y-132532380D01*
X137144285Y-132532380D02*
X137144285Y-131532380D01*
X137239523Y-131675238D01*
X137334761Y-131770476D01*
X137430000Y-131818095D01*
X136525238Y-131532380D02*
X135858571Y-131532380D01*
X136287142Y-132532380D01*
X140382380Y-126500000D02*
X140477619Y-126452380D01*
X140620476Y-126452380D01*
X140763333Y-126500000D01*
X140858571Y-126595238D01*
X140906190Y-126690476D01*
X140953809Y-126880952D01*
X140953809Y-127023809D01*
X140906190Y-127214285D01*
X140858571Y-127309523D01*
X140763333Y-127404761D01*
X140620476Y-127452380D01*
X140525238Y-127452380D01*
X140382380Y-127404761D01*
X140334761Y-127357142D01*
X140334761Y-127023809D01*
X140525238Y-127023809D01*
X139906190Y-127452380D02*
X139906190Y-126452380D01*
X139525238Y-126452380D01*
X139430000Y-126500000D01*
X139382380Y-126547619D01*
X139334761Y-126642857D01*
X139334761Y-126785714D01*
X139382380Y-126880952D01*
X139430000Y-126928571D01*
X139525238Y-126976190D01*
X139906190Y-126976190D01*
X138906190Y-127452380D02*
X138906190Y-126452380D01*
X138239523Y-126452380D02*
X138049047Y-126452380D01*
X137953809Y-126500000D01*
X137858571Y-126595238D01*
X137810952Y-126785714D01*
X137810952Y-127119047D01*
X137858571Y-127309523D01*
X137953809Y-127404761D01*
X138049047Y-127452380D01*
X138239523Y-127452380D01*
X138334761Y-127404761D01*
X138430000Y-127309523D01*
X138477619Y-127119047D01*
X138477619Y-126785714D01*
X138430000Y-126595238D01*
X138334761Y-126500000D01*
X138239523Y-126452380D01*
X136858571Y-127452380D02*
X137430000Y-127452380D01*
X137144285Y-127452380D02*
X137144285Y-126452380D01*
X137239523Y-126595238D01*
X137334761Y-126690476D01*
X137430000Y-126738095D01*
X136287142Y-126880952D02*
X136382380Y-126833333D01*
X136430000Y-126785714D01*
X136477619Y-126690476D01*
X136477619Y-126642857D01*
X136430000Y-126547619D01*
X136382380Y-126500000D01*
X136287142Y-126452380D01*
X136096666Y-126452380D01*
X136001428Y-126500000D01*
X135953809Y-126547619D01*
X135906190Y-126642857D01*
X135906190Y-126690476D01*
X135953809Y-126785714D01*
X136001428Y-126833333D01*
X136096666Y-126880952D01*
X136287142Y-126880952D01*
X136382380Y-126928571D01*
X136430000Y-126976190D01*
X136477619Y-127071428D01*
X136477619Y-127261904D01*
X136430000Y-127357142D01*
X136382380Y-127404761D01*
X136287142Y-127452380D01*
X136096666Y-127452380D01*
X136001428Y-127404761D01*
X135953809Y-127357142D01*
X135906190Y-127261904D01*
X135906190Y-127071428D01*
X135953809Y-126976190D01*
X136001428Y-126928571D01*
X136096666Y-126880952D01*
X140382380Y-123960000D02*
X140477619Y-123912380D01*
X140620476Y-123912380D01*
X140763333Y-123960000D01*
X140858571Y-124055238D01*
X140906190Y-124150476D01*
X140953809Y-124340952D01*
X140953809Y-124483809D01*
X140906190Y-124674285D01*
X140858571Y-124769523D01*
X140763333Y-124864761D01*
X140620476Y-124912380D01*
X140525238Y-124912380D01*
X140382380Y-124864761D01*
X140334761Y-124817142D01*
X140334761Y-124483809D01*
X140525238Y-124483809D01*
X139906190Y-124912380D02*
X139906190Y-123912380D01*
X139525238Y-123912380D01*
X139430000Y-123960000D01*
X139382380Y-124007619D01*
X139334761Y-124102857D01*
X139334761Y-124245714D01*
X139382380Y-124340952D01*
X139430000Y-124388571D01*
X139525238Y-124436190D01*
X139906190Y-124436190D01*
X138906190Y-124912380D02*
X138906190Y-123912380D01*
X138239523Y-123912380D02*
X138049047Y-123912380D01*
X137953809Y-123960000D01*
X137858571Y-124055238D01*
X137810952Y-124245714D01*
X137810952Y-124579047D01*
X137858571Y-124769523D01*
X137953809Y-124864761D01*
X138049047Y-124912380D01*
X138239523Y-124912380D01*
X138334761Y-124864761D01*
X138430000Y-124769523D01*
X138477619Y-124579047D01*
X138477619Y-124245714D01*
X138430000Y-124055238D01*
X138334761Y-123960000D01*
X138239523Y-123912380D01*
X136858571Y-124912380D02*
X137430000Y-124912380D01*
X137144285Y-124912380D02*
X137144285Y-123912380D01*
X137239523Y-124055238D01*
X137334761Y-124150476D01*
X137430000Y-124198095D01*
X136382380Y-124912380D02*
X136191904Y-124912380D01*
X136096666Y-124864761D01*
X136049047Y-124817142D01*
X135953809Y-124674285D01*
X135906190Y-124483809D01*
X135906190Y-124102857D01*
X135953809Y-124007619D01*
X136001428Y-123960000D01*
X136096666Y-123912380D01*
X136287142Y-123912380D01*
X136382380Y-123960000D01*
X136430000Y-124007619D01*
X136477619Y-124102857D01*
X136477619Y-124340952D01*
X136430000Y-124436190D01*
X136382380Y-124483809D01*
X136287142Y-124531428D01*
X136096666Y-124531428D01*
X136001428Y-124483809D01*
X135953809Y-124436190D01*
X135906190Y-124340952D01*
X140382380Y-121420000D02*
X140477619Y-121372380D01*
X140620476Y-121372380D01*
X140763333Y-121420000D01*
X140858571Y-121515238D01*
X140906190Y-121610476D01*
X140953809Y-121800952D01*
X140953809Y-121943809D01*
X140906190Y-122134285D01*
X140858571Y-122229523D01*
X140763333Y-122324761D01*
X140620476Y-122372380D01*
X140525238Y-122372380D01*
X140382380Y-122324761D01*
X140334761Y-122277142D01*
X140334761Y-121943809D01*
X140525238Y-121943809D01*
X139906190Y-122372380D02*
X139906190Y-121372380D01*
X139525238Y-121372380D01*
X139430000Y-121420000D01*
X139382380Y-121467619D01*
X139334761Y-121562857D01*
X139334761Y-121705714D01*
X139382380Y-121800952D01*
X139430000Y-121848571D01*
X139525238Y-121896190D01*
X139906190Y-121896190D01*
X138906190Y-122372380D02*
X138906190Y-121372380D01*
X138239523Y-121372380D02*
X138049047Y-121372380D01*
X137953809Y-121420000D01*
X137858571Y-121515238D01*
X137810952Y-121705714D01*
X137810952Y-122039047D01*
X137858571Y-122229523D01*
X137953809Y-122324761D01*
X138049047Y-122372380D01*
X138239523Y-122372380D01*
X138334761Y-122324761D01*
X138430000Y-122229523D01*
X138477619Y-122039047D01*
X138477619Y-121705714D01*
X138430000Y-121515238D01*
X138334761Y-121420000D01*
X138239523Y-121372380D01*
X137430000Y-121467619D02*
X137382380Y-121420000D01*
X137287142Y-121372380D01*
X137049047Y-121372380D01*
X136953809Y-121420000D01*
X136906190Y-121467619D01*
X136858571Y-121562857D01*
X136858571Y-121658095D01*
X136906190Y-121800952D01*
X137477619Y-122372380D01*
X136858571Y-122372380D01*
X136239523Y-121372380D02*
X136144285Y-121372380D01*
X136049047Y-121420000D01*
X136001428Y-121467619D01*
X135953809Y-121562857D01*
X135906190Y-121753333D01*
X135906190Y-121991428D01*
X135953809Y-122181904D01*
X136001428Y-122277142D01*
X136049047Y-122324761D01*
X136144285Y-122372380D01*
X136239523Y-122372380D01*
X136334761Y-122324761D01*
X136382380Y-122277142D01*
X136430000Y-122181904D01*
X136477619Y-121991428D01*
X136477619Y-121753333D01*
X136430000Y-121562857D01*
X136382380Y-121467619D01*
X136334761Y-121420000D01*
X136239523Y-121372380D01*
X140382380Y-118880000D02*
X140477619Y-118832380D01*
X140620476Y-118832380D01*
X140763333Y-118880000D01*
X140858571Y-118975238D01*
X140906190Y-119070476D01*
X140953809Y-119260952D01*
X140953809Y-119403809D01*
X140906190Y-119594285D01*
X140858571Y-119689523D01*
X140763333Y-119784761D01*
X140620476Y-119832380D01*
X140525238Y-119832380D01*
X140382380Y-119784761D01*
X140334761Y-119737142D01*
X140334761Y-119403809D01*
X140525238Y-119403809D01*
X139906190Y-119832380D02*
X139906190Y-118832380D01*
X139525238Y-118832380D01*
X139430000Y-118880000D01*
X139382380Y-118927619D01*
X139334761Y-119022857D01*
X139334761Y-119165714D01*
X139382380Y-119260952D01*
X139430000Y-119308571D01*
X139525238Y-119356190D01*
X139906190Y-119356190D01*
X138906190Y-119832380D02*
X138906190Y-118832380D01*
X138239523Y-118832380D02*
X138049047Y-118832380D01*
X137953809Y-118880000D01*
X137858571Y-118975238D01*
X137810952Y-119165714D01*
X137810952Y-119499047D01*
X137858571Y-119689523D01*
X137953809Y-119784761D01*
X138049047Y-119832380D01*
X138239523Y-119832380D01*
X138334761Y-119784761D01*
X138430000Y-119689523D01*
X138477619Y-119499047D01*
X138477619Y-119165714D01*
X138430000Y-118975238D01*
X138334761Y-118880000D01*
X138239523Y-118832380D01*
X137430000Y-118927619D02*
X137382380Y-118880000D01*
X137287142Y-118832380D01*
X137049047Y-118832380D01*
X136953809Y-118880000D01*
X136906190Y-118927619D01*
X136858571Y-119022857D01*
X136858571Y-119118095D01*
X136906190Y-119260952D01*
X137477619Y-119832380D01*
X136858571Y-119832380D01*
X135906190Y-119832380D02*
X136477619Y-119832380D01*
X136191904Y-119832380D02*
X136191904Y-118832380D01*
X136287142Y-118975238D01*
X136382380Y-119070476D01*
X136477619Y-119118095D01*
X140382380Y-113800000D02*
X140477619Y-113752380D01*
X140620476Y-113752380D01*
X140763333Y-113800000D01*
X140858571Y-113895238D01*
X140906190Y-113990476D01*
X140953809Y-114180952D01*
X140953809Y-114323809D01*
X140906190Y-114514285D01*
X140858571Y-114609523D01*
X140763333Y-114704761D01*
X140620476Y-114752380D01*
X140525238Y-114752380D01*
X140382380Y-114704761D01*
X140334761Y-114657142D01*
X140334761Y-114323809D01*
X140525238Y-114323809D01*
X139906190Y-114752380D02*
X139906190Y-113752380D01*
X139525238Y-113752380D01*
X139430000Y-113800000D01*
X139382380Y-113847619D01*
X139334761Y-113942857D01*
X139334761Y-114085714D01*
X139382380Y-114180952D01*
X139430000Y-114228571D01*
X139525238Y-114276190D01*
X139906190Y-114276190D01*
X138906190Y-114752380D02*
X138906190Y-113752380D01*
X138239523Y-113752380D02*
X138049047Y-113752380D01*
X137953809Y-113800000D01*
X137858571Y-113895238D01*
X137810952Y-114085714D01*
X137810952Y-114419047D01*
X137858571Y-114609523D01*
X137953809Y-114704761D01*
X138049047Y-114752380D01*
X138239523Y-114752380D01*
X138334761Y-114704761D01*
X138430000Y-114609523D01*
X138477619Y-114419047D01*
X138477619Y-114085714D01*
X138430000Y-113895238D01*
X138334761Y-113800000D01*
X138239523Y-113752380D01*
X137430000Y-113847619D02*
X137382380Y-113800000D01*
X137287142Y-113752380D01*
X137049047Y-113752380D01*
X136953809Y-113800000D01*
X136906190Y-113847619D01*
X136858571Y-113942857D01*
X136858571Y-114038095D01*
X136906190Y-114180952D01*
X137477619Y-114752380D01*
X136858571Y-114752380D01*
X136477619Y-113847619D02*
X136430000Y-113800000D01*
X136334761Y-113752380D01*
X136096666Y-113752380D01*
X136001428Y-113800000D01*
X135953809Y-113847619D01*
X135906190Y-113942857D01*
X135906190Y-114038095D01*
X135953809Y-114180952D01*
X136525238Y-114752380D01*
X135906190Y-114752380D01*
X128722380Y-103585238D02*
X127722380Y-103585238D01*
X128103333Y-103585238D02*
X128055714Y-103680476D01*
X128055714Y-103870952D01*
X128103333Y-103966190D01*
X128150952Y-104013809D01*
X128246190Y-104061428D01*
X128531904Y-104061428D01*
X128627142Y-104013809D01*
X128674761Y-103966190D01*
X128722380Y-103870952D01*
X128722380Y-103680476D01*
X128674761Y-103585238D01*
X128055714Y-104394761D02*
X128722380Y-104632857D01*
X128055714Y-104870952D02*
X128722380Y-104632857D01*
X128960476Y-104537619D01*
X129008095Y-104490000D01*
X129055714Y-104394761D01*
X128627142Y-105251904D02*
X128674761Y-105299523D01*
X128722380Y-105251904D01*
X128674761Y-105204285D01*
X128627142Y-105251904D01*
X128722380Y-105251904D01*
X128103333Y-105251904D02*
X128150952Y-105299523D01*
X128198571Y-105251904D01*
X128150952Y-105204285D01*
X128103333Y-105251904D01*
X128198571Y-105251904D01*
X128436666Y-106442380D02*
X128436666Y-106918571D01*
X128722380Y-106347142D02*
X127722380Y-106680476D01*
X128722380Y-107013809D01*
X128627142Y-107347142D02*
X128674761Y-107394761D01*
X128722380Y-107347142D01*
X128674761Y-107299523D01*
X128627142Y-107347142D01*
X128722380Y-107347142D01*
X127722380Y-108490000D02*
X127722380Y-109156666D01*
X128722380Y-108490000D01*
X128722380Y-109156666D01*
X128722380Y-109537619D02*
X127722380Y-109537619D01*
X128722380Y-109966190D02*
X128198571Y-109966190D01*
X128103333Y-109918571D01*
X128055714Y-109823333D01*
X128055714Y-109680476D01*
X128103333Y-109585238D01*
X128150952Y-109537619D01*
X128722380Y-110870952D02*
X128198571Y-110870952D01*
X128103333Y-110823333D01*
X128055714Y-110728095D01*
X128055714Y-110537619D01*
X128103333Y-110442380D01*
X128674761Y-110870952D02*
X128722380Y-110775714D01*
X128722380Y-110537619D01*
X128674761Y-110442380D01*
X128579523Y-110394761D01*
X128484285Y-110394761D01*
X128389047Y-110442380D01*
X128341428Y-110537619D01*
X128341428Y-110775714D01*
X128293809Y-110870952D01*
X128055714Y-111347142D02*
X128722380Y-111347142D01*
X128150952Y-111347142D02*
X128103333Y-111394761D01*
X128055714Y-111490000D01*
X128055714Y-111632857D01*
X128103333Y-111728095D01*
X128198571Y-111775714D01*
X128722380Y-111775714D01*
X128055714Y-112680476D02*
X128865238Y-112680476D01*
X128960476Y-112632857D01*
X129008095Y-112585238D01*
X129055714Y-112490000D01*
X129055714Y-112347142D01*
X129008095Y-112251904D01*
X128674761Y-112680476D02*
X128722380Y-112585238D01*
X128722380Y-112394761D01*
X128674761Y-112299523D01*
X128627142Y-112251904D01*
X128531904Y-112204285D01*
X128246190Y-112204285D01*
X128150952Y-112251904D01*
X128103333Y-112299523D01*
X128055714Y-112394761D01*
X128055714Y-112585238D01*
X128103333Y-112680476D01*
X127722380Y-114204285D02*
X128436666Y-114204285D01*
X128579523Y-114156666D01*
X128674761Y-114061428D01*
X128722380Y-113918571D01*
X128722380Y-113823333D01*
X128722380Y-114680476D02*
X128055714Y-114680476D01*
X127722380Y-114680476D02*
X127770000Y-114632857D01*
X127817619Y-114680476D01*
X127770000Y-114728095D01*
X127722380Y-114680476D01*
X127817619Y-114680476D01*
X128722380Y-115585238D02*
X128198571Y-115585238D01*
X128103333Y-115537619D01*
X128055714Y-115442380D01*
X128055714Y-115251904D01*
X128103333Y-115156666D01*
X128674761Y-115585238D02*
X128722380Y-115490000D01*
X128722380Y-115251904D01*
X128674761Y-115156666D01*
X128579523Y-115109047D01*
X128484285Y-115109047D01*
X128389047Y-115156666D01*
X128341428Y-115251904D01*
X128341428Y-115490000D01*
X128293809Y-115585238D01*
X128055714Y-116061428D02*
X128722380Y-116061428D01*
X128150952Y-116061428D02*
X128103333Y-116109047D01*
X128055714Y-116204285D01*
X128055714Y-116347142D01*
X128103333Y-116442380D01*
X128198571Y-116490000D01*
X128722380Y-116490000D01*
X128055714Y-117394761D02*
X128865238Y-117394761D01*
X128960476Y-117347142D01*
X129008095Y-117299523D01*
X129055714Y-117204285D01*
X129055714Y-117061428D01*
X129008095Y-116966190D01*
X128674761Y-117394761D02*
X128722380Y-117299523D01*
X128722380Y-117109047D01*
X128674761Y-117013809D01*
X128627142Y-116966190D01*
X128531904Y-116918571D01*
X128246190Y-116918571D01*
X128150952Y-116966190D01*
X128103333Y-117013809D01*
X128055714Y-117109047D01*
X128055714Y-117299523D01*
X128103333Y-117394761D01*
X165687142Y-134072380D02*
X165449047Y-135072380D01*
X165258571Y-134358095D01*
X165068095Y-135072380D01*
X164830000Y-134072380D01*
X164496666Y-134786666D02*
X164020476Y-134786666D01*
X164591904Y-135072380D02*
X164258571Y-134072380D01*
X163925238Y-135072380D01*
X163734761Y-134072380D02*
X163163333Y-134072380D01*
X163449047Y-135072380D02*
X163449047Y-134072380D01*
X162830000Y-134691428D02*
X162068095Y-134691428D01*
X162449047Y-135072380D02*
X162449047Y-134310476D01*
X165687142Y-128992380D02*
X165449047Y-129992380D01*
X165258571Y-129278095D01*
X165068095Y-129992380D01*
X164830000Y-128992380D01*
X164496666Y-129706666D02*
X164020476Y-129706666D01*
X164591904Y-129992380D02*
X164258571Y-128992380D01*
X163925238Y-129992380D01*
X163734761Y-128992380D02*
X163163333Y-128992380D01*
X163449047Y-129992380D02*
X163449047Y-128992380D01*
X162830000Y-129611428D02*
X162068095Y-129611428D01*
X165710952Y-118832380D02*
X165377619Y-119832380D01*
X165044285Y-118832380D01*
X164758571Y-119546666D02*
X164282380Y-119546666D01*
X164853809Y-119832380D02*
X164520476Y-118832380D01*
X164187142Y-119832380D01*
X163282380Y-119737142D02*
X163330000Y-119784761D01*
X163472857Y-119832380D01*
X163568095Y-119832380D01*
X163710952Y-119784761D01*
X163806190Y-119689523D01*
X163853809Y-119594285D01*
X163901428Y-119403809D01*
X163901428Y-119260952D01*
X163853809Y-119070476D01*
X163806190Y-118975238D01*
X163710952Y-118880000D01*
X163568095Y-118832380D01*
X163472857Y-118832380D01*
X163330000Y-118880000D01*
X163282380Y-118927619D01*
X162853809Y-119451428D02*
X162091904Y-119451428D01*
X165710952Y-123912380D02*
X165377619Y-124912380D01*
X165044285Y-123912380D01*
X164758571Y-124626666D02*
X164282380Y-124626666D01*
X164853809Y-124912380D02*
X164520476Y-123912380D01*
X164187142Y-124912380D01*
X163282380Y-124817142D02*
X163330000Y-124864761D01*
X163472857Y-124912380D01*
X163568095Y-124912380D01*
X163710952Y-124864761D01*
X163806190Y-124769523D01*
X163853809Y-124674285D01*
X163901428Y-124483809D01*
X163901428Y-124340952D01*
X163853809Y-124150476D01*
X163806190Y-124055238D01*
X163710952Y-123960000D01*
X163568095Y-123912380D01*
X163472857Y-123912380D01*
X163330000Y-123960000D01*
X163282380Y-124007619D01*
X162853809Y-124531428D02*
X162091904Y-124531428D01*
X162472857Y-124912380D02*
X162472857Y-124150476D01*
X144271904Y-140470000D02*
X144367142Y-140422380D01*
X144510000Y-140422380D01*
X144652857Y-140470000D01*
X144748095Y-140565238D01*
X144795714Y-140660476D01*
X144843333Y-140850952D01*
X144843333Y-140993809D01*
X144795714Y-141184285D01*
X144748095Y-141279523D01*
X144652857Y-141374761D01*
X144510000Y-141422380D01*
X144414761Y-141422380D01*
X144271904Y-141374761D01*
X144224285Y-141327142D01*
X144224285Y-140993809D01*
X144414761Y-140993809D01*
X143795714Y-141422380D02*
X143795714Y-140422380D01*
X143224285Y-141422380D01*
X143224285Y-140422380D01*
X142748095Y-141422380D02*
X142748095Y-140422380D01*
X142510000Y-140422380D01*
X142367142Y-140470000D01*
X142271904Y-140565238D01*
X142224285Y-140660476D01*
X142176666Y-140850952D01*
X142176666Y-140993809D01*
X142224285Y-141184285D01*
X142271904Y-141279523D01*
X142367142Y-141374761D01*
X142510000Y-141422380D01*
X142748095Y-141422380D01*
X149209047Y-141422380D02*
X149780476Y-141422380D01*
X149494761Y-141422380D02*
X149494761Y-140422380D01*
X149590000Y-140565238D01*
X149685238Y-140660476D01*
X149780476Y-140708095D01*
X148828095Y-140517619D02*
X148780476Y-140470000D01*
X148685238Y-140422380D01*
X148447142Y-140422380D01*
X148351904Y-140470000D01*
X148304285Y-140517619D01*
X148256666Y-140612857D01*
X148256666Y-140708095D01*
X148304285Y-140850952D01*
X148875714Y-141422380D01*
X148256666Y-141422380D01*
X147970952Y-140422380D02*
X147637619Y-141422380D01*
X147304285Y-140422380D01*
D11*
X165100000Y-109220000D02*
X165100000Y-113030000D01*
X165100000Y-92710000D02*
X165100000Y-96520000D01*
D10*
X164949047Y-87987142D02*
X164996666Y-88034761D01*
X165139523Y-88082380D01*
X165234761Y-88082380D01*
X165377619Y-88034761D01*
X165472857Y-87939523D01*
X165520476Y-87844285D01*
X165568095Y-87653809D01*
X165568095Y-87510952D01*
X165520476Y-87320476D01*
X165472857Y-87225238D01*
X165377619Y-87130000D01*
X165234761Y-87082380D01*
X165139523Y-87082380D01*
X164996666Y-87130000D01*
X164949047Y-87177619D01*
X164663333Y-87082380D02*
X164330000Y-88082380D01*
X163996666Y-87082380D01*
X163806190Y-87082380D02*
X163234761Y-87082380D01*
X163520476Y-88082380D02*
X163520476Y-87082380D01*
X162901428Y-87701428D02*
X162139523Y-87701428D01*
X162520476Y-88082380D02*
X162520476Y-87320476D01*
D11*
X165100000Y-91440000D02*
X165100000Y-92710000D01*
X162560000Y-91440000D02*
X165100000Y-91440000D01*
D10*
X165100000Y-114300000D02*
X165100000Y-113030000D01*
X162560000Y-114300000D02*
X165100000Y-114300000D01*
X164742857Y-108227142D02*
X164695238Y-108274761D01*
X164647619Y-108417619D01*
X164647619Y-108512857D01*
X164695238Y-108655714D01*
X164790476Y-108750952D01*
X164885714Y-108798571D01*
X165076190Y-108846190D01*
X165219047Y-108846190D01*
X165409523Y-108798571D01*
X165504761Y-108750952D01*
X165600000Y-108655714D01*
X165647619Y-108512857D01*
X165647619Y-108417619D01*
X165600000Y-108274761D01*
X165552380Y-108227142D01*
X165647619Y-107798571D02*
X164838095Y-107798571D01*
X164742857Y-107750952D01*
X164695238Y-107703333D01*
X164647619Y-107608095D01*
X164647619Y-107417619D01*
X164695238Y-107322380D01*
X164742857Y-107274761D01*
X164838095Y-107227142D01*
X165647619Y-107227142D01*
X165647619Y-106893809D02*
X164647619Y-106560476D01*
X165647619Y-106227142D01*
X165171428Y-105893809D02*
X165171428Y-105560476D01*
X164647619Y-105417619D02*
X164647619Y-105893809D01*
X165647619Y-105893809D01*
X165647619Y-105417619D01*
X165647619Y-105131904D02*
X165647619Y-104560476D01*
X164647619Y-104846190D02*
X165647619Y-104846190D01*
X165647619Y-104370000D02*
X165647619Y-103798571D01*
X164647619Y-104084285D02*
X165647619Y-104084285D01*
X165171428Y-103465238D02*
X165171428Y-103131904D01*
X164647619Y-102989047D02*
X164647619Y-103465238D01*
X165647619Y-103465238D01*
X165647619Y-102989047D01*
X164695238Y-102608095D02*
X164647619Y-102465238D01*
X164647619Y-102227142D01*
X164695238Y-102131904D01*
X164742857Y-102084285D01*
X164838095Y-102036666D01*
X164933333Y-102036666D01*
X165028571Y-102084285D01*
X165076190Y-102131904D01*
X165123809Y-102227142D01*
X165171428Y-102417619D01*
X165219047Y-102512857D01*
X165266666Y-102560476D01*
X165361904Y-102608095D01*
X165457142Y-102608095D01*
X165552380Y-102560476D01*
X165600000Y-102512857D01*
X165647619Y-102417619D01*
X165647619Y-102179523D01*
X165600000Y-102036666D01*
X164647619Y-100846190D02*
X165647619Y-100846190D01*
X165647619Y-100608095D01*
X165600000Y-100465238D01*
X165504761Y-100370000D01*
X165409523Y-100322380D01*
X165219047Y-100274761D01*
X165076190Y-100274761D01*
X164885714Y-100322380D01*
X164790476Y-100370000D01*
X164695238Y-100465238D01*
X164647619Y-100608095D01*
X164647619Y-100846190D01*
X164647619Y-99274761D02*
X165123809Y-99608095D01*
X164647619Y-99846190D02*
X165647619Y-99846190D01*
X165647619Y-99465238D01*
X165600000Y-99370000D01*
X165552380Y-99322380D01*
X165457142Y-99274761D01*
X165314285Y-99274761D01*
X165219047Y-99322380D01*
X165171428Y-99370000D01*
X165123809Y-99465238D01*
X165123809Y-99846190D01*
X164933333Y-98893809D02*
X164933333Y-98417619D01*
X164647619Y-98989047D02*
X165647619Y-98655714D01*
X164647619Y-98322380D01*
X164647619Y-97989047D02*
X165647619Y-97989047D01*
X164647619Y-97512857D02*
X165647619Y-97512857D01*
X164647619Y-96941428D01*
X165647619Y-96941428D01*
X162774285Y-112958571D02*
X162440952Y-112958571D01*
X162298095Y-113482380D02*
X162774285Y-113482380D01*
X162774285Y-112482380D01*
X162298095Y-112482380D01*
X162821904Y-108402380D02*
X162821904Y-107402380D01*
X162583809Y-107402380D01*
X162440952Y-107450000D01*
X162345714Y-107545238D01*
X162298095Y-107640476D01*
X162250476Y-107830952D01*
X162250476Y-107973809D01*
X162298095Y-108164285D01*
X162345714Y-108259523D01*
X162440952Y-108354761D01*
X162583809Y-108402380D01*
X162821904Y-108402380D01*
X162250476Y-103227142D02*
X162298095Y-103274761D01*
X162440952Y-103322380D01*
X162536190Y-103322380D01*
X162679047Y-103274761D01*
X162774285Y-103179523D01*
X162821904Y-103084285D01*
X162869523Y-102893809D01*
X162869523Y-102750952D01*
X162821904Y-102560476D01*
X162774285Y-102465238D01*
X162679047Y-102370000D01*
X162536190Y-102322380D01*
X162440952Y-102322380D01*
X162298095Y-102370000D01*
X162250476Y-102417619D01*
X162488571Y-97718571D02*
X162345714Y-97766190D01*
X162298095Y-97813809D01*
X162250476Y-97909047D01*
X162250476Y-98051904D01*
X162298095Y-98147142D01*
X162345714Y-98194761D01*
X162440952Y-98242380D01*
X162821904Y-98242380D01*
X162821904Y-97242380D01*
X162488571Y-97242380D01*
X162393333Y-97290000D01*
X162345714Y-97337619D01*
X162298095Y-97432857D01*
X162298095Y-97528095D01*
X162345714Y-97623333D01*
X162393333Y-97670952D01*
X162488571Y-97718571D01*
X162821904Y-97718571D01*
X162798095Y-92876666D02*
X162321904Y-92876666D01*
X162893333Y-93162380D02*
X162560000Y-92162380D01*
X162226666Y-93162380D01*
D12*
%TO.C,G\u002A\u002A\u002A*%
G36*
X121331807Y-113800271D02*
G01*
X121351067Y-113802793D01*
X121380566Y-113805647D01*
X121418173Y-113808633D01*
X121461761Y-113811553D01*
X121475500Y-113812375D01*
X121694788Y-113830213D01*
X121911127Y-113857832D01*
X122123467Y-113894904D01*
X122330755Y-113941101D01*
X122531939Y-113996095D01*
X122725968Y-114059558D01*
X122911789Y-114131162D01*
X123088351Y-114210579D01*
X123254602Y-114297481D01*
X123409490Y-114391541D01*
X123474683Y-114435750D01*
X123606497Y-114535787D01*
X123729369Y-114644235D01*
X123842382Y-114760006D01*
X123944620Y-114882012D01*
X124035167Y-115009164D01*
X124113106Y-115140375D01*
X124173870Y-115266016D01*
X124195716Y-115317123D01*
X124212414Y-115358050D01*
X124224692Y-115391888D01*
X124233279Y-115421728D01*
X124238901Y-115450662D01*
X124242289Y-115481781D01*
X124244168Y-115518177D01*
X124245268Y-115562940D01*
X124245395Y-115569707D01*
X124247347Y-115631944D01*
X124251118Y-115683163D01*
X124257400Y-115726817D01*
X124266885Y-115766357D01*
X124280266Y-115805238D01*
X124298236Y-115846911D01*
X124303063Y-115857195D01*
X124337023Y-115921642D01*
X124374085Y-115976827D01*
X124417922Y-116027994D01*
X124434960Y-116045343D01*
X124458093Y-116069069D01*
X124475680Y-116089940D01*
X124490353Y-116111957D01*
X124504745Y-116139119D01*
X124521489Y-116175427D01*
X124523344Y-116179600D01*
X124541665Y-116220577D01*
X124561876Y-116265246D01*
X124581137Y-116307355D01*
X124592780Y-116332487D01*
X124625206Y-116401916D01*
X124577487Y-116410090D01*
X124510963Y-116428639D01*
X124449988Y-116460148D01*
X124395237Y-116503904D01*
X124347386Y-116559195D01*
X124307110Y-116625311D01*
X124275084Y-116701539D01*
X124262699Y-116742029D01*
X124257078Y-116764459D01*
X124252930Y-116786321D01*
X124250030Y-116810421D01*
X124248154Y-116839567D01*
X124247080Y-116876566D01*
X124246583Y-116924225D01*
X124246500Y-116945229D01*
X124246581Y-116998745D01*
X124247281Y-117040331D01*
X124248772Y-117072561D01*
X124251225Y-117098014D01*
X124254813Y-117119263D01*
X124259327Y-117137543D01*
X124286572Y-117215763D01*
X124321536Y-117285301D01*
X124363311Y-117345200D01*
X124410989Y-117394500D01*
X124463661Y-117432244D01*
X124520420Y-117457475D01*
X124573269Y-117468591D01*
X124602723Y-117470268D01*
X124625340Y-117467269D01*
X124648318Y-117458607D01*
X124649230Y-117458183D01*
X124677262Y-117443849D01*
X124696325Y-117430017D01*
X124711237Y-117412652D01*
X124720311Y-117398672D01*
X124732598Y-117366705D01*
X124735689Y-117330165D01*
X124729525Y-117295100D01*
X124721484Y-117277486D01*
X124706429Y-117259440D01*
X124681128Y-117238543D01*
X124644494Y-117213999D01*
X124595440Y-117185009D01*
X124594363Y-117184400D01*
X124545994Y-117151465D01*
X124506933Y-117113289D01*
X124479423Y-117072199D01*
X124473401Y-117058751D01*
X124463223Y-117021195D01*
X124457440Y-116974804D01*
X124456059Y-116924502D01*
X124459084Y-116875210D01*
X124466520Y-116831850D01*
X124473143Y-116810625D01*
X124498646Y-116759113D01*
X124529433Y-116720347D01*
X124565057Y-116694680D01*
X124605072Y-116682464D01*
X124635187Y-116682081D01*
X124666932Y-116688617D01*
X124693886Y-116703010D01*
X124719798Y-116727635D01*
X124733348Y-116744283D01*
X124744995Y-116760921D01*
X124755707Y-116779922D01*
X124766130Y-116803106D01*
X124776909Y-116832291D01*
X124788691Y-116869298D01*
X124802121Y-116915944D01*
X124817844Y-116974051D01*
X124826336Y-117006323D01*
X124844846Y-117075777D01*
X124861086Y-117133403D01*
X124875859Y-117181558D01*
X124889968Y-117222597D01*
X124904216Y-117258879D01*
X124919404Y-117292759D01*
X124933682Y-117321483D01*
X124974942Y-117387913D01*
X125023768Y-117442243D01*
X125079881Y-117484225D01*
X125143003Y-117513610D01*
X125151256Y-117516348D01*
X125188412Y-117524673D01*
X125234644Y-117529900D01*
X125284820Y-117531886D01*
X125333806Y-117530487D01*
X125376469Y-117525560D01*
X125388914Y-117522986D01*
X125443999Y-117504691D01*
X125500486Y-117477044D01*
X125552429Y-117443206D01*
X125577054Y-117422966D01*
X125621291Y-117382934D01*
X125702859Y-117399939D01*
X125730478Y-117405414D01*
X125755738Y-117409579D01*
X125781289Y-117412605D01*
X125809781Y-117414665D01*
X125843864Y-117415930D01*
X125886186Y-117416572D01*
X125939396Y-117416762D01*
X125962228Y-117416753D01*
X126022611Y-117416499D01*
X126071385Y-117415761D01*
X126111454Y-117414365D01*
X126145718Y-117412135D01*
X126177081Y-117408893D01*
X126208445Y-117404465D01*
X126233464Y-117400303D01*
X126397524Y-117365854D01*
X126567210Y-117318597D01*
X126604486Y-117306749D01*
X126639983Y-117294870D01*
X126680267Y-117280799D01*
X126723263Y-117265329D01*
X126766892Y-117249251D01*
X126809078Y-117233354D01*
X126847744Y-117218429D01*
X126880813Y-117205268D01*
X126906208Y-117194660D01*
X126921852Y-117187398D01*
X126925888Y-117184384D01*
X126918579Y-117185899D01*
X126900039Y-117191731D01*
X126872619Y-117201087D01*
X126838671Y-117213173D01*
X126815320Y-117221709D01*
X126688763Y-117265249D01*
X126558018Y-117304299D01*
X126427388Y-117337728D01*
X126301176Y-117364407D01*
X126219857Y-117378148D01*
X126185699Y-117381850D01*
X126139275Y-117384735D01*
X126082813Y-117386711D01*
X126018543Y-117387685D01*
X125987628Y-117387772D01*
X125920221Y-117387264D01*
X125864363Y-117385665D01*
X125817113Y-117382672D01*
X125775527Y-117377982D01*
X125736661Y-117371291D01*
X125697574Y-117362297D01*
X125671046Y-117355183D01*
X125644749Y-117347825D01*
X125676650Y-117284413D01*
X125698615Y-117237250D01*
X125715179Y-117192495D01*
X125727118Y-117146613D01*
X125735212Y-117096068D01*
X125740236Y-117037325D01*
X125742477Y-116985143D01*
X125743601Y-116929429D01*
X125743096Y-116884393D01*
X125740800Y-116846276D01*
X125736549Y-116811315D01*
X125734348Y-116797851D01*
X125712445Y-116708119D01*
X125679658Y-116627673D01*
X125636170Y-116556767D01*
X125582165Y-116495658D01*
X125517825Y-116444601D01*
X125456896Y-116410133D01*
X125401947Y-116388418D01*
X125350361Y-116377152D01*
X125304053Y-116376542D01*
X125264938Y-116386796D01*
X125260508Y-116388924D01*
X125224505Y-116414763D01*
X125199956Y-116448853D01*
X125187801Y-116489439D01*
X125187599Y-116525129D01*
X125192245Y-116549051D01*
X125201459Y-116569620D01*
X125216994Y-116588469D01*
X125240604Y-116607231D01*
X125274044Y-116627540D01*
X125319067Y-116651028D01*
X125327030Y-116654977D01*
X125369140Y-116676321D01*
X125400636Y-116693841D01*
X125424290Y-116709329D01*
X125442870Y-116724581D01*
X125457313Y-116739328D01*
X125489090Y-116783274D01*
X125510538Y-116833795D01*
X125522481Y-116893098D01*
X125524786Y-116919829D01*
X125523691Y-116994686D01*
X125511295Y-117061633D01*
X125487790Y-117120100D01*
X125453364Y-117169518D01*
X125435437Y-117187673D01*
X125414202Y-117205758D01*
X125395137Y-117219713D01*
X125382317Y-117226558D01*
X125382188Y-117226593D01*
X125367939Y-117224326D01*
X125345121Y-117213660D01*
X125315801Y-117196072D01*
X125282043Y-117173040D01*
X125245913Y-117146042D01*
X125209479Y-117116556D01*
X125174805Y-117086060D01*
X125144429Y-117056520D01*
X125132963Y-117044110D01*
X125123988Y-117032188D01*
X125116462Y-117018165D01*
X125109344Y-116999451D01*
X125101590Y-116973456D01*
X125092159Y-116937590D01*
X125084778Y-116908330D01*
X125062649Y-116824213D01*
X125041356Y-116752735D01*
X125020102Y-116692115D01*
X124998088Y-116640571D01*
X124974519Y-116596320D01*
X124948594Y-116557582D01*
X124919518Y-116522573D01*
X124905566Y-116507937D01*
X124858680Y-116466117D01*
X124812268Y-116436702D01*
X124763377Y-116417995D01*
X124739921Y-116412644D01*
X124718396Y-116407628D01*
X124703026Y-116402232D01*
X124699381Y-116399948D01*
X124694513Y-116391546D01*
X124685268Y-116372749D01*
X124672752Y-116346046D01*
X124658072Y-116313930D01*
X124642334Y-116278890D01*
X124626644Y-116243418D01*
X124612109Y-116210005D01*
X124599835Y-116181142D01*
X124590928Y-116159320D01*
X124586495Y-116147029D01*
X124586264Y-116145260D01*
X124593919Y-116145845D01*
X124608237Y-116150369D01*
X124631581Y-116155539D01*
X124662346Y-116157611D01*
X124694987Y-116156716D01*
X124723960Y-116152985D01*
X124742524Y-116147204D01*
X124774390Y-116123114D01*
X124797496Y-116090180D01*
X124810113Y-116052069D01*
X124810511Y-116012447D01*
X124809228Y-116005774D01*
X124803371Y-115984255D01*
X124795266Y-115966210D01*
X124783041Y-115949858D01*
X124764820Y-115933415D01*
X124738729Y-115915097D01*
X124702894Y-115893119D01*
X124671918Y-115875127D01*
X124607948Y-115831684D01*
X124556633Y-115782205D01*
X124518310Y-115727093D01*
X124493317Y-115666750D01*
X124491636Y-115660715D01*
X124486066Y-115629073D01*
X124482971Y-115588676D01*
X124482416Y-115545078D01*
X124484464Y-115503836D01*
X124489176Y-115470506D01*
X124489468Y-115469212D01*
X124511260Y-115406294D01*
X124545898Y-115349058D01*
X124592593Y-115298218D01*
X124650553Y-115254489D01*
X124718986Y-115218583D01*
X124797103Y-115191216D01*
X124797457Y-115191118D01*
X124818894Y-115185610D01*
X124839426Y-115181517D01*
X124861724Y-115178637D01*
X124888460Y-115176770D01*
X124922305Y-115175711D01*
X124965932Y-115175259D01*
X125007914Y-115175198D01*
X125059382Y-115175319D01*
X125099022Y-115175774D01*
X125129517Y-115176810D01*
X125153555Y-115178678D01*
X125173818Y-115181623D01*
X125192994Y-115185895D01*
X125213766Y-115191741D01*
X125225469Y-115195294D01*
X125284012Y-115215753D01*
X125331910Y-115238480D01*
X125373032Y-115265506D01*
X125396630Y-115285139D01*
X125442614Y-115335649D01*
X125476211Y-115393464D01*
X125497518Y-115458820D01*
X125506632Y-115531949D01*
X125507006Y-115548229D01*
X125501748Y-115624097D01*
X125484774Y-115691557D01*
X125455893Y-115750883D01*
X125414913Y-115802347D01*
X125361643Y-115846224D01*
X125295890Y-115882787D01*
X125262800Y-115896688D01*
X125215699Y-115916522D01*
X125181194Y-115935655D01*
X125157582Y-115955872D01*
X125143161Y-115978961D01*
X125136227Y-116006709D01*
X125134914Y-116030852D01*
X125140631Y-116076592D01*
X125157305Y-116113227D01*
X125184226Y-116140280D01*
X125220679Y-116157276D01*
X125265954Y-116163739D01*
X125319336Y-116159193D01*
X125325305Y-116158072D01*
X125398423Y-116136483D01*
X125468156Y-116101876D01*
X125533140Y-116055605D01*
X125592012Y-115999025D01*
X125643408Y-115933490D01*
X125685964Y-115860356D01*
X125718317Y-115780977D01*
X125724217Y-115761820D01*
X125729962Y-115740738D01*
X125734209Y-115721036D01*
X125737169Y-115700014D01*
X125739054Y-115674971D01*
X125740076Y-115643208D01*
X125740446Y-115602025D01*
X125740400Y-115555486D01*
X125739587Y-115490632D01*
X125737217Y-115437222D01*
X125732694Y-115392217D01*
X125725424Y-115352577D01*
X125714812Y-115315265D01*
X125700260Y-115277240D01*
X125681176Y-115235465D01*
X125675370Y-115223559D01*
X125632570Y-115152572D01*
X125577404Y-115087140D01*
X125511293Y-115028273D01*
X125435656Y-114976984D01*
X125351914Y-114934284D01*
X125261487Y-114901186D01*
X125201114Y-114885586D01*
X125154740Y-114877993D01*
X125098466Y-114872713D01*
X125036239Y-114869773D01*
X124972004Y-114869198D01*
X124909707Y-114871014D01*
X124853293Y-114875245D01*
X124806707Y-114881918D01*
X124801430Y-114882998D01*
X124698385Y-114911430D01*
X124604728Y-114950510D01*
X124520764Y-115000009D01*
X124446799Y-115059698D01*
X124383137Y-115129348D01*
X124330083Y-115208729D01*
X124306121Y-115255198D01*
X124295173Y-115277820D01*
X124286732Y-115293818D01*
X124282453Y-115300075D01*
X124282303Y-115300030D01*
X124278896Y-115292935D01*
X124270873Y-115275072D01*
X124259367Y-115248999D01*
X124245515Y-115217273D01*
X124242900Y-115211251D01*
X124171434Y-115064711D01*
X124086961Y-114924203D01*
X123989773Y-114789936D01*
X123880157Y-114662121D01*
X123758404Y-114540968D01*
X123624804Y-114426689D01*
X123479645Y-114319493D01*
X123323219Y-114219590D01*
X123155814Y-114127192D01*
X122977720Y-114042509D01*
X122789228Y-113965751D01*
X122590626Y-113897128D01*
X122382204Y-113836851D01*
X122333657Y-113824378D01*
X122113676Y-113774466D01*
X121890861Y-113734243D01*
X121670469Y-113704637D01*
X121633343Y-113700699D01*
X121593976Y-113696560D01*
X121559992Y-113692740D01*
X121533875Y-113689538D01*
X121518111Y-113687252D01*
X121514597Y-113686402D01*
X121517245Y-113679631D01*
X121525582Y-113660379D01*
X121539282Y-113629374D01*
X121558015Y-113587341D01*
X121581455Y-113535008D01*
X121609273Y-113473102D01*
X121641142Y-113402351D01*
X121676733Y-113323481D01*
X121715719Y-113237219D01*
X121757772Y-113144292D01*
X121802564Y-113045428D01*
X121849768Y-112941353D01*
X121899055Y-112832794D01*
X121950097Y-112720479D01*
X121959097Y-112700686D01*
X122010449Y-112587723D01*
X122060135Y-112478349D01*
X122107823Y-112373296D01*
X122153184Y-112273294D01*
X122195887Y-112179074D01*
X122235602Y-112091366D01*
X122271999Y-112010901D01*
X122304748Y-111938409D01*
X122333518Y-111874621D01*
X122357980Y-111820267D01*
X122377802Y-111776079D01*
X122392655Y-111742785D01*
X122402209Y-111721118D01*
X122406133Y-111711808D01*
X122406217Y-111711508D01*
X122399566Y-111707820D01*
X122380982Y-111700881D01*
X122352504Y-111691364D01*
X122316172Y-111679944D01*
X122274025Y-111667293D01*
X122259259Y-111662984D01*
X122215195Y-111650038D01*
X122175828Y-111638139D01*
X122143311Y-111627964D01*
X122119793Y-111620191D01*
X122107429Y-111615499D01*
X122106204Y-111614782D01*
X122109150Y-111608026D01*
X122118991Y-111589285D01*
X122135387Y-111559158D01*
X122157999Y-111518242D01*
X122186490Y-111467136D01*
X122220520Y-111406439D01*
X122259750Y-111336749D01*
X122303843Y-111258665D01*
X122352460Y-111172785D01*
X122405261Y-111079709D01*
X122461909Y-110980033D01*
X122522065Y-110874358D01*
X122585389Y-110763282D01*
X122651545Y-110647402D01*
X122720192Y-110527318D01*
X122790992Y-110403629D01*
X122822836Y-110348049D01*
X122894490Y-110222979D01*
X122964171Y-110101274D01*
X123031538Y-109983534D01*
X123096251Y-109870354D01*
X123157971Y-109762332D01*
X123216356Y-109660065D01*
X123271068Y-109564151D01*
X123321766Y-109475186D01*
X123368109Y-109393768D01*
X123409759Y-109320494D01*
X123446374Y-109255961D01*
X123477616Y-109200767D01*
X123503143Y-109155508D01*
X123522616Y-109120782D01*
X123535695Y-109097185D01*
X123542039Y-109085316D01*
X123542609Y-109083962D01*
X123535663Y-109086344D01*
X123516429Y-109094144D01*
X123485900Y-109106931D01*
X123445073Y-109124278D01*
X123394945Y-109145757D01*
X123336510Y-109170939D01*
X123270764Y-109199394D01*
X123198703Y-109230696D01*
X123121324Y-109264415D01*
X123039621Y-109300123D01*
X123001963Y-109316614D01*
X122918740Y-109353022D01*
X122839458Y-109387587D01*
X122765104Y-109419883D01*
X122696667Y-109449489D01*
X122635135Y-109475979D01*
X122581496Y-109498931D01*
X122536739Y-109517921D01*
X122501852Y-109532526D01*
X122477822Y-109542320D01*
X122465640Y-109546882D01*
X122464286Y-109547111D01*
X122466543Y-109534112D01*
X122472968Y-109509015D01*
X122483040Y-109473458D01*
X122496240Y-109429080D01*
X122512047Y-109377517D01*
X122529942Y-109320409D01*
X122549403Y-109259394D01*
X122569912Y-109196110D01*
X122590948Y-109132195D01*
X122611990Y-109069287D01*
X122632519Y-109009024D01*
X122652015Y-108953046D01*
X122660303Y-108929715D01*
X122732539Y-108732568D01*
X122807165Y-108538544D01*
X122885088Y-108345548D01*
X122967214Y-108151485D01*
X123054452Y-107954261D01*
X123147707Y-107751781D01*
X123247887Y-107541952D01*
X123355899Y-107322678D01*
X123357922Y-107318629D01*
X123465976Y-107105170D01*
X123571289Y-106902948D01*
X123675339Y-106709312D01*
X123779604Y-106521611D01*
X123885561Y-106337194D01*
X123994690Y-106153412D01*
X124108469Y-105967612D01*
X124135783Y-105923783D01*
X124252396Y-105737252D01*
X124269128Y-105795206D01*
X124298047Y-105874824D01*
X124336666Y-105949082D01*
X124383579Y-106016343D01*
X124437381Y-106074967D01*
X124496668Y-106123318D01*
X124560034Y-106159758D01*
X124593300Y-106173169D01*
X124626963Y-106181490D01*
X124664321Y-106185536D01*
X124700454Y-106185217D01*
X124730442Y-106180442D01*
X124742524Y-106175890D01*
X124774743Y-106151526D01*
X124797861Y-106118263D01*
X124810217Y-106079664D01*
X124810151Y-106039289D01*
X124808983Y-106033370D01*
X124800986Y-106007353D01*
X124788443Y-105985753D01*
X124768885Y-105965806D01*
X124739839Y-105944745D01*
X124717112Y-105930595D01*
X124656138Y-105892151D01*
X124607242Y-105856892D01*
X124568817Y-105823160D01*
X124539257Y-105789296D01*
X124516959Y-105753640D01*
X124500316Y-105714534D01*
X124496363Y-105702457D01*
X124485913Y-105653447D01*
X124481606Y-105597864D01*
X124483464Y-105541620D01*
X124491508Y-105490630D01*
X124495520Y-105475975D01*
X124522564Y-105412779D01*
X124561719Y-105356816D01*
X124612259Y-105308544D01*
X124673458Y-105268422D01*
X124744591Y-105236909D01*
X124824930Y-105214464D01*
X124913750Y-105201547D01*
X124931714Y-105200196D01*
X125035639Y-105197994D01*
X125130181Y-105205218D01*
X125214996Y-105221641D01*
X125289739Y-105247033D01*
X125354065Y-105281167D01*
X125407628Y-105323817D01*
X125450086Y-105374752D01*
X125481092Y-105433747D01*
X125500302Y-105500572D01*
X125507370Y-105575001D01*
X125507401Y-105580543D01*
X125501449Y-105655644D01*
X125483516Y-105722673D01*
X125453488Y-105781790D01*
X125411248Y-105833156D01*
X125356683Y-105876933D01*
X125289677Y-105913281D01*
X125261666Y-105924896D01*
X125214719Y-105944749D01*
X125180390Y-105964068D01*
X125156974Y-105984671D01*
X125142765Y-106008374D01*
X125136059Y-106036996D01*
X125134914Y-106059997D01*
X125140830Y-106105098D01*
X125158427Y-106141830D01*
X125187484Y-106169809D01*
X125204468Y-106179553D01*
X125226502Y-106188702D01*
X125247260Y-106192746D01*
X125273231Y-106192649D01*
X125286213Y-106191694D01*
X125358397Y-106178519D01*
X125428325Y-106152076D01*
X125494675Y-106113579D01*
X125556122Y-106064243D01*
X125611341Y-106005284D01*
X125659008Y-105937916D01*
X125697799Y-105863356D01*
X125724481Y-105789543D01*
X125730144Y-105768709D01*
X125734328Y-105749067D01*
X125737242Y-105727930D01*
X125739094Y-105702609D01*
X125740094Y-105670414D01*
X125740448Y-105628657D01*
X125740400Y-105584172D01*
X125739579Y-105519183D01*
X125737192Y-105465657D01*
X125732650Y-105420575D01*
X125725368Y-105380919D01*
X125714757Y-105343669D01*
X125700229Y-105305807D01*
X125681198Y-105264314D01*
X125676138Y-105253972D01*
X125630413Y-105177579D01*
X125572680Y-105108996D01*
X125503413Y-105048627D01*
X125423086Y-104996875D01*
X125332173Y-104954144D01*
X125317187Y-104948363D01*
X125269458Y-104931538D01*
X125225523Y-104918799D01*
X125182031Y-104909637D01*
X125135634Y-104903541D01*
X125082982Y-104900003D01*
X125020727Y-104898511D01*
X124988798Y-104898372D01*
X124846310Y-104898372D01*
X124873034Y-104865715D01*
X124886833Y-104848838D01*
X124907555Y-104823482D01*
X124932942Y-104792407D01*
X124960737Y-104758377D01*
X124977618Y-104737705D01*
X125055480Y-104642353D01*
X125094697Y-104663594D01*
X125152976Y-104687567D01*
X125219122Y-104701441D01*
X125290289Y-104704904D01*
X125363629Y-104697647D01*
X125379630Y-104694611D01*
X125452635Y-104672316D01*
X125519543Y-104637216D01*
X125579538Y-104590023D01*
X125631802Y-104531449D01*
X125675520Y-104462208D01*
X125696489Y-104417799D01*
X125706035Y-104391259D01*
X125716465Y-104356125D01*
X125726154Y-104318098D01*
X125730395Y-104298900D01*
X125736160Y-104269153D01*
X125740176Y-104242427D01*
X125742644Y-104215298D01*
X125743766Y-104184345D01*
X125743740Y-104146144D01*
X125742769Y-104097272D01*
X125742602Y-104090652D01*
X125739194Y-103957847D01*
X125798097Y-103912429D01*
X125924124Y-103820919D01*
X126047187Y-103743130D01*
X126167929Y-103678724D01*
X126286993Y-103627364D01*
X126405021Y-103588711D01*
X126423057Y-103583889D01*
X126455048Y-103575934D01*
X126482219Y-103570309D01*
X126508385Y-103566620D01*
X126537360Y-103564470D01*
X126572955Y-103563466D01*
X126618986Y-103563213D01*
X126622628Y-103563213D01*
X126670348Y-103563495D01*
X126706933Y-103564524D01*
X126735757Y-103566616D01*
X126760195Y-103570085D01*
X126783619Y-103575246D01*
X126800428Y-103579808D01*
X126895065Y-103614298D01*
X126986669Y-103662790D01*
X127074792Y-103725005D01*
X127158984Y-103800663D01*
X127165824Y-103807582D01*
X127242555Y-103894606D01*
X127309505Y-103989377D01*
X127367044Y-104092709D01*
X127415539Y-104205411D01*
X127455359Y-104328297D01*
X127486872Y-104462178D01*
X127501908Y-104547875D01*
X127508304Y-104600344D01*
X127513291Y-104664457D01*
X127516851Y-104737413D01*
X127518970Y-104816408D01*
X127519633Y-104898641D01*
X127518823Y-104981309D01*
X127516527Y-105061609D01*
X127512727Y-105136739D01*
X127507410Y-105203896D01*
X127505600Y-105221315D01*
X127477761Y-105429379D01*
X127439411Y-105644441D01*
X127390431Y-105867009D01*
X127330702Y-106097595D01*
X127260104Y-106336708D01*
X127205477Y-106505487D01*
X127130691Y-106719816D01*
X127047385Y-106941863D01*
X126956828Y-107168627D01*
X126860287Y-107397107D01*
X126759029Y-107624304D01*
X126654324Y-107847216D01*
X126547437Y-108062843D01*
X126547361Y-108062992D01*
X126524860Y-108107310D01*
X126504866Y-108147035D01*
X126488231Y-108180448D01*
X126475807Y-108205827D01*
X126468446Y-108221448D01*
X126466794Y-108225772D01*
X126472126Y-108219498D01*
X126483235Y-108201564D01*
X126499426Y-108173304D01*
X126520006Y-108136049D01*
X126544281Y-108091132D01*
X126571557Y-108039886D01*
X126601139Y-107983643D01*
X126632335Y-107923737D01*
X126664449Y-107861498D01*
X126696789Y-107798260D01*
X126728659Y-107735356D01*
X126759367Y-107674118D01*
X126788217Y-107615879D01*
X126814516Y-107561971D01*
X126837172Y-107514572D01*
X126965794Y-107233339D01*
X127082766Y-106959679D01*
X127188058Y-106693682D01*
X127281642Y-106435437D01*
X127363488Y-106185036D01*
X127433569Y-105942569D01*
X127491855Y-105708125D01*
X127538316Y-105481795D01*
X127572924Y-105263670D01*
X127581314Y-105197120D01*
X127585253Y-105157159D01*
X127588919Y-105107584D01*
X127592232Y-105050974D01*
X127595111Y-104989912D01*
X127597474Y-104926976D01*
X127599240Y-104864748D01*
X127600328Y-104805808D01*
X127600657Y-104752735D01*
X127600145Y-104708112D01*
X127598712Y-104674517D01*
X127598009Y-104666143D01*
X127587689Y-104571931D01*
X127576765Y-104489718D01*
X127564798Y-104416989D01*
X127551350Y-104351229D01*
X127535980Y-104289924D01*
X127526736Y-104257816D01*
X127484689Y-104137747D01*
X127433284Y-104024897D01*
X127373280Y-103920019D01*
X127305432Y-103823870D01*
X127230497Y-103737205D01*
X127149233Y-103660777D01*
X127062395Y-103595344D01*
X126970742Y-103541659D01*
X126875028Y-103500478D01*
X126776013Y-103472555D01*
X126731825Y-103464698D01*
X126684400Y-103460307D01*
X126627636Y-103459031D01*
X126566321Y-103460659D01*
X126505246Y-103464981D01*
X126449199Y-103471785D01*
X126411622Y-103478779D01*
X126309833Y-103507148D01*
X126202580Y-103546835D01*
X126091995Y-103596787D01*
X125980212Y-103655956D01*
X125869364Y-103723292D01*
X125761584Y-103797744D01*
X125757478Y-103800773D01*
X125701675Y-103842040D01*
X125679231Y-103796449D01*
X125638906Y-103730448D01*
X125586988Y-103671213D01*
X125527895Y-103622725D01*
X125527895Y-104144923D01*
X125523205Y-104173305D01*
X125518584Y-104195646D01*
X125511355Y-104224782D01*
X125504678Y-104248858D01*
X125483136Y-104301265D01*
X125452648Y-104344697D01*
X125414728Y-104377877D01*
X125370888Y-104399527D01*
X125322642Y-104408371D01*
X125315514Y-104408515D01*
X125292794Y-104407839D01*
X125277302Y-104406087D01*
X125272800Y-104404136D01*
X125277672Y-104396891D01*
X125291104Y-104381302D01*
X125311323Y-104359218D01*
X125336555Y-104332487D01*
X125365025Y-104302956D01*
X125394959Y-104272472D01*
X125424583Y-104242884D01*
X125452122Y-104216039D01*
X125466570Y-104202333D01*
X125527895Y-104144923D01*
X125527895Y-103622725D01*
X125525638Y-103620873D01*
X125465146Y-103585420D01*
X125414794Y-103564636D01*
X125365837Y-103551421D01*
X125321877Y-103546581D01*
X125298890Y-103548113D01*
X125259641Y-103560562D01*
X125227937Y-103582737D01*
X125204560Y-103612144D01*
X125190289Y-103646291D01*
X125185904Y-103682683D01*
X125192185Y-103718826D01*
X125209912Y-103752228D01*
X125228839Y-103772049D01*
X125244566Y-103782867D01*
X125269972Y-103797672D01*
X125301502Y-103814487D01*
X125334457Y-103830793D01*
X125389209Y-103859388D01*
X125431672Y-103887777D01*
X125463937Y-103917708D01*
X125488099Y-103950925D01*
X125495928Y-103965452D01*
X125511887Y-103997732D01*
X125455843Y-104048512D01*
X125433427Y-104069258D01*
X125403260Y-104097805D01*
X125367883Y-104131714D01*
X125329835Y-104168550D01*
X125291656Y-104205875D01*
X125283278Y-104214120D01*
X125166755Y-104328947D01*
X125153604Y-104301602D01*
X125144410Y-104281573D01*
X125136022Y-104260847D01*
X125127727Y-104237128D01*
X125118814Y-104208117D01*
X125108571Y-104171519D01*
X125096284Y-104125035D01*
X125083800Y-104076416D01*
X125059270Y-103985719D01*
X125035016Y-103908068D01*
X125010372Y-103842022D01*
X124984674Y-103786145D01*
X124957258Y-103738997D01*
X124927459Y-103699138D01*
X124894613Y-103665132D01*
X124893302Y-103663942D01*
X124838298Y-103623617D01*
X124777046Y-103595188D01*
X124711609Y-103578649D01*
X124644050Y-103573994D01*
X124576430Y-103581220D01*
X124510812Y-103600321D01*
X124449260Y-103631292D01*
X124403743Y-103665124D01*
X124353782Y-103718401D01*
X124312859Y-103782707D01*
X124281133Y-103857592D01*
X124258761Y-103942605D01*
X124245901Y-104037295D01*
X124242568Y-104125486D01*
X124245052Y-104200899D01*
X124252526Y-104266405D01*
X124265632Y-104325942D01*
X124284138Y-104381222D01*
X124309472Y-104438204D01*
X124338387Y-104485712D01*
X124374237Y-104528781D01*
X124398268Y-104552534D01*
X124442629Y-104589843D01*
X124484432Y-104615316D01*
X124526947Y-104630409D01*
X124573441Y-104636582D01*
X124587500Y-104636910D01*
X124618480Y-104636441D01*
X124639840Y-104634049D01*
X124656451Y-104628650D01*
X124673183Y-104619160D01*
X124676257Y-104617149D01*
X124706344Y-104589837D01*
X124726046Y-104556387D01*
X124735144Y-104519695D01*
X124733418Y-104482660D01*
X124720652Y-104448181D01*
X124696626Y-104419155D01*
X124691486Y-104415031D01*
X124672798Y-104402245D01*
X124646662Y-104385996D01*
X124618455Y-104369616D01*
X124616028Y-104368266D01*
X124572789Y-104340987D01*
X124533986Y-104310223D01*
X124502678Y-104278700D01*
X124481923Y-104249145D01*
X124481483Y-104248293D01*
X124466071Y-104206022D01*
X124457104Y-104155002D01*
X124454680Y-104099537D01*
X124458899Y-104043932D01*
X124469858Y-103992491D01*
X124475241Y-103976436D01*
X124496503Y-103934184D01*
X124525152Y-103898347D01*
X124558725Y-103871028D01*
X124594759Y-103854331D01*
X124623286Y-103850033D01*
X124658787Y-103856749D01*
X124693816Y-103875463D01*
X124724659Y-103904025D01*
X124731420Y-103912642D01*
X124746752Y-103936313D01*
X124761128Y-103964764D01*
X124775238Y-103999894D01*
X124789771Y-104043600D01*
X124805414Y-104097781D01*
X124822856Y-104164334D01*
X124823126Y-104165400D01*
X124845389Y-104250189D01*
X124866199Y-104322315D01*
X124886151Y-104383489D01*
X124905843Y-104435416D01*
X124925868Y-104479805D01*
X124945376Y-104515927D01*
X124966592Y-104551908D01*
X124879114Y-104656197D01*
X124843414Y-104699175D01*
X124803502Y-104747906D01*
X124763309Y-104797552D01*
X124726761Y-104843275D01*
X124711938Y-104862063D01*
X124682440Y-104899343D01*
X124659548Y-104927156D01*
X124641110Y-104947613D01*
X124624980Y-104962823D01*
X124609007Y-104974897D01*
X124591043Y-104985944D01*
X124578905Y-104992691D01*
X124498924Y-105043924D01*
X124429454Y-105104938D01*
X124369975Y-105176276D01*
X124319967Y-105258480D01*
X124314884Y-105268486D01*
X124295004Y-105312210D01*
X124277380Y-105358224D01*
X124263165Y-105402867D01*
X124253513Y-105442477D01*
X124249577Y-105473392D01*
X124249543Y-105475862D01*
X124245067Y-105491725D01*
X124231957Y-105518009D01*
X124210687Y-105553837D01*
X124190373Y-105585372D01*
X123962679Y-105940412D01*
X123741340Y-106306714D01*
X123527632Y-106681945D01*
X123322833Y-107063771D01*
X123128217Y-107449858D01*
X122945062Y-107837873D01*
X122881534Y-107979029D01*
X122772500Y-108230121D01*
X122672736Y-108471704D01*
X122581791Y-108705043D01*
X122499213Y-108931404D01*
X122424549Y-109152054D01*
X122357347Y-109368259D01*
X122297155Y-109581284D01*
X122264919Y-109705307D01*
X122255888Y-109742049D01*
X122248566Y-109773487D01*
X122243507Y-109797096D01*
X122241270Y-109810350D01*
X122241345Y-109812279D01*
X122248257Y-109809876D01*
X122267385Y-109802074D01*
X122297665Y-109789331D01*
X122338032Y-109772106D01*
X122387424Y-109750859D01*
X122444775Y-109726046D01*
X122509023Y-109698129D01*
X122579103Y-109667564D01*
X122653951Y-109634812D01*
X122714599Y-109608199D01*
X122792403Y-109574062D01*
X122866252Y-109541745D01*
X122935085Y-109511708D01*
X122997838Y-109484411D01*
X123053448Y-109460315D01*
X123100853Y-109439877D01*
X123138991Y-109423559D01*
X123166797Y-109411820D01*
X123183210Y-109405119D01*
X123187417Y-109403684D01*
X123184117Y-109410119D01*
X123173983Y-109428535D01*
X123157372Y-109458305D01*
X123134638Y-109498801D01*
X123106138Y-109549395D01*
X123072226Y-109609460D01*
X123033258Y-109678369D01*
X122989590Y-109755493D01*
X122941577Y-109840204D01*
X122889574Y-109931876D01*
X122833938Y-110029881D01*
X122775023Y-110133591D01*
X122713186Y-110242378D01*
X122648781Y-110355616D01*
X122582164Y-110472675D01*
X122536974Y-110552045D01*
X122469101Y-110671307D01*
X122403234Y-110787185D01*
X122339729Y-110899050D01*
X122278938Y-111006274D01*
X122221216Y-111108226D01*
X122166918Y-111204279D01*
X122116395Y-111293804D01*
X122070004Y-111376172D01*
X122028097Y-111450753D01*
X121991028Y-111516919D01*
X121959152Y-111574041D01*
X121932823Y-111621491D01*
X121912393Y-111658639D01*
X121898218Y-111684857D01*
X121890651Y-111699515D01*
X121889450Y-111702553D01*
X121897630Y-111705701D01*
X121917757Y-111712138D01*
X121947799Y-111721255D01*
X121985724Y-111732439D01*
X122029499Y-111745080D01*
X122055813Y-111752569D01*
X122107708Y-111767384D01*
X122147127Y-111779010D01*
X122175609Y-111788018D01*
X122194696Y-111794984D01*
X122205929Y-111800482D01*
X122210849Y-111805085D01*
X122210995Y-111809368D01*
X122210587Y-111810237D01*
X122206380Y-111819186D01*
X122196741Y-111840364D01*
X122182063Y-111872885D01*
X122162743Y-111915861D01*
X122139176Y-111968406D01*
X122111756Y-112029633D01*
X122080878Y-112098655D01*
X122046938Y-112174586D01*
X122010331Y-112256538D01*
X121971452Y-112343624D01*
X121930695Y-112434959D01*
X121888457Y-112529654D01*
X121845132Y-112626824D01*
X121801114Y-112725581D01*
X121756800Y-112825039D01*
X121712585Y-112924311D01*
X121668862Y-113022509D01*
X121626028Y-113118748D01*
X121584478Y-113212140D01*
X121544606Y-113301799D01*
X121506807Y-113386837D01*
X121471478Y-113466368D01*
X121439012Y-113539505D01*
X121409805Y-113605362D01*
X121384252Y-113663051D01*
X121362748Y-113711686D01*
X121345689Y-113750379D01*
X121333468Y-113778244D01*
X121326482Y-113794395D01*
X121324914Y-113798280D01*
X121331807Y-113800271D01*
G37*
X121331807Y-113800271D02*
X121351067Y-113802793D01*
X121380566Y-113805647D01*
X121418173Y-113808633D01*
X121461761Y-113811553D01*
X121475500Y-113812375D01*
X121694788Y-113830213D01*
X121911127Y-113857832D01*
X122123467Y-113894904D01*
X122330755Y-113941101D01*
X122531939Y-113996095D01*
X122725968Y-114059558D01*
X122911789Y-114131162D01*
X123088351Y-114210579D01*
X123254602Y-114297481D01*
X123409490Y-114391541D01*
X123474683Y-114435750D01*
X123606497Y-114535787D01*
X123729369Y-114644235D01*
X123842382Y-114760006D01*
X123944620Y-114882012D01*
X124035167Y-115009164D01*
X124113106Y-115140375D01*
X124173870Y-115266016D01*
X124195716Y-115317123D01*
X124212414Y-115358050D01*
X124224692Y-115391888D01*
X124233279Y-115421728D01*
X124238901Y-115450662D01*
X124242289Y-115481781D01*
X124244168Y-115518177D01*
X124245268Y-115562940D01*
X124245395Y-115569707D01*
X124247347Y-115631944D01*
X124251118Y-115683163D01*
X124257400Y-115726817D01*
X124266885Y-115766357D01*
X124280266Y-115805238D01*
X124298236Y-115846911D01*
X124303063Y-115857195D01*
X124337023Y-115921642D01*
X124374085Y-115976827D01*
X124417922Y-116027994D01*
X124434960Y-116045343D01*
X124458093Y-116069069D01*
X124475680Y-116089940D01*
X124490353Y-116111957D01*
X124504745Y-116139119D01*
X124521489Y-116175427D01*
X124523344Y-116179600D01*
X124541665Y-116220577D01*
X124561876Y-116265246D01*
X124581137Y-116307355D01*
X124592780Y-116332487D01*
X124625206Y-116401916D01*
X124577487Y-116410090D01*
X124510963Y-116428639D01*
X124449988Y-116460148D01*
X124395237Y-116503904D01*
X124347386Y-116559195D01*
X124307110Y-116625311D01*
X124275084Y-116701539D01*
X124262699Y-116742029D01*
X124257078Y-116764459D01*
X124252930Y-116786321D01*
X124250030Y-116810421D01*
X124248154Y-116839567D01*
X124247080Y-116876566D01*
X124246583Y-116924225D01*
X124246500Y-116945229D01*
X124246581Y-116998745D01*
X124247281Y-117040331D01*
X124248772Y-117072561D01*
X124251225Y-117098014D01*
X124254813Y-117119263D01*
X124259327Y-117137543D01*
X124286572Y-117215763D01*
X124321536Y-117285301D01*
X124363311Y-117345200D01*
X124410989Y-117394500D01*
X124463661Y-117432244D01*
X124520420Y-117457475D01*
X124573269Y-117468591D01*
X124602723Y-117470268D01*
X124625340Y-117467269D01*
X124648318Y-117458607D01*
X124649230Y-117458183D01*
X124677262Y-117443849D01*
X124696325Y-117430017D01*
X124711237Y-117412652D01*
X124720311Y-117398672D01*
X124732598Y-117366705D01*
X124735689Y-117330165D01*
X124729525Y-117295100D01*
X124721484Y-117277486D01*
X124706429Y-117259440D01*
X124681128Y-117238543D01*
X124644494Y-117213999D01*
X124595440Y-117185009D01*
X124594363Y-117184400D01*
X124545994Y-117151465D01*
X124506933Y-117113289D01*
X124479423Y-117072199D01*
X124473401Y-117058751D01*
X124463223Y-117021195D01*
X124457440Y-116974804D01*
X124456059Y-116924502D01*
X124459084Y-116875210D01*
X124466520Y-116831850D01*
X124473143Y-116810625D01*
X124498646Y-116759113D01*
X124529433Y-116720347D01*
X124565057Y-116694680D01*
X124605072Y-116682464D01*
X124635187Y-116682081D01*
X124666932Y-116688617D01*
X124693886Y-116703010D01*
X124719798Y-116727635D01*
X124733348Y-116744283D01*
X124744995Y-116760921D01*
X124755707Y-116779922D01*
X124766130Y-116803106D01*
X124776909Y-116832291D01*
X124788691Y-116869298D01*
X124802121Y-116915944D01*
X124817844Y-116974051D01*
X124826336Y-117006323D01*
X124844846Y-117075777D01*
X124861086Y-117133403D01*
X124875859Y-117181558D01*
X124889968Y-117222597D01*
X124904216Y-117258879D01*
X124919404Y-117292759D01*
X124933682Y-117321483D01*
X124974942Y-117387913D01*
X125023768Y-117442243D01*
X125079881Y-117484225D01*
X125143003Y-117513610D01*
X125151256Y-117516348D01*
X125188412Y-117524673D01*
X125234644Y-117529900D01*
X125284820Y-117531886D01*
X125333806Y-117530487D01*
X125376469Y-117525560D01*
X125388914Y-117522986D01*
X125443999Y-117504691D01*
X125500486Y-117477044D01*
X125552429Y-117443206D01*
X125577054Y-117422966D01*
X125621291Y-117382934D01*
X125702859Y-117399939D01*
X125730478Y-117405414D01*
X125755738Y-117409579D01*
X125781289Y-117412605D01*
X125809781Y-117414665D01*
X125843864Y-117415930D01*
X125886186Y-117416572D01*
X125939396Y-117416762D01*
X125962228Y-117416753D01*
X126022611Y-117416499D01*
X126071385Y-117415761D01*
X126111454Y-117414365D01*
X126145718Y-117412135D01*
X126177081Y-117408893D01*
X126208445Y-117404465D01*
X126233464Y-117400303D01*
X126397524Y-117365854D01*
X126567210Y-117318597D01*
X126604486Y-117306749D01*
X126639983Y-117294870D01*
X126680267Y-117280799D01*
X126723263Y-117265329D01*
X126766892Y-117249251D01*
X126809078Y-117233354D01*
X126847744Y-117218429D01*
X126880813Y-117205268D01*
X126906208Y-117194660D01*
X126921852Y-117187398D01*
X126925888Y-117184384D01*
X126918579Y-117185899D01*
X126900039Y-117191731D01*
X126872619Y-117201087D01*
X126838671Y-117213173D01*
X126815320Y-117221709D01*
X126688763Y-117265249D01*
X126558018Y-117304299D01*
X126427388Y-117337728D01*
X126301176Y-117364407D01*
X126219857Y-117378148D01*
X126185699Y-117381850D01*
X126139275Y-117384735D01*
X126082813Y-117386711D01*
X126018543Y-117387685D01*
X125987628Y-117387772D01*
X125920221Y-117387264D01*
X125864363Y-117385665D01*
X125817113Y-117382672D01*
X125775527Y-117377982D01*
X125736661Y-117371291D01*
X125697574Y-117362297D01*
X125671046Y-117355183D01*
X125644749Y-117347825D01*
X125676650Y-117284413D01*
X125698615Y-117237250D01*
X125715179Y-117192495D01*
X125727118Y-117146613D01*
X125735212Y-117096068D01*
X125740236Y-117037325D01*
X125742477Y-116985143D01*
X125743601Y-116929429D01*
X125743096Y-116884393D01*
X125740800Y-116846276D01*
X125736549Y-116811315D01*
X125734348Y-116797851D01*
X125712445Y-116708119D01*
X125679658Y-116627673D01*
X125636170Y-116556767D01*
X125582165Y-116495658D01*
X125517825Y-116444601D01*
X125456896Y-116410133D01*
X125401947Y-116388418D01*
X125350361Y-116377152D01*
X125304053Y-116376542D01*
X125264938Y-116386796D01*
X125260508Y-116388924D01*
X125224505Y-116414763D01*
X125199956Y-116448853D01*
X125187801Y-116489439D01*
X125187599Y-116525129D01*
X125192245Y-116549051D01*
X125201459Y-116569620D01*
X125216994Y-116588469D01*
X125240604Y-116607231D01*
X125274044Y-116627540D01*
X125319067Y-116651028D01*
X125327030Y-116654977D01*
X125369140Y-116676321D01*
X125400636Y-116693841D01*
X125424290Y-116709329D01*
X125442870Y-116724581D01*
X125457313Y-116739328D01*
X125489090Y-116783274D01*
X125510538Y-116833795D01*
X125522481Y-116893098D01*
X125524786Y-116919829D01*
X125523691Y-116994686D01*
X125511295Y-117061633D01*
X125487790Y-117120100D01*
X125453364Y-117169518D01*
X125435437Y-117187673D01*
X125414202Y-117205758D01*
X125395137Y-117219713D01*
X125382317Y-117226558D01*
X125382188Y-117226593D01*
X125367939Y-117224326D01*
X125345121Y-117213660D01*
X125315801Y-117196072D01*
X125282043Y-117173040D01*
X125245913Y-117146042D01*
X125209479Y-117116556D01*
X125174805Y-117086060D01*
X125144429Y-117056520D01*
X125132963Y-117044110D01*
X125123988Y-117032188D01*
X125116462Y-117018165D01*
X125109344Y-116999451D01*
X125101590Y-116973456D01*
X125092159Y-116937590D01*
X125084778Y-116908330D01*
X125062649Y-116824213D01*
X125041356Y-116752735D01*
X125020102Y-116692115D01*
X124998088Y-116640571D01*
X124974519Y-116596320D01*
X124948594Y-116557582D01*
X124919518Y-116522573D01*
X124905566Y-116507937D01*
X124858680Y-116466117D01*
X124812268Y-116436702D01*
X124763377Y-116417995D01*
X124739921Y-116412644D01*
X124718396Y-116407628D01*
X124703026Y-116402232D01*
X124699381Y-116399948D01*
X124694513Y-116391546D01*
X124685268Y-116372749D01*
X124672752Y-116346046D01*
X124658072Y-116313930D01*
X124642334Y-116278890D01*
X124626644Y-116243418D01*
X124612109Y-116210005D01*
X124599835Y-116181142D01*
X124590928Y-116159320D01*
X124586495Y-116147029D01*
X124586264Y-116145260D01*
X124593919Y-116145845D01*
X124608237Y-116150369D01*
X124631581Y-116155539D01*
X124662346Y-116157611D01*
X124694987Y-116156716D01*
X124723960Y-116152985D01*
X124742524Y-116147204D01*
X124774390Y-116123114D01*
X124797496Y-116090180D01*
X124810113Y-116052069D01*
X124810511Y-116012447D01*
X124809228Y-116005774D01*
X124803371Y-115984255D01*
X124795266Y-115966210D01*
X124783041Y-115949858D01*
X124764820Y-115933415D01*
X124738729Y-115915097D01*
X124702894Y-115893119D01*
X124671918Y-115875127D01*
X124607948Y-115831684D01*
X124556633Y-115782205D01*
X124518310Y-115727093D01*
X124493317Y-115666750D01*
X124491636Y-115660715D01*
X124486066Y-115629073D01*
X124482971Y-115588676D01*
X124482416Y-115545078D01*
X124484464Y-115503836D01*
X124489176Y-115470506D01*
X124489468Y-115469212D01*
X124511260Y-115406294D01*
X124545898Y-115349058D01*
X124592593Y-115298218D01*
X124650553Y-115254489D01*
X124718986Y-115218583D01*
X124797103Y-115191216D01*
X124797457Y-115191118D01*
X124818894Y-115185610D01*
X124839426Y-115181517D01*
X124861724Y-115178637D01*
X124888460Y-115176770D01*
X124922305Y-115175711D01*
X124965932Y-115175259D01*
X125007914Y-115175198D01*
X125059382Y-115175319D01*
X125099022Y-115175774D01*
X125129517Y-115176810D01*
X125153555Y-115178678D01*
X125173818Y-115181623D01*
X125192994Y-115185895D01*
X125213766Y-115191741D01*
X125225469Y-115195294D01*
X125284012Y-115215753D01*
X125331910Y-115238480D01*
X125373032Y-115265506D01*
X125396630Y-115285139D01*
X125442614Y-115335649D01*
X125476211Y-115393464D01*
X125497518Y-115458820D01*
X125506632Y-115531949D01*
X125507006Y-115548229D01*
X125501748Y-115624097D01*
X125484774Y-115691557D01*
X125455893Y-115750883D01*
X125414913Y-115802347D01*
X125361643Y-115846224D01*
X125295890Y-115882787D01*
X125262800Y-115896688D01*
X125215699Y-115916522D01*
X125181194Y-115935655D01*
X125157582Y-115955872D01*
X125143161Y-115978961D01*
X125136227Y-116006709D01*
X125134914Y-116030852D01*
X125140631Y-116076592D01*
X125157305Y-116113227D01*
X125184226Y-116140280D01*
X125220679Y-116157276D01*
X125265954Y-116163739D01*
X125319336Y-116159193D01*
X125325305Y-116158072D01*
X125398423Y-116136483D01*
X125468156Y-116101876D01*
X125533140Y-116055605D01*
X125592012Y-115999025D01*
X125643408Y-115933490D01*
X125685964Y-115860356D01*
X125718317Y-115780977D01*
X125724217Y-115761820D01*
X125729962Y-115740738D01*
X125734209Y-115721036D01*
X125737169Y-115700014D01*
X125739054Y-115674971D01*
X125740076Y-115643208D01*
X125740446Y-115602025D01*
X125740400Y-115555486D01*
X125739587Y-115490632D01*
X125737217Y-115437222D01*
X125732694Y-115392217D01*
X125725424Y-115352577D01*
X125714812Y-115315265D01*
X125700260Y-115277240D01*
X125681176Y-115235465D01*
X125675370Y-115223559D01*
X125632570Y-115152572D01*
X125577404Y-115087140D01*
X125511293Y-115028273D01*
X125435656Y-114976984D01*
X125351914Y-114934284D01*
X125261487Y-114901186D01*
X125201114Y-114885586D01*
X125154740Y-114877993D01*
X125098466Y-114872713D01*
X125036239Y-114869773D01*
X124972004Y-114869198D01*
X124909707Y-114871014D01*
X124853293Y-114875245D01*
X124806707Y-114881918D01*
X124801430Y-114882998D01*
X124698385Y-114911430D01*
X124604728Y-114950510D01*
X124520764Y-115000009D01*
X124446799Y-115059698D01*
X124383137Y-115129348D01*
X124330083Y-115208729D01*
X124306121Y-115255198D01*
X124295173Y-115277820D01*
X124286732Y-115293818D01*
X124282453Y-115300075D01*
X124282303Y-115300030D01*
X124278896Y-115292935D01*
X124270873Y-115275072D01*
X124259367Y-115248999D01*
X124245515Y-115217273D01*
X124242900Y-115211251D01*
X124171434Y-115064711D01*
X124086961Y-114924203D01*
X123989773Y-114789936D01*
X123880157Y-114662121D01*
X123758404Y-114540968D01*
X123624804Y-114426689D01*
X123479645Y-114319493D01*
X123323219Y-114219590D01*
X123155814Y-114127192D01*
X122977720Y-114042509D01*
X122789228Y-113965751D01*
X122590626Y-113897128D01*
X122382204Y-113836851D01*
X122333657Y-113824378D01*
X122113676Y-113774466D01*
X121890861Y-113734243D01*
X121670469Y-113704637D01*
X121633343Y-113700699D01*
X121593976Y-113696560D01*
X121559992Y-113692740D01*
X121533875Y-113689538D01*
X121518111Y-113687252D01*
X121514597Y-113686402D01*
X121517245Y-113679631D01*
X121525582Y-113660379D01*
X121539282Y-113629374D01*
X121558015Y-113587341D01*
X121581455Y-113535008D01*
X121609273Y-113473102D01*
X121641142Y-113402351D01*
X121676733Y-113323481D01*
X121715719Y-113237219D01*
X121757772Y-113144292D01*
X121802564Y-113045428D01*
X121849768Y-112941353D01*
X121899055Y-112832794D01*
X121950097Y-112720479D01*
X121959097Y-112700686D01*
X122010449Y-112587723D01*
X122060135Y-112478349D01*
X122107823Y-112373296D01*
X122153184Y-112273294D01*
X122195887Y-112179074D01*
X122235602Y-112091366D01*
X122271999Y-112010901D01*
X122304748Y-111938409D01*
X122333518Y-111874621D01*
X122357980Y-111820267D01*
X122377802Y-111776079D01*
X122392655Y-111742785D01*
X122402209Y-111721118D01*
X122406133Y-111711808D01*
X122406217Y-111711508D01*
X122399566Y-111707820D01*
X122380982Y-111700881D01*
X122352504Y-111691364D01*
X122316172Y-111679944D01*
X122274025Y-111667293D01*
X122259259Y-111662984D01*
X122215195Y-111650038D01*
X122175828Y-111638139D01*
X122143311Y-111627964D01*
X122119793Y-111620191D01*
X122107429Y-111615499D01*
X122106204Y-111614782D01*
X122109150Y-111608026D01*
X122118991Y-111589285D01*
X122135387Y-111559158D01*
X122157999Y-111518242D01*
X122186490Y-111467136D01*
X122220520Y-111406439D01*
X122259750Y-111336749D01*
X122303843Y-111258665D01*
X122352460Y-111172785D01*
X122405261Y-111079709D01*
X122461909Y-110980033D01*
X122522065Y-110874358D01*
X122585389Y-110763282D01*
X122651545Y-110647402D01*
X122720192Y-110527318D01*
X122790992Y-110403629D01*
X122822836Y-110348049D01*
X122894490Y-110222979D01*
X122964171Y-110101274D01*
X123031538Y-109983534D01*
X123096251Y-109870354D01*
X123157971Y-109762332D01*
X123216356Y-109660065D01*
X123271068Y-109564151D01*
X123321766Y-109475186D01*
X123368109Y-109393768D01*
X123409759Y-109320494D01*
X123446374Y-109255961D01*
X123477616Y-109200767D01*
X123503143Y-109155508D01*
X123522616Y-109120782D01*
X123535695Y-109097185D01*
X123542039Y-109085316D01*
X123542609Y-109083962D01*
X123535663Y-109086344D01*
X123516429Y-109094144D01*
X123485900Y-109106931D01*
X123445073Y-109124278D01*
X123394945Y-109145757D01*
X123336510Y-109170939D01*
X123270764Y-109199394D01*
X123198703Y-109230696D01*
X123121324Y-109264415D01*
X123039621Y-109300123D01*
X123001963Y-109316614D01*
X122918740Y-109353022D01*
X122839458Y-109387587D01*
X122765104Y-109419883D01*
X122696667Y-109449489D01*
X122635135Y-109475979D01*
X122581496Y-109498931D01*
X122536739Y-109517921D01*
X122501852Y-109532526D01*
X122477822Y-109542320D01*
X122465640Y-109546882D01*
X122464286Y-109547111D01*
X122466543Y-109534112D01*
X122472968Y-109509015D01*
X122483040Y-109473458D01*
X122496240Y-109429080D01*
X122512047Y-109377517D01*
X122529942Y-109320409D01*
X122549403Y-109259394D01*
X122569912Y-109196110D01*
X122590948Y-109132195D01*
X122611990Y-109069287D01*
X122632519Y-109009024D01*
X122652015Y-108953046D01*
X122660303Y-108929715D01*
X122732539Y-108732568D01*
X122807165Y-108538544D01*
X122885088Y-108345548D01*
X122967214Y-108151485D01*
X123054452Y-107954261D01*
X123147707Y-107751781D01*
X123247887Y-107541952D01*
X123355899Y-107322678D01*
X123357922Y-107318629D01*
X123465976Y-107105170D01*
X123571289Y-106902948D01*
X123675339Y-106709312D01*
X123779604Y-106521611D01*
X123885561Y-106337194D01*
X123994690Y-106153412D01*
X124108469Y-105967612D01*
X124135783Y-105923783D01*
X124252396Y-105737252D01*
X124269128Y-105795206D01*
X124298047Y-105874824D01*
X124336666Y-105949082D01*
X124383579Y-106016343D01*
X124437381Y-106074967D01*
X124496668Y-106123318D01*
X124560034Y-106159758D01*
X124593300Y-106173169D01*
X124626963Y-106181490D01*
X124664321Y-106185536D01*
X124700454Y-106185217D01*
X124730442Y-106180442D01*
X124742524Y-106175890D01*
X124774743Y-106151526D01*
X124797861Y-106118263D01*
X124810217Y-106079664D01*
X124810151Y-106039289D01*
X124808983Y-106033370D01*
X124800986Y-106007353D01*
X124788443Y-105985753D01*
X124768885Y-105965806D01*
X124739839Y-105944745D01*
X124717112Y-105930595D01*
X124656138Y-105892151D01*
X124607242Y-105856892D01*
X124568817Y-105823160D01*
X124539257Y-105789296D01*
X124516959Y-105753640D01*
X124500316Y-105714534D01*
X124496363Y-105702457D01*
X124485913Y-105653447D01*
X124481606Y-105597864D01*
X124483464Y-105541620D01*
X124491508Y-105490630D01*
X124495520Y-105475975D01*
X124522564Y-105412779D01*
X124561719Y-105356816D01*
X124612259Y-105308544D01*
X124673458Y-105268422D01*
X124744591Y-105236909D01*
X124824930Y-105214464D01*
X124913750Y-105201547D01*
X124931714Y-105200196D01*
X125035639Y-105197994D01*
X125130181Y-105205218D01*
X125214996Y-105221641D01*
X125289739Y-105247033D01*
X125354065Y-105281167D01*
X125407628Y-105323817D01*
X125450086Y-105374752D01*
X125481092Y-105433747D01*
X125500302Y-105500572D01*
X125507370Y-105575001D01*
X125507401Y-105580543D01*
X125501449Y-105655644D01*
X125483516Y-105722673D01*
X125453488Y-105781790D01*
X125411248Y-105833156D01*
X125356683Y-105876933D01*
X125289677Y-105913281D01*
X125261666Y-105924896D01*
X125214719Y-105944749D01*
X125180390Y-105964068D01*
X125156974Y-105984671D01*
X125142765Y-106008374D01*
X125136059Y-106036996D01*
X125134914Y-106059997D01*
X125140830Y-106105098D01*
X125158427Y-106141830D01*
X125187484Y-106169809D01*
X125204468Y-106179553D01*
X125226502Y-106188702D01*
X125247260Y-106192746D01*
X125273231Y-106192649D01*
X125286213Y-106191694D01*
X125358397Y-106178519D01*
X125428325Y-106152076D01*
X125494675Y-106113579D01*
X125556122Y-106064243D01*
X125611341Y-106005284D01*
X125659008Y-105937916D01*
X125697799Y-105863356D01*
X125724481Y-105789543D01*
X125730144Y-105768709D01*
X125734328Y-105749067D01*
X125737242Y-105727930D01*
X125739094Y-105702609D01*
X125740094Y-105670414D01*
X125740448Y-105628657D01*
X125740400Y-105584172D01*
X125739579Y-105519183D01*
X125737192Y-105465657D01*
X125732650Y-105420575D01*
X125725368Y-105380919D01*
X125714757Y-105343669D01*
X125700229Y-105305807D01*
X125681198Y-105264314D01*
X125676138Y-105253972D01*
X125630413Y-105177579D01*
X125572680Y-105108996D01*
X125503413Y-105048627D01*
X125423086Y-104996875D01*
X125332173Y-104954144D01*
X125317187Y-104948363D01*
X125269458Y-104931538D01*
X125225523Y-104918799D01*
X125182031Y-104909637D01*
X125135634Y-104903541D01*
X125082982Y-104900003D01*
X125020727Y-104898511D01*
X124988798Y-104898372D01*
X124846310Y-104898372D01*
X124873034Y-104865715D01*
X124886833Y-104848838D01*
X124907555Y-104823482D01*
X124932942Y-104792407D01*
X124960737Y-104758377D01*
X124977618Y-104737705D01*
X125055480Y-104642353D01*
X125094697Y-104663594D01*
X125152976Y-104687567D01*
X125219122Y-104701441D01*
X125290289Y-104704904D01*
X125363629Y-104697647D01*
X125379630Y-104694611D01*
X125452635Y-104672316D01*
X125519543Y-104637216D01*
X125579538Y-104590023D01*
X125631802Y-104531449D01*
X125675520Y-104462208D01*
X125696489Y-104417799D01*
X125706035Y-104391259D01*
X125716465Y-104356125D01*
X125726154Y-104318098D01*
X125730395Y-104298900D01*
X125736160Y-104269153D01*
X125740176Y-104242427D01*
X125742644Y-104215298D01*
X125743766Y-104184345D01*
X125743740Y-104146144D01*
X125742769Y-104097272D01*
X125742602Y-104090652D01*
X125739194Y-103957847D01*
X125798097Y-103912429D01*
X125924124Y-103820919D01*
X126047187Y-103743130D01*
X126167929Y-103678724D01*
X126286993Y-103627364D01*
X126405021Y-103588711D01*
X126423057Y-103583889D01*
X126455048Y-103575934D01*
X126482219Y-103570309D01*
X126508385Y-103566620D01*
X126537360Y-103564470D01*
X126572955Y-103563466D01*
X126618986Y-103563213D01*
X126622628Y-103563213D01*
X126670348Y-103563495D01*
X126706933Y-103564524D01*
X126735757Y-103566616D01*
X126760195Y-103570085D01*
X126783619Y-103575246D01*
X126800428Y-103579808D01*
X126895065Y-103614298D01*
X126986669Y-103662790D01*
X127074792Y-103725005D01*
X127158984Y-103800663D01*
X127165824Y-103807582D01*
X127242555Y-103894606D01*
X127309505Y-103989377D01*
X127367044Y-104092709D01*
X127415539Y-104205411D01*
X127455359Y-104328297D01*
X127486872Y-104462178D01*
X127501908Y-104547875D01*
X127508304Y-104600344D01*
X127513291Y-104664457D01*
X127516851Y-104737413D01*
X127518970Y-104816408D01*
X127519633Y-104898641D01*
X127518823Y-104981309D01*
X127516527Y-105061609D01*
X127512727Y-105136739D01*
X127507410Y-105203896D01*
X127505600Y-105221315D01*
X127477761Y-105429379D01*
X127439411Y-105644441D01*
X127390431Y-105867009D01*
X127330702Y-106097595D01*
X127260104Y-106336708D01*
X127205477Y-106505487D01*
X127130691Y-106719816D01*
X127047385Y-106941863D01*
X126956828Y-107168627D01*
X126860287Y-107397107D01*
X126759029Y-107624304D01*
X126654324Y-107847216D01*
X126547437Y-108062843D01*
X126547361Y-108062992D01*
X126524860Y-108107310D01*
X126504866Y-108147035D01*
X126488231Y-108180448D01*
X126475807Y-108205827D01*
X126468446Y-108221448D01*
X126466794Y-108225772D01*
X126472126Y-108219498D01*
X126483235Y-108201564D01*
X126499426Y-108173304D01*
X126520006Y-108136049D01*
X126544281Y-108091132D01*
X126571557Y-108039886D01*
X126601139Y-107983643D01*
X126632335Y-107923737D01*
X126664449Y-107861498D01*
X126696789Y-107798260D01*
X126728659Y-107735356D01*
X126759367Y-107674118D01*
X126788217Y-107615879D01*
X126814516Y-107561971D01*
X126837172Y-107514572D01*
X126965794Y-107233339D01*
X127082766Y-106959679D01*
X127188058Y-106693682D01*
X127281642Y-106435437D01*
X127363488Y-106185036D01*
X127433569Y-105942569D01*
X127491855Y-105708125D01*
X127538316Y-105481795D01*
X127572924Y-105263670D01*
X127581314Y-105197120D01*
X127585253Y-105157159D01*
X127588919Y-105107584D01*
X127592232Y-105050974D01*
X127595111Y-104989912D01*
X127597474Y-104926976D01*
X127599240Y-104864748D01*
X127600328Y-104805808D01*
X127600657Y-104752735D01*
X127600145Y-104708112D01*
X127598712Y-104674517D01*
X127598009Y-104666143D01*
X127587689Y-104571931D01*
X127576765Y-104489718D01*
X127564798Y-104416989D01*
X127551350Y-104351229D01*
X127535980Y-104289924D01*
X127526736Y-104257816D01*
X127484689Y-104137747D01*
X127433284Y-104024897D01*
X127373280Y-103920019D01*
X127305432Y-103823870D01*
X127230497Y-103737205D01*
X127149233Y-103660777D01*
X127062395Y-103595344D01*
X126970742Y-103541659D01*
X126875028Y-103500478D01*
X126776013Y-103472555D01*
X126731825Y-103464698D01*
X126684400Y-103460307D01*
X126627636Y-103459031D01*
X126566321Y-103460659D01*
X126505246Y-103464981D01*
X126449199Y-103471785D01*
X126411622Y-103478779D01*
X126309833Y-103507148D01*
X126202580Y-103546835D01*
X126091995Y-103596787D01*
X125980212Y-103655956D01*
X125869364Y-103723292D01*
X125761584Y-103797744D01*
X125757478Y-103800773D01*
X125701675Y-103842040D01*
X125679231Y-103796449D01*
X125638906Y-103730448D01*
X125586988Y-103671213D01*
X125527895Y-103622725D01*
X125527895Y-104144923D01*
X125523205Y-104173305D01*
X125518584Y-104195646D01*
X125511355Y-104224782D01*
X125504678Y-104248858D01*
X125483136Y-104301265D01*
X125452648Y-104344697D01*
X125414728Y-104377877D01*
X125370888Y-104399527D01*
X125322642Y-104408371D01*
X125315514Y-104408515D01*
X125292794Y-104407839D01*
X125277302Y-104406087D01*
X125272800Y-104404136D01*
X125277672Y-104396891D01*
X125291104Y-104381302D01*
X125311323Y-104359218D01*
X125336555Y-104332487D01*
X125365025Y-104302956D01*
X125394959Y-104272472D01*
X125424583Y-104242884D01*
X125452122Y-104216039D01*
X125466570Y-104202333D01*
X125527895Y-104144923D01*
X125527895Y-103622725D01*
X125525638Y-103620873D01*
X125465146Y-103585420D01*
X125414794Y-103564636D01*
X125365837Y-103551421D01*
X125321877Y-103546581D01*
X125298890Y-103548113D01*
X125259641Y-103560562D01*
X125227937Y-103582737D01*
X125204560Y-103612144D01*
X125190289Y-103646291D01*
X125185904Y-103682683D01*
X125192185Y-103718826D01*
X125209912Y-103752228D01*
X125228839Y-103772049D01*
X125244566Y-103782867D01*
X125269972Y-103797672D01*
X125301502Y-103814487D01*
X125334457Y-103830793D01*
X125389209Y-103859388D01*
X125431672Y-103887777D01*
X125463937Y-103917708D01*
X125488099Y-103950925D01*
X125495928Y-103965452D01*
X125511887Y-103997732D01*
X125455843Y-104048512D01*
X125433427Y-104069258D01*
X125403260Y-104097805D01*
X125367883Y-104131714D01*
X125329835Y-104168550D01*
X125291656Y-104205875D01*
X125283278Y-104214120D01*
X125166755Y-104328947D01*
X125153604Y-104301602D01*
X125144410Y-104281573D01*
X125136022Y-104260847D01*
X125127727Y-104237128D01*
X125118814Y-104208117D01*
X125108571Y-104171519D01*
X125096284Y-104125035D01*
X125083800Y-104076416D01*
X125059270Y-103985719D01*
X125035016Y-103908068D01*
X125010372Y-103842022D01*
X124984674Y-103786145D01*
X124957258Y-103738997D01*
X124927459Y-103699138D01*
X124894613Y-103665132D01*
X124893302Y-103663942D01*
X124838298Y-103623617D01*
X124777046Y-103595188D01*
X124711609Y-103578649D01*
X124644050Y-103573994D01*
X124576430Y-103581220D01*
X124510812Y-103600321D01*
X124449260Y-103631292D01*
X124403743Y-103665124D01*
X124353782Y-103718401D01*
X124312859Y-103782707D01*
X124281133Y-103857592D01*
X124258761Y-103942605D01*
X124245901Y-104037295D01*
X124242568Y-104125486D01*
X124245052Y-104200899D01*
X124252526Y-104266405D01*
X124265632Y-104325942D01*
X124284138Y-104381222D01*
X124309472Y-104438204D01*
X124338387Y-104485712D01*
X124374237Y-104528781D01*
X124398268Y-104552534D01*
X124442629Y-104589843D01*
X124484432Y-104615316D01*
X124526947Y-104630409D01*
X124573441Y-104636582D01*
X124587500Y-104636910D01*
X124618480Y-104636441D01*
X124639840Y-104634049D01*
X124656451Y-104628650D01*
X124673183Y-104619160D01*
X124676257Y-104617149D01*
X124706344Y-104589837D01*
X124726046Y-104556387D01*
X124735144Y-104519695D01*
X124733418Y-104482660D01*
X124720652Y-104448181D01*
X124696626Y-104419155D01*
X124691486Y-104415031D01*
X124672798Y-104402245D01*
X124646662Y-104385996D01*
X124618455Y-104369616D01*
X124616028Y-104368266D01*
X124572789Y-104340987D01*
X124533986Y-104310223D01*
X124502678Y-104278700D01*
X124481923Y-104249145D01*
X124481483Y-104248293D01*
X124466071Y-104206022D01*
X124457104Y-104155002D01*
X124454680Y-104099537D01*
X124458899Y-104043932D01*
X124469858Y-103992491D01*
X124475241Y-103976436D01*
X124496503Y-103934184D01*
X124525152Y-103898347D01*
X124558725Y-103871028D01*
X124594759Y-103854331D01*
X124623286Y-103850033D01*
X124658787Y-103856749D01*
X124693816Y-103875463D01*
X124724659Y-103904025D01*
X124731420Y-103912642D01*
X124746752Y-103936313D01*
X124761128Y-103964764D01*
X124775238Y-103999894D01*
X124789771Y-104043600D01*
X124805414Y-104097781D01*
X124822856Y-104164334D01*
X124823126Y-104165400D01*
X124845389Y-104250189D01*
X124866199Y-104322315D01*
X124886151Y-104383489D01*
X124905843Y-104435416D01*
X124925868Y-104479805D01*
X124945376Y-104515927D01*
X124966592Y-104551908D01*
X124879114Y-104656197D01*
X124843414Y-104699175D01*
X124803502Y-104747906D01*
X124763309Y-104797552D01*
X124726761Y-104843275D01*
X124711938Y-104862063D01*
X124682440Y-104899343D01*
X124659548Y-104927156D01*
X124641110Y-104947613D01*
X124624980Y-104962823D01*
X124609007Y-104974897D01*
X124591043Y-104985944D01*
X124578905Y-104992691D01*
X124498924Y-105043924D01*
X124429454Y-105104938D01*
X124369975Y-105176276D01*
X124319967Y-105258480D01*
X124314884Y-105268486D01*
X124295004Y-105312210D01*
X124277380Y-105358224D01*
X124263165Y-105402867D01*
X124253513Y-105442477D01*
X124249577Y-105473392D01*
X124249543Y-105475862D01*
X124245067Y-105491725D01*
X124231957Y-105518009D01*
X124210687Y-105553837D01*
X124190373Y-105585372D01*
X123962679Y-105940412D01*
X123741340Y-106306714D01*
X123527632Y-106681945D01*
X123322833Y-107063771D01*
X123128217Y-107449858D01*
X122945062Y-107837873D01*
X122881534Y-107979029D01*
X122772500Y-108230121D01*
X122672736Y-108471704D01*
X122581791Y-108705043D01*
X122499213Y-108931404D01*
X122424549Y-109152054D01*
X122357347Y-109368259D01*
X122297155Y-109581284D01*
X122264919Y-109705307D01*
X122255888Y-109742049D01*
X122248566Y-109773487D01*
X122243507Y-109797096D01*
X122241270Y-109810350D01*
X122241345Y-109812279D01*
X122248257Y-109809876D01*
X122267385Y-109802074D01*
X122297665Y-109789331D01*
X122338032Y-109772106D01*
X122387424Y-109750859D01*
X122444775Y-109726046D01*
X122509023Y-109698129D01*
X122579103Y-109667564D01*
X122653951Y-109634812D01*
X122714599Y-109608199D01*
X122792403Y-109574062D01*
X122866252Y-109541745D01*
X122935085Y-109511708D01*
X122997838Y-109484411D01*
X123053448Y-109460315D01*
X123100853Y-109439877D01*
X123138991Y-109423559D01*
X123166797Y-109411820D01*
X123183210Y-109405119D01*
X123187417Y-109403684D01*
X123184117Y-109410119D01*
X123173983Y-109428535D01*
X123157372Y-109458305D01*
X123134638Y-109498801D01*
X123106138Y-109549395D01*
X123072226Y-109609460D01*
X123033258Y-109678369D01*
X122989590Y-109755493D01*
X122941577Y-109840204D01*
X122889574Y-109931876D01*
X122833938Y-110029881D01*
X122775023Y-110133591D01*
X122713186Y-110242378D01*
X122648781Y-110355616D01*
X122582164Y-110472675D01*
X122536974Y-110552045D01*
X122469101Y-110671307D01*
X122403234Y-110787185D01*
X122339729Y-110899050D01*
X122278938Y-111006274D01*
X122221216Y-111108226D01*
X122166918Y-111204279D01*
X122116395Y-111293804D01*
X122070004Y-111376172D01*
X122028097Y-111450753D01*
X121991028Y-111516919D01*
X121959152Y-111574041D01*
X121932823Y-111621491D01*
X121912393Y-111658639D01*
X121898218Y-111684857D01*
X121890651Y-111699515D01*
X121889450Y-111702553D01*
X121897630Y-111705701D01*
X121917757Y-111712138D01*
X121947799Y-111721255D01*
X121985724Y-111732439D01*
X122029499Y-111745080D01*
X122055813Y-111752569D01*
X122107708Y-111767384D01*
X122147127Y-111779010D01*
X122175609Y-111788018D01*
X122194696Y-111794984D01*
X122205929Y-111800482D01*
X122210849Y-111805085D01*
X122210995Y-111809368D01*
X122210587Y-111810237D01*
X122206380Y-111819186D01*
X122196741Y-111840364D01*
X122182063Y-111872885D01*
X122162743Y-111915861D01*
X122139176Y-111968406D01*
X122111756Y-112029633D01*
X122080878Y-112098655D01*
X122046938Y-112174586D01*
X122010331Y-112256538D01*
X121971452Y-112343624D01*
X121930695Y-112434959D01*
X121888457Y-112529654D01*
X121845132Y-112626824D01*
X121801114Y-112725581D01*
X121756800Y-112825039D01*
X121712585Y-112924311D01*
X121668862Y-113022509D01*
X121626028Y-113118748D01*
X121584478Y-113212140D01*
X121544606Y-113301799D01*
X121506807Y-113386837D01*
X121471478Y-113466368D01*
X121439012Y-113539505D01*
X121409805Y-113605362D01*
X121384252Y-113663051D01*
X121362748Y-113711686D01*
X121345689Y-113750379D01*
X121333468Y-113778244D01*
X121326482Y-113794395D01*
X121324914Y-113798280D01*
X121331807Y-113800271D01*
G36*
X124267909Y-107427486D02*
G01*
X124268008Y-107510673D01*
X124268221Y-107580702D01*
X124268590Y-107638930D01*
X124269159Y-107686712D01*
X124269969Y-107725406D01*
X124271064Y-107756366D01*
X124272485Y-107780950D01*
X124274276Y-107800513D01*
X124276479Y-107816413D01*
X124279136Y-107830004D01*
X124280756Y-107836786D01*
X124306382Y-107911911D01*
X124342851Y-107978422D01*
X124389411Y-108035447D01*
X124445311Y-108082113D01*
X124509797Y-108117546D01*
X124529528Y-108125424D01*
X124550206Y-108132205D01*
X124571129Y-108136790D01*
X124595873Y-108139584D01*
X124628015Y-108140994D01*
X124670457Y-108141425D01*
X124712192Y-108141204D01*
X124742970Y-108140090D01*
X124766341Y-108137659D01*
X124785857Y-108133484D01*
X124805066Y-108127143D01*
X124811971Y-108124491D01*
X124854556Y-108105752D01*
X124888865Y-108085139D01*
X124920675Y-108058734D01*
X124944924Y-108034308D01*
X124971543Y-108000693D01*
X124998450Y-107957415D01*
X125023251Y-107909078D01*
X125043555Y-107860284D01*
X125055606Y-107821418D01*
X125064968Y-107783549D01*
X125088519Y-107817789D01*
X125136089Y-107877022D01*
X125196862Y-107936164D01*
X125269556Y-107994203D01*
X125352888Y-108050126D01*
X125445576Y-108102923D01*
X125458164Y-108109463D01*
X125519625Y-108138955D01*
X125570661Y-108158845D01*
X125611632Y-108169241D01*
X125642901Y-108170252D01*
X125653119Y-108167939D01*
X125692113Y-108148287D01*
X125720575Y-108118821D01*
X125738153Y-108080070D01*
X125744498Y-108032566D01*
X125744514Y-108029829D01*
X125739309Y-107983901D01*
X125722674Y-107944886D01*
X125693079Y-107909221D01*
X125692536Y-107908700D01*
X125680242Y-107899123D01*
X125657254Y-107883301D01*
X125625362Y-107862385D01*
X125586358Y-107837527D01*
X125542035Y-107809880D01*
X125494183Y-107780596D01*
X125479628Y-107771797D01*
X125401675Y-107724465D01*
X125335400Y-107683166D01*
X125279833Y-107646816D01*
X125234001Y-107614333D01*
X125196932Y-107584634D01*
X125167654Y-107556636D01*
X125145195Y-107529257D01*
X125128584Y-107501415D01*
X125116848Y-107472026D01*
X125109015Y-107440008D01*
X125104114Y-107404278D01*
X125101173Y-107363754D01*
X125100481Y-107349472D01*
X125096517Y-107260572D01*
X125335244Y-107260530D01*
X125394893Y-107260306D01*
X125451775Y-107259691D01*
X125503766Y-107258739D01*
X125548740Y-107257502D01*
X125584575Y-107256034D01*
X125609145Y-107254388D01*
X125616870Y-107253463D01*
X125664722Y-107240060D01*
X125701417Y-107217398D01*
X125726880Y-107185561D01*
X125741040Y-107144634D01*
X125744193Y-107106647D01*
X125739845Y-107062777D01*
X125729805Y-107034370D01*
X125704718Y-107001873D01*
X125668367Y-106978290D01*
X125650903Y-106971396D01*
X125637703Y-106969329D01*
X125612220Y-106967533D01*
X125576130Y-106966008D01*
X125531112Y-106964752D01*
X125478844Y-106963762D01*
X125421004Y-106963039D01*
X125359270Y-106962580D01*
X125295319Y-106962383D01*
X125230831Y-106962447D01*
X125167482Y-106962771D01*
X125106951Y-106963352D01*
X125050915Y-106964190D01*
X125001053Y-106965283D01*
X124959044Y-106966628D01*
X124926563Y-106968226D01*
X124905291Y-106970073D01*
X124896954Y-106972100D01*
X124894916Y-106981819D01*
X124893016Y-107005588D01*
X124891270Y-107042944D01*
X124889691Y-107093423D01*
X124888295Y-107156563D01*
X124887096Y-107231899D01*
X124886218Y-107307743D01*
X124885347Y-107388374D01*
X124884431Y-107455868D01*
X124883412Y-107511602D01*
X124882236Y-107556953D01*
X124880845Y-107593299D01*
X124879185Y-107622017D01*
X124877199Y-107644483D01*
X124874832Y-107662076D01*
X124872027Y-107676172D01*
X124871098Y-107679900D01*
X124852336Y-107736091D01*
X124828235Y-107779309D01*
X124797787Y-107810437D01*
X124759985Y-107830355D01*
X124713819Y-107839945D01*
X124686629Y-107841143D01*
X124633206Y-107834951D01*
X124587559Y-107816547D01*
X124550038Y-107786189D01*
X124520991Y-107744135D01*
X124505768Y-107707513D01*
X124502885Y-107697197D01*
X124500449Y-107684355D01*
X124498408Y-107667664D01*
X124496709Y-107645802D01*
X124495302Y-107617448D01*
X124494133Y-107581280D01*
X124493152Y-107535976D01*
X124492305Y-107480215D01*
X124491541Y-107412674D01*
X124490807Y-107332031D01*
X124490757Y-107325945D01*
X124489844Y-107235474D01*
X124488721Y-107157841D01*
X124487395Y-107093326D01*
X124485875Y-107042210D01*
X124484169Y-107004776D01*
X124482286Y-106981303D01*
X124480314Y-106972159D01*
X124468118Y-106966547D01*
X124446039Y-106963643D01*
X124418442Y-106963378D01*
X124389690Y-106965681D01*
X124364148Y-106970485D01*
X124352989Y-106974191D01*
X124323261Y-106989912D01*
X124301331Y-107010727D01*
X124283242Y-107039229D01*
X124279715Y-107046126D01*
X124276768Y-107053373D01*
X124274347Y-107062260D01*
X124272404Y-107074075D01*
X124270886Y-107090109D01*
X124269744Y-107111650D01*
X124268925Y-107139987D01*
X124268380Y-107176411D01*
X124268056Y-107222210D01*
X124267904Y-107278674D01*
X124267872Y-107347091D01*
X124267909Y-107427486D01*
G37*
X124267909Y-107427486D02*
X124268008Y-107510673D01*
X124268221Y-107580702D01*
X124268590Y-107638930D01*
X124269159Y-107686712D01*
X124269969Y-107725406D01*
X124271064Y-107756366D01*
X124272485Y-107780950D01*
X124274276Y-107800513D01*
X124276479Y-107816413D01*
X124279136Y-107830004D01*
X124280756Y-107836786D01*
X124306382Y-107911911D01*
X124342851Y-107978422D01*
X124389411Y-108035447D01*
X124445311Y-108082113D01*
X124509797Y-108117546D01*
X124529528Y-108125424D01*
X124550206Y-108132205D01*
X124571129Y-108136790D01*
X124595873Y-108139584D01*
X124628015Y-108140994D01*
X124670457Y-108141425D01*
X124712192Y-108141204D01*
X124742970Y-108140090D01*
X124766341Y-108137659D01*
X124785857Y-108133484D01*
X124805066Y-108127143D01*
X124811971Y-108124491D01*
X124854556Y-108105752D01*
X124888865Y-108085139D01*
X124920675Y-108058734D01*
X124944924Y-108034308D01*
X124971543Y-108000693D01*
X124998450Y-107957415D01*
X125023251Y-107909078D01*
X125043555Y-107860284D01*
X125055606Y-107821418D01*
X125064968Y-107783549D01*
X125088519Y-107817789D01*
X125136089Y-107877022D01*
X125196862Y-107936164D01*
X125269556Y-107994203D01*
X125352888Y-108050126D01*
X125445576Y-108102923D01*
X125458164Y-108109463D01*
X125519625Y-108138955D01*
X125570661Y-108158845D01*
X125611632Y-108169241D01*
X125642901Y-108170252D01*
X125653119Y-108167939D01*
X125692113Y-108148287D01*
X125720575Y-108118821D01*
X125738153Y-108080070D01*
X125744498Y-108032566D01*
X125744514Y-108029829D01*
X125739309Y-107983901D01*
X125722674Y-107944886D01*
X125693079Y-107909221D01*
X125692536Y-107908700D01*
X125680242Y-107899123D01*
X125657254Y-107883301D01*
X125625362Y-107862385D01*
X125586358Y-107837527D01*
X125542035Y-107809880D01*
X125494183Y-107780596D01*
X125479628Y-107771797D01*
X125401675Y-107724465D01*
X125335400Y-107683166D01*
X125279833Y-107646816D01*
X125234001Y-107614333D01*
X125196932Y-107584634D01*
X125167654Y-107556636D01*
X125145195Y-107529257D01*
X125128584Y-107501415D01*
X125116848Y-107472026D01*
X125109015Y-107440008D01*
X125104114Y-107404278D01*
X125101173Y-107363754D01*
X125100481Y-107349472D01*
X125096517Y-107260572D01*
X125335244Y-107260530D01*
X125394893Y-107260306D01*
X125451775Y-107259691D01*
X125503766Y-107258739D01*
X125548740Y-107257502D01*
X125584575Y-107256034D01*
X125609145Y-107254388D01*
X125616870Y-107253463D01*
X125664722Y-107240060D01*
X125701417Y-107217398D01*
X125726880Y-107185561D01*
X125741040Y-107144634D01*
X125744193Y-107106647D01*
X125739845Y-107062777D01*
X125729805Y-107034370D01*
X125704718Y-107001873D01*
X125668367Y-106978290D01*
X125650903Y-106971396D01*
X125637703Y-106969329D01*
X125612220Y-106967533D01*
X125576130Y-106966008D01*
X125531112Y-106964752D01*
X125478844Y-106963762D01*
X125421004Y-106963039D01*
X125359270Y-106962580D01*
X125295319Y-106962383D01*
X125230831Y-106962447D01*
X125167482Y-106962771D01*
X125106951Y-106963352D01*
X125050915Y-106964190D01*
X125001053Y-106965283D01*
X124959044Y-106966628D01*
X124926563Y-106968226D01*
X124905291Y-106970073D01*
X124896954Y-106972100D01*
X124894916Y-106981819D01*
X124893016Y-107005588D01*
X124891270Y-107042944D01*
X124889691Y-107093423D01*
X124888295Y-107156563D01*
X124887096Y-107231899D01*
X124886218Y-107307743D01*
X124885347Y-107388374D01*
X124884431Y-107455868D01*
X124883412Y-107511602D01*
X124882236Y-107556953D01*
X124880845Y-107593299D01*
X124879185Y-107622017D01*
X124877199Y-107644483D01*
X124874832Y-107662076D01*
X124872027Y-107676172D01*
X124871098Y-107679900D01*
X124852336Y-107736091D01*
X124828235Y-107779309D01*
X124797787Y-107810437D01*
X124759985Y-107830355D01*
X124713819Y-107839945D01*
X124686629Y-107841143D01*
X124633206Y-107834951D01*
X124587559Y-107816547D01*
X124550038Y-107786189D01*
X124520991Y-107744135D01*
X124505768Y-107707513D01*
X124502885Y-107697197D01*
X124500449Y-107684355D01*
X124498408Y-107667664D01*
X124496709Y-107645802D01*
X124495302Y-107617448D01*
X124494133Y-107581280D01*
X124493152Y-107535976D01*
X124492305Y-107480215D01*
X124491541Y-107412674D01*
X124490807Y-107332031D01*
X124490757Y-107325945D01*
X124489844Y-107235474D01*
X124488721Y-107157841D01*
X124487395Y-107093326D01*
X124485875Y-107042210D01*
X124484169Y-107004776D01*
X124482286Y-106981303D01*
X124480314Y-106972159D01*
X124468118Y-106966547D01*
X124446039Y-106963643D01*
X124418442Y-106963378D01*
X124389690Y-106965681D01*
X124364148Y-106970485D01*
X124352989Y-106974191D01*
X124323261Y-106989912D01*
X124301331Y-107010727D01*
X124283242Y-107039229D01*
X124279715Y-107046126D01*
X124276768Y-107053373D01*
X124274347Y-107062260D01*
X124272404Y-107074075D01*
X124270886Y-107090109D01*
X124269744Y-107111650D01*
X124268925Y-107139987D01*
X124268380Y-107176411D01*
X124268056Y-107222210D01*
X124267904Y-107278674D01*
X124267872Y-107347091D01*
X124267909Y-107427486D01*
G36*
X124244524Y-109107515D02*
G01*
X124248731Y-109177543D01*
X124256204Y-109237491D01*
X124267955Y-109291617D01*
X124285000Y-109344179D01*
X124308349Y-109399436D01*
X124319600Y-109423080D01*
X124337058Y-109457956D01*
X124352164Y-109484977D01*
X124367661Y-109507907D01*
X124386292Y-109530506D01*
X124410800Y-109556537D01*
X124433720Y-109579611D01*
X124464911Y-109610165D01*
X124490003Y-109632898D01*
X124512813Y-109650590D01*
X124537157Y-109666017D01*
X124566853Y-109681959D01*
X124590628Y-109693812D01*
X124658408Y-109724146D01*
X124724368Y-109746998D01*
X124791983Y-109763100D01*
X124864728Y-109773183D01*
X124946076Y-109777979D01*
X124993400Y-109778627D01*
X125107275Y-109773743D01*
X125211293Y-109758642D01*
X125306169Y-109733055D01*
X125392613Y-109696714D01*
X125471340Y-109649350D01*
X125543062Y-109590694D01*
X125574003Y-109559736D01*
X125629451Y-109492113D01*
X125673510Y-109418772D01*
X125706542Y-109338650D01*
X125728911Y-109250686D01*
X125740981Y-109153816D01*
X125743427Y-109064835D01*
X125742822Y-109025799D01*
X125741924Y-108990283D01*
X125740842Y-108961656D01*
X125739686Y-108943292D01*
X125739385Y-108940600D01*
X125725854Y-108871788D01*
X125704353Y-108800304D01*
X125676709Y-108731031D01*
X125644747Y-108668850D01*
X125627618Y-108641800D01*
X125570571Y-108570802D01*
X125503416Y-108509631D01*
X125425868Y-108458111D01*
X125337645Y-108416063D01*
X125238461Y-108383310D01*
X125200228Y-108373807D01*
X125167656Y-108368341D01*
X125124222Y-108363892D01*
X125073550Y-108360572D01*
X125019264Y-108358494D01*
X124986143Y-108358051D01*
X124986143Y-108659312D01*
X125049634Y-108660408D01*
X125103046Y-108664358D01*
X125150651Y-108671844D01*
X125196720Y-108683547D01*
X125245525Y-108700149D01*
X125248049Y-108701096D01*
X125317756Y-108734441D01*
X125377684Y-108777624D01*
X125427166Y-108829350D01*
X125465534Y-108888325D01*
X125492122Y-108953255D01*
X125506263Y-109022845D01*
X125507290Y-109095800D01*
X125494534Y-109170827D01*
X125493016Y-109176458D01*
X125467022Y-109244533D01*
X125429168Y-109304572D01*
X125379871Y-109356280D01*
X125319549Y-109399361D01*
X125248620Y-109433521D01*
X125167501Y-109458463D01*
X125076610Y-109473893D01*
X125071622Y-109474430D01*
X124983150Y-109478719D01*
X124897047Y-109473288D01*
X124815214Y-109458656D01*
X124739548Y-109435339D01*
X124671949Y-109403855D01*
X124614315Y-109364723D01*
X124590650Y-109343278D01*
X124544599Y-109287673D01*
X124511286Y-109225682D01*
X124490512Y-109156799D01*
X124482080Y-109080515D01*
X124481857Y-109064261D01*
X124487363Y-108989136D01*
X124504029Y-108922521D01*
X124532392Y-108863037D01*
X124572988Y-108809303D01*
X124586500Y-108795219D01*
X124641604Y-108749791D01*
X124707085Y-108713016D01*
X124783822Y-108684425D01*
X124806610Y-108678041D01*
X124837959Y-108670356D01*
X124866005Y-108665079D01*
X124894910Y-108661776D01*
X124928837Y-108660013D01*
X124971947Y-108659356D01*
X124986143Y-108659312D01*
X124986143Y-108358051D01*
X124964990Y-108357767D01*
X124914350Y-108358505D01*
X124870970Y-108360818D01*
X124849848Y-108363020D01*
X124746111Y-108383081D01*
X124650352Y-108414288D01*
X124563173Y-108456176D01*
X124485179Y-108508280D01*
X124416976Y-108570137D01*
X124359168Y-108641281D01*
X124312358Y-108721248D01*
X124279885Y-108801124D01*
X124262599Y-108861552D01*
X124251036Y-108922688D01*
X124244768Y-108988245D01*
X124243367Y-109061932D01*
X124244524Y-109107515D01*
G37*
X124244524Y-109107515D02*
X124248731Y-109177543D01*
X124256204Y-109237491D01*
X124267955Y-109291617D01*
X124285000Y-109344179D01*
X124308349Y-109399436D01*
X124319600Y-109423080D01*
X124337058Y-109457956D01*
X124352164Y-109484977D01*
X124367661Y-109507907D01*
X124386292Y-109530506D01*
X124410800Y-109556537D01*
X124433720Y-109579611D01*
X124464911Y-109610165D01*
X124490003Y-109632898D01*
X124512813Y-109650590D01*
X124537157Y-109666017D01*
X124566853Y-109681959D01*
X124590628Y-109693812D01*
X124658408Y-109724146D01*
X124724368Y-109746998D01*
X124791983Y-109763100D01*
X124864728Y-109773183D01*
X124946076Y-109777979D01*
X124993400Y-109778627D01*
X125107275Y-109773743D01*
X125211293Y-109758642D01*
X125306169Y-109733055D01*
X125392613Y-109696714D01*
X125471340Y-109649350D01*
X125543062Y-109590694D01*
X125574003Y-109559736D01*
X125629451Y-109492113D01*
X125673510Y-109418772D01*
X125706542Y-109338650D01*
X125728911Y-109250686D01*
X125740981Y-109153816D01*
X125743427Y-109064835D01*
X125742822Y-109025799D01*
X125741924Y-108990283D01*
X125740842Y-108961656D01*
X125739686Y-108943292D01*
X125739385Y-108940600D01*
X125725854Y-108871788D01*
X125704353Y-108800304D01*
X125676709Y-108731031D01*
X125644747Y-108668850D01*
X125627618Y-108641800D01*
X125570571Y-108570802D01*
X125503416Y-108509631D01*
X125425868Y-108458111D01*
X125337645Y-108416063D01*
X125238461Y-108383310D01*
X125200228Y-108373807D01*
X125167656Y-108368341D01*
X125124222Y-108363892D01*
X125073550Y-108360572D01*
X125019264Y-108358494D01*
X124986143Y-108358051D01*
X124986143Y-108659312D01*
X125049634Y-108660408D01*
X125103046Y-108664358D01*
X125150651Y-108671844D01*
X125196720Y-108683547D01*
X125245525Y-108700149D01*
X125248049Y-108701096D01*
X125317756Y-108734441D01*
X125377684Y-108777624D01*
X125427166Y-108829350D01*
X125465534Y-108888325D01*
X125492122Y-108953255D01*
X125506263Y-109022845D01*
X125507290Y-109095800D01*
X125494534Y-109170827D01*
X125493016Y-109176458D01*
X125467022Y-109244533D01*
X125429168Y-109304572D01*
X125379871Y-109356280D01*
X125319549Y-109399361D01*
X125248620Y-109433521D01*
X125167501Y-109458463D01*
X125076610Y-109473893D01*
X125071622Y-109474430D01*
X124983150Y-109478719D01*
X124897047Y-109473288D01*
X124815214Y-109458656D01*
X124739548Y-109435339D01*
X124671949Y-109403855D01*
X124614315Y-109364723D01*
X124590650Y-109343278D01*
X124544599Y-109287673D01*
X124511286Y-109225682D01*
X124490512Y-109156799D01*
X124482080Y-109080515D01*
X124481857Y-109064261D01*
X124487363Y-108989136D01*
X124504029Y-108922521D01*
X124532392Y-108863037D01*
X124572988Y-108809303D01*
X124586500Y-108795219D01*
X124641604Y-108749791D01*
X124707085Y-108713016D01*
X124783822Y-108684425D01*
X124806610Y-108678041D01*
X124837959Y-108670356D01*
X124866005Y-108665079D01*
X124894910Y-108661776D01*
X124928837Y-108660013D01*
X124971947Y-108659356D01*
X124986143Y-108659312D01*
X124986143Y-108358051D01*
X124964990Y-108357767D01*
X124914350Y-108358505D01*
X124870970Y-108360818D01*
X124849848Y-108363020D01*
X124746111Y-108383081D01*
X124650352Y-108414288D01*
X124563173Y-108456176D01*
X124485179Y-108508280D01*
X124416976Y-108570137D01*
X124359168Y-108641281D01*
X124312358Y-108721248D01*
X124279885Y-108801124D01*
X124262599Y-108861552D01*
X124251036Y-108922688D01*
X124244768Y-108988245D01*
X124243367Y-109061932D01*
X124244524Y-109107515D01*
G36*
X124244312Y-112205571D02*
G01*
X124248781Y-112258540D01*
X124249340Y-112262822D01*
X124269399Y-112363345D01*
X124300971Y-112455294D01*
X124343642Y-112538363D01*
X124396995Y-112612246D01*
X124460617Y-112676636D01*
X124534090Y-112731226D01*
X124616999Y-112775711D01*
X124708929Y-112809783D01*
X124809464Y-112833137D01*
X124918189Y-112845466D01*
X125034688Y-112846464D01*
X125040571Y-112846217D01*
X125150186Y-112836507D01*
X125249498Y-112817306D01*
X125339514Y-112788222D01*
X125421239Y-112748863D01*
X125495678Y-112698839D01*
X125556271Y-112645372D01*
X125611577Y-112583722D01*
X125656166Y-112518208D01*
X125691764Y-112445779D01*
X125720096Y-112363381D01*
X125724250Y-112348403D01*
X125730849Y-112314829D01*
X125736096Y-112270326D01*
X125739897Y-112218428D01*
X125742158Y-112162664D01*
X125742787Y-112106567D01*
X125741689Y-112053667D01*
X125738772Y-112007498D01*
X125734200Y-111972936D01*
X125708971Y-111874780D01*
X125672360Y-111785483D01*
X125624681Y-111705308D01*
X125566245Y-111634517D01*
X125497366Y-111573375D01*
X125418357Y-111522144D01*
X125329531Y-111481088D01*
X125231202Y-111450469D01*
X125123682Y-111430550D01*
X125083568Y-111426122D01*
X124969790Y-111421604D01*
X124969790Y-111728167D01*
X124997028Y-111728229D01*
X125062850Y-111729785D01*
X125117968Y-111734184D01*
X125166032Y-111742124D01*
X125210695Y-111754304D01*
X125255607Y-111771422D01*
X125279952Y-111782356D01*
X125347734Y-111821273D01*
X125404111Y-111868831D01*
X125448691Y-111924214D01*
X125481080Y-111986610D01*
X125500885Y-112055201D01*
X125507713Y-112129174D01*
X125501170Y-112207713D01*
X125496660Y-112231486D01*
X125476336Y-112293208D01*
X125443280Y-112351502D01*
X125399215Y-112404295D01*
X125345858Y-112449510D01*
X125287314Y-112483949D01*
X125246104Y-112502671D01*
X125209308Y-112516806D01*
X125173687Y-112526964D01*
X125136002Y-112533755D01*
X125093013Y-112537792D01*
X125041480Y-112539684D01*
X124989771Y-112540064D01*
X124940040Y-112539841D01*
X124901826Y-112539065D01*
X124872135Y-112537474D01*
X124847970Y-112534807D01*
X124826339Y-112530803D01*
X124804246Y-112525200D01*
X124797457Y-112523277D01*
X124716966Y-112494062D01*
X124647867Y-112456071D01*
X124590272Y-112409406D01*
X124544289Y-112354169D01*
X124510030Y-112290464D01*
X124492478Y-112238643D01*
X124485769Y-112200738D01*
X124482564Y-112154415D01*
X124482852Y-112105339D01*
X124486623Y-112059174D01*
X124492883Y-112025188D01*
X124517514Y-111958245D01*
X124554377Y-111898813D01*
X124603086Y-111847232D01*
X124663254Y-111803842D01*
X124734494Y-111768985D01*
X124812265Y-111744035D01*
X124840143Y-111737553D01*
X124866239Y-111733033D01*
X124894148Y-111730167D01*
X124927466Y-111728648D01*
X124969790Y-111728167D01*
X124969790Y-111421604D01*
X124969342Y-111421586D01*
X124859444Y-111429142D01*
X124754925Y-111448505D01*
X124656835Y-111479389D01*
X124566224Y-111521510D01*
X124484142Y-111574584D01*
X124457396Y-111595885D01*
X124408644Y-111644297D01*
X124363033Y-111703853D01*
X124322550Y-111771226D01*
X124289181Y-111843091D01*
X124264912Y-111916124D01*
X124263996Y-111919658D01*
X124255067Y-111965320D01*
X124248450Y-112021041D01*
X124244330Y-112082522D01*
X124242889Y-112145465D01*
X124244312Y-112205571D01*
G37*
X124244312Y-112205571D02*
X124248781Y-112258540D01*
X124249340Y-112262822D01*
X124269399Y-112363345D01*
X124300971Y-112455294D01*
X124343642Y-112538363D01*
X124396995Y-112612246D01*
X124460617Y-112676636D01*
X124534090Y-112731226D01*
X124616999Y-112775711D01*
X124708929Y-112809783D01*
X124809464Y-112833137D01*
X124918189Y-112845466D01*
X125034688Y-112846464D01*
X125040571Y-112846217D01*
X125150186Y-112836507D01*
X125249498Y-112817306D01*
X125339514Y-112788222D01*
X125421239Y-112748863D01*
X125495678Y-112698839D01*
X125556271Y-112645372D01*
X125611577Y-112583722D01*
X125656166Y-112518208D01*
X125691764Y-112445779D01*
X125720096Y-112363381D01*
X125724250Y-112348403D01*
X125730849Y-112314829D01*
X125736096Y-112270326D01*
X125739897Y-112218428D01*
X125742158Y-112162664D01*
X125742787Y-112106567D01*
X125741689Y-112053667D01*
X125738772Y-112007498D01*
X125734200Y-111972936D01*
X125708971Y-111874780D01*
X125672360Y-111785483D01*
X125624681Y-111705308D01*
X125566245Y-111634517D01*
X125497366Y-111573375D01*
X125418357Y-111522144D01*
X125329531Y-111481088D01*
X125231202Y-111450469D01*
X125123682Y-111430550D01*
X125083568Y-111426122D01*
X124969790Y-111421604D01*
X124969790Y-111728167D01*
X124997028Y-111728229D01*
X125062850Y-111729785D01*
X125117968Y-111734184D01*
X125166032Y-111742124D01*
X125210695Y-111754304D01*
X125255607Y-111771422D01*
X125279952Y-111782356D01*
X125347734Y-111821273D01*
X125404111Y-111868831D01*
X125448691Y-111924214D01*
X125481080Y-111986610D01*
X125500885Y-112055201D01*
X125507713Y-112129174D01*
X125501170Y-112207713D01*
X125496660Y-112231486D01*
X125476336Y-112293208D01*
X125443280Y-112351502D01*
X125399215Y-112404295D01*
X125345858Y-112449510D01*
X125287314Y-112483949D01*
X125246104Y-112502671D01*
X125209308Y-112516806D01*
X125173687Y-112526964D01*
X125136002Y-112533755D01*
X125093013Y-112537792D01*
X125041480Y-112539684D01*
X124989771Y-112540064D01*
X124940040Y-112539841D01*
X124901826Y-112539065D01*
X124872135Y-112537474D01*
X124847970Y-112534807D01*
X124826339Y-112530803D01*
X124804246Y-112525200D01*
X124797457Y-112523277D01*
X124716966Y-112494062D01*
X124647867Y-112456071D01*
X124590272Y-112409406D01*
X124544289Y-112354169D01*
X124510030Y-112290464D01*
X124492478Y-112238643D01*
X124485769Y-112200738D01*
X124482564Y-112154415D01*
X124482852Y-112105339D01*
X124486623Y-112059174D01*
X124492883Y-112025188D01*
X124517514Y-111958245D01*
X124554377Y-111898813D01*
X124603086Y-111847232D01*
X124663254Y-111803842D01*
X124734494Y-111768985D01*
X124812265Y-111744035D01*
X124840143Y-111737553D01*
X124866239Y-111733033D01*
X124894148Y-111730167D01*
X124927466Y-111728648D01*
X124969790Y-111728167D01*
X124969790Y-111421604D01*
X124969342Y-111421586D01*
X124859444Y-111429142D01*
X124754925Y-111448505D01*
X124656835Y-111479389D01*
X124566224Y-111521510D01*
X124484142Y-111574584D01*
X124457396Y-111595885D01*
X124408644Y-111644297D01*
X124363033Y-111703853D01*
X124322550Y-111771226D01*
X124289181Y-111843091D01*
X124264912Y-111916124D01*
X124263996Y-111919658D01*
X124255067Y-111965320D01*
X124248450Y-112021041D01*
X124244330Y-112082522D01*
X124242889Y-112145465D01*
X124244312Y-112205571D01*
G36*
X124264252Y-113580224D02*
G01*
X124264441Y-113655293D01*
X124264780Y-113727268D01*
X124265269Y-113794683D01*
X124265910Y-113856070D01*
X124266703Y-113909961D01*
X124267651Y-113954890D01*
X124268753Y-113989390D01*
X124270011Y-114011992D01*
X124271005Y-114020039D01*
X124286768Y-114059783D01*
X124312134Y-114089974D01*
X124344933Y-114109448D01*
X124382991Y-114117041D01*
X124424135Y-114111590D01*
X124435052Y-114107899D01*
X124466539Y-114089937D01*
X124487608Y-114065757D01*
X124507171Y-114036215D01*
X124509417Y-113841789D01*
X124511662Y-113647363D01*
X125075474Y-113645296D01*
X125179483Y-113644901D01*
X125269971Y-113644512D01*
X125347930Y-113644105D01*
X125414353Y-113643651D01*
X125470232Y-113643125D01*
X125516560Y-113642500D01*
X125554329Y-113641751D01*
X125584533Y-113640850D01*
X125608164Y-113639772D01*
X125626214Y-113638489D01*
X125639676Y-113636977D01*
X125649543Y-113635207D01*
X125656807Y-113633154D01*
X125662462Y-113630793D01*
X125664686Y-113629654D01*
X125694196Y-113611406D01*
X125714558Y-113591646D01*
X125730753Y-113565541D01*
X125730772Y-113565504D01*
X125740260Y-113536351D01*
X125744213Y-113500904D01*
X125742503Y-113465386D01*
X125735002Y-113436022D01*
X125733490Y-113432772D01*
X125711838Y-113402824D01*
X125681238Y-113376978D01*
X125647253Y-113359690D01*
X125639401Y-113357358D01*
X125626144Y-113355626D01*
X125600811Y-113354113D01*
X125563098Y-113352815D01*
X125512700Y-113351729D01*
X125449313Y-113350849D01*
X125372633Y-113350172D01*
X125282355Y-113349694D01*
X125178174Y-113349409D01*
X125059786Y-113349315D01*
X124510800Y-113349315D01*
X124510640Y-113162443D01*
X124510496Y-113104391D01*
X124510094Y-113058926D01*
X124509312Y-113024122D01*
X124508029Y-112998051D01*
X124506123Y-112978787D01*
X124503472Y-112964403D01*
X124499956Y-112952973D01*
X124496972Y-112945825D01*
X124475240Y-112913767D01*
X124445552Y-112891659D01*
X124410904Y-112879931D01*
X124374296Y-112879012D01*
X124338726Y-112889332D01*
X124307192Y-112911321D01*
X124301101Y-112917759D01*
X124285368Y-112940074D01*
X124273519Y-112964474D01*
X124271750Y-112969931D01*
X124270362Y-112982189D01*
X124269112Y-113007493D01*
X124268002Y-113044377D01*
X124267031Y-113091373D01*
X124266202Y-113147013D01*
X124265515Y-113209830D01*
X124264972Y-113278358D01*
X124264573Y-113351128D01*
X124264319Y-113426674D01*
X124264212Y-113503528D01*
X124264252Y-113580224D01*
G37*
X124264252Y-113580224D02*
X124264441Y-113655293D01*
X124264780Y-113727268D01*
X124265269Y-113794683D01*
X124265910Y-113856070D01*
X124266703Y-113909961D01*
X124267651Y-113954890D01*
X124268753Y-113989390D01*
X124270011Y-114011992D01*
X124271005Y-114020039D01*
X124286768Y-114059783D01*
X124312134Y-114089974D01*
X124344933Y-114109448D01*
X124382991Y-114117041D01*
X124424135Y-114111590D01*
X124435052Y-114107899D01*
X124466539Y-114089937D01*
X124487608Y-114065757D01*
X124507171Y-114036215D01*
X124509417Y-113841789D01*
X124511662Y-113647363D01*
X125075474Y-113645296D01*
X125179483Y-113644901D01*
X125269971Y-113644512D01*
X125347930Y-113644105D01*
X125414353Y-113643651D01*
X125470232Y-113643125D01*
X125516560Y-113642500D01*
X125554329Y-113641751D01*
X125584533Y-113640850D01*
X125608164Y-113639772D01*
X125626214Y-113638489D01*
X125639676Y-113636977D01*
X125649543Y-113635207D01*
X125656807Y-113633154D01*
X125662462Y-113630793D01*
X125664686Y-113629654D01*
X125694196Y-113611406D01*
X125714558Y-113591646D01*
X125730753Y-113565541D01*
X125730772Y-113565504D01*
X125740260Y-113536351D01*
X125744213Y-113500904D01*
X125742503Y-113465386D01*
X125735002Y-113436022D01*
X125733490Y-113432772D01*
X125711838Y-113402824D01*
X125681238Y-113376978D01*
X125647253Y-113359690D01*
X125639401Y-113357358D01*
X125626144Y-113355626D01*
X125600811Y-113354113D01*
X125563098Y-113352815D01*
X125512700Y-113351729D01*
X125449313Y-113350849D01*
X125372633Y-113350172D01*
X125282355Y-113349694D01*
X125178174Y-113349409D01*
X125059786Y-113349315D01*
X124510800Y-113349315D01*
X124510640Y-113162443D01*
X124510496Y-113104391D01*
X124510094Y-113058926D01*
X124509312Y-113024122D01*
X124508029Y-112998051D01*
X124506123Y-112978787D01*
X124503472Y-112964403D01*
X124499956Y-112952973D01*
X124496972Y-112945825D01*
X124475240Y-112913767D01*
X124445552Y-112891659D01*
X124410904Y-112879931D01*
X124374296Y-112879012D01*
X124338726Y-112889332D01*
X124307192Y-112911321D01*
X124301101Y-112917759D01*
X124285368Y-112940074D01*
X124273519Y-112964474D01*
X124271750Y-112969931D01*
X124270362Y-112982189D01*
X124269112Y-113007493D01*
X124268002Y-113044377D01*
X124267031Y-113091373D01*
X124266202Y-113147013D01*
X124265515Y-113209830D01*
X124264972Y-113278358D01*
X124264573Y-113351128D01*
X124264319Y-113426674D01*
X124264212Y-113503528D01*
X124264252Y-113580224D01*
G36*
X124248867Y-114495399D02*
G01*
X124267409Y-114534483D01*
X124297424Y-114565081D01*
X124338185Y-114586252D01*
X124351779Y-114590457D01*
X124364776Y-114591910D01*
X124392088Y-114593158D01*
X124433515Y-114594198D01*
X124488859Y-114595031D01*
X124557922Y-114595653D01*
X124640503Y-114596063D01*
X124736405Y-114596260D01*
X124845429Y-114596242D01*
X124967377Y-114596007D01*
X125009268Y-114595885D01*
X125119335Y-114595535D01*
X125215829Y-114595200D01*
X125299690Y-114594858D01*
X125371859Y-114594483D01*
X125433278Y-114594052D01*
X125484887Y-114593540D01*
X125527628Y-114592922D01*
X125562440Y-114592175D01*
X125590265Y-114591274D01*
X125612044Y-114590195D01*
X125628718Y-114588913D01*
X125641227Y-114587405D01*
X125650513Y-114585646D01*
X125657517Y-114583612D01*
X125663178Y-114581278D01*
X125667927Y-114578890D01*
X125690957Y-114563277D01*
X125713267Y-114542767D01*
X125718613Y-114536628D01*
X125730671Y-114519883D01*
X125737714Y-114503460D01*
X125741357Y-114482094D01*
X125742933Y-114457311D01*
X125742933Y-114422022D01*
X125738966Y-114397038D01*
X125733473Y-114383474D01*
X125714191Y-114354108D01*
X125690407Y-114332539D01*
X125668314Y-114319185D01*
X125663076Y-114316468D01*
X125657528Y-114314084D01*
X125650728Y-114312009D01*
X125641736Y-114310217D01*
X125629611Y-114308683D01*
X125613412Y-114307382D01*
X125592198Y-114306289D01*
X125565028Y-114305380D01*
X125530960Y-114304628D01*
X125489055Y-114304010D01*
X125438370Y-114303500D01*
X125377966Y-114303072D01*
X125306900Y-114302703D01*
X125224233Y-114302367D01*
X125129023Y-114302039D01*
X125020329Y-114301693D01*
X125009268Y-114301659D01*
X124883211Y-114301354D01*
X124770013Y-114301266D01*
X124669873Y-114301394D01*
X124582990Y-114301736D01*
X124509563Y-114302290D01*
X124449790Y-114303055D01*
X124403869Y-114304029D01*
X124372000Y-114305210D01*
X124354382Y-114306597D01*
X124351779Y-114307086D01*
X124308065Y-114325374D01*
X124274888Y-114353361D01*
X124252976Y-114390104D01*
X124243055Y-114434661D01*
X124242524Y-114448772D01*
X124248867Y-114495399D01*
G37*
X124248867Y-114495399D02*
X124267409Y-114534483D01*
X124297424Y-114565081D01*
X124338185Y-114586252D01*
X124351779Y-114590457D01*
X124364776Y-114591910D01*
X124392088Y-114593158D01*
X124433515Y-114594198D01*
X124488859Y-114595031D01*
X124557922Y-114595653D01*
X124640503Y-114596063D01*
X124736405Y-114596260D01*
X124845429Y-114596242D01*
X124967377Y-114596007D01*
X125009268Y-114595885D01*
X125119335Y-114595535D01*
X125215829Y-114595200D01*
X125299690Y-114594858D01*
X125371859Y-114594483D01*
X125433278Y-114594052D01*
X125484887Y-114593540D01*
X125527628Y-114592922D01*
X125562440Y-114592175D01*
X125590265Y-114591274D01*
X125612044Y-114590195D01*
X125628718Y-114588913D01*
X125641227Y-114587405D01*
X125650513Y-114585646D01*
X125657517Y-114583612D01*
X125663178Y-114581278D01*
X125667927Y-114578890D01*
X125690957Y-114563277D01*
X125713267Y-114542767D01*
X125718613Y-114536628D01*
X125730671Y-114519883D01*
X125737714Y-114503460D01*
X125741357Y-114482094D01*
X125742933Y-114457311D01*
X125742933Y-114422022D01*
X125738966Y-114397038D01*
X125733473Y-114383474D01*
X125714191Y-114354108D01*
X125690407Y-114332539D01*
X125668314Y-114319185D01*
X125663076Y-114316468D01*
X125657528Y-114314084D01*
X125650728Y-114312009D01*
X125641736Y-114310217D01*
X125629611Y-114308683D01*
X125613412Y-114307382D01*
X125592198Y-114306289D01*
X125565028Y-114305380D01*
X125530960Y-114304628D01*
X125489055Y-114304010D01*
X125438370Y-114303500D01*
X125377966Y-114303072D01*
X125306900Y-114302703D01*
X125224233Y-114302367D01*
X125129023Y-114302039D01*
X125020329Y-114301693D01*
X125009268Y-114301659D01*
X124883211Y-114301354D01*
X124770013Y-114301266D01*
X124669873Y-114301394D01*
X124582990Y-114301736D01*
X124509563Y-114302290D01*
X124449790Y-114303055D01*
X124403869Y-114304029D01*
X124372000Y-114305210D01*
X124354382Y-114306597D01*
X124351779Y-114307086D01*
X124308065Y-114325374D01*
X124274888Y-114353361D01*
X124252976Y-114390104D01*
X124243055Y-114434661D01*
X124242524Y-114448772D01*
X124248867Y-114495399D01*
G36*
X124264440Y-110415227D02*
G01*
X124264913Y-110481558D01*
X124265793Y-110548724D01*
X124267057Y-110614774D01*
X124268679Y-110677758D01*
X124270634Y-110735723D01*
X124272897Y-110786717D01*
X124275445Y-110828791D01*
X124278251Y-110859991D01*
X124280870Y-110876711D01*
X124304246Y-110947788D01*
X124338720Y-111011179D01*
X124383296Y-111065567D01*
X124436980Y-111109639D01*
X124472940Y-111130480D01*
X124539520Y-111156348D01*
X124606866Y-111168549D01*
X124673381Y-111167537D01*
X124737469Y-111153763D01*
X124797534Y-111127679D01*
X124851979Y-111089736D01*
X124899207Y-111040387D01*
X124925240Y-111002474D01*
X124948791Y-110963099D01*
X124981229Y-111029455D01*
X125020055Y-111095416D01*
X125065896Y-111148676D01*
X125118884Y-111189312D01*
X125179148Y-111217398D01*
X125246819Y-111233010D01*
X125322026Y-111236224D01*
X125336797Y-111235465D01*
X125412611Y-111223842D01*
X125482167Y-111199650D01*
X125544434Y-111163538D01*
X125598379Y-111116156D01*
X125642969Y-111058153D01*
X125656943Y-111034031D01*
X125680674Y-110978639D01*
X125699367Y-110911503D01*
X125712486Y-110834675D01*
X125715223Y-110810360D01*
X125716849Y-110786741D01*
X125718250Y-110751887D01*
X125719423Y-110707686D01*
X125720368Y-110656027D01*
X125721083Y-110598796D01*
X125721565Y-110537882D01*
X125721813Y-110475172D01*
X125721826Y-110412554D01*
X125721602Y-110351915D01*
X125721139Y-110295143D01*
X125720436Y-110244126D01*
X125719490Y-110200752D01*
X125718301Y-110166908D01*
X125716866Y-110144482D01*
X125715820Y-110137000D01*
X125699178Y-110096291D01*
X125671441Y-110063719D01*
X125644455Y-110046015D01*
X125610257Y-110029172D01*
X125498936Y-110028794D01*
X125498936Y-110323086D01*
X125496115Y-110531729D01*
X125495204Y-110593357D01*
X125494232Y-110642427D01*
X125493057Y-110680895D01*
X125491538Y-110710717D01*
X125489532Y-110733848D01*
X125486898Y-110752246D01*
X125483494Y-110767864D01*
X125479178Y-110782661D01*
X125477581Y-110787543D01*
X125455984Y-110839520D01*
X125429378Y-110878636D01*
X125396270Y-110906111D01*
X125355165Y-110923165D01*
X125304569Y-110931021D01*
X125301757Y-110931194D01*
X125246015Y-110929961D01*
X125199737Y-110918678D01*
X125161827Y-110896532D01*
X125131187Y-110862713D01*
X125106721Y-110816410D01*
X125092835Y-110776658D01*
X125089284Y-110760615D01*
X125086345Y-110737651D01*
X125083935Y-110706309D01*
X125081971Y-110665134D01*
X125080369Y-110612669D01*
X125079045Y-110547458D01*
X125078790Y-110531729D01*
X125075534Y-110323086D01*
X125498936Y-110323086D01*
X125498936Y-110028794D01*
X125015495Y-110027152D01*
X124896138Y-110026818D01*
X124860167Y-110026771D01*
X124860167Y-110323086D01*
X124857444Y-110524472D01*
X124856489Y-110586214D01*
X124855400Y-110635277D01*
X124854057Y-110673499D01*
X124852338Y-110702716D01*
X124850123Y-110724763D01*
X124847290Y-110741478D01*
X124843719Y-110754695D01*
X124841951Y-110759696D01*
X124819619Y-110800085D01*
X124786765Y-110834861D01*
X124752941Y-110857074D01*
X124731764Y-110865024D01*
X124705427Y-110869437D01*
X124669653Y-110870976D01*
X124663200Y-110871000D01*
X124618789Y-110868454D01*
X124585275Y-110859927D01*
X124559809Y-110844089D01*
X124539537Y-110819608D01*
X124534295Y-110810829D01*
X124523073Y-110788551D01*
X124514042Y-110764584D01*
X124506929Y-110736996D01*
X124501459Y-110703853D01*
X124497357Y-110663220D01*
X124494348Y-110613164D01*
X124492159Y-110551752D01*
X124491076Y-110506329D01*
X124487287Y-110323086D01*
X124860167Y-110323086D01*
X124860167Y-110026771D01*
X124790728Y-110026679D01*
X124698699Y-110026740D01*
X124619486Y-110027007D01*
X124552523Y-110027486D01*
X124497244Y-110028182D01*
X124453083Y-110029101D01*
X124419475Y-110030249D01*
X124395853Y-110031631D01*
X124381652Y-110033252D01*
X124380495Y-110033476D01*
X124338277Y-110049021D01*
X124304911Y-110075711D01*
X124281523Y-110112403D01*
X124271556Y-110144068D01*
X124269061Y-110164406D01*
X124267123Y-110197288D01*
X124265716Y-110240762D01*
X124264817Y-110292878D01*
X124264400Y-110351683D01*
X124264440Y-110415227D01*
G37*
X124264440Y-110415227D02*
X124264913Y-110481558D01*
X124265793Y-110548724D01*
X124267057Y-110614774D01*
X124268679Y-110677758D01*
X124270634Y-110735723D01*
X124272897Y-110786717D01*
X124275445Y-110828791D01*
X124278251Y-110859991D01*
X124280870Y-110876711D01*
X124304246Y-110947788D01*
X124338720Y-111011179D01*
X124383296Y-111065567D01*
X124436980Y-111109639D01*
X124472940Y-111130480D01*
X124539520Y-111156348D01*
X124606866Y-111168549D01*
X124673381Y-111167537D01*
X124737469Y-111153763D01*
X124797534Y-111127679D01*
X124851979Y-111089736D01*
X124899207Y-111040387D01*
X124925240Y-111002474D01*
X124948791Y-110963099D01*
X124981229Y-111029455D01*
X125020055Y-111095416D01*
X125065896Y-111148676D01*
X125118884Y-111189312D01*
X125179148Y-111217398D01*
X125246819Y-111233010D01*
X125322026Y-111236224D01*
X125336797Y-111235465D01*
X125412611Y-111223842D01*
X125482167Y-111199650D01*
X125544434Y-111163538D01*
X125598379Y-111116156D01*
X125642969Y-111058153D01*
X125656943Y-111034031D01*
X125680674Y-110978639D01*
X125699367Y-110911503D01*
X125712486Y-110834675D01*
X125715223Y-110810360D01*
X125716849Y-110786741D01*
X125718250Y-110751887D01*
X125719423Y-110707686D01*
X125720368Y-110656027D01*
X125721083Y-110598796D01*
X125721565Y-110537882D01*
X125721813Y-110475172D01*
X125721826Y-110412554D01*
X125721602Y-110351915D01*
X125721139Y-110295143D01*
X125720436Y-110244126D01*
X125719490Y-110200752D01*
X125718301Y-110166908D01*
X125716866Y-110144482D01*
X125715820Y-110137000D01*
X125699178Y-110096291D01*
X125671441Y-110063719D01*
X125644455Y-110046015D01*
X125610257Y-110029172D01*
X125498936Y-110028794D01*
X125498936Y-110323086D01*
X125496115Y-110531729D01*
X125495204Y-110593357D01*
X125494232Y-110642427D01*
X125493057Y-110680895D01*
X125491538Y-110710717D01*
X125489532Y-110733848D01*
X125486898Y-110752246D01*
X125483494Y-110767864D01*
X125479178Y-110782661D01*
X125477581Y-110787543D01*
X125455984Y-110839520D01*
X125429378Y-110878636D01*
X125396270Y-110906111D01*
X125355165Y-110923165D01*
X125304569Y-110931021D01*
X125301757Y-110931194D01*
X125246015Y-110929961D01*
X125199737Y-110918678D01*
X125161827Y-110896532D01*
X125131187Y-110862713D01*
X125106721Y-110816410D01*
X125092835Y-110776658D01*
X125089284Y-110760615D01*
X125086345Y-110737651D01*
X125083935Y-110706309D01*
X125081971Y-110665134D01*
X125080369Y-110612669D01*
X125079045Y-110547458D01*
X125078790Y-110531729D01*
X125075534Y-110323086D01*
X125498936Y-110323086D01*
X125498936Y-110028794D01*
X125015495Y-110027152D01*
X124896138Y-110026818D01*
X124860167Y-110026771D01*
X124860167Y-110323086D01*
X124857444Y-110524472D01*
X124856489Y-110586214D01*
X124855400Y-110635277D01*
X124854057Y-110673499D01*
X124852338Y-110702716D01*
X124850123Y-110724763D01*
X124847290Y-110741478D01*
X124843719Y-110754695D01*
X124841951Y-110759696D01*
X124819619Y-110800085D01*
X124786765Y-110834861D01*
X124752941Y-110857074D01*
X124731764Y-110865024D01*
X124705427Y-110869437D01*
X124669653Y-110870976D01*
X124663200Y-110871000D01*
X124618789Y-110868454D01*
X124585275Y-110859927D01*
X124559809Y-110844089D01*
X124539537Y-110819608D01*
X124534295Y-110810829D01*
X124523073Y-110788551D01*
X124514042Y-110764584D01*
X124506929Y-110736996D01*
X124501459Y-110703853D01*
X124497357Y-110663220D01*
X124494348Y-110613164D01*
X124492159Y-110551752D01*
X124491076Y-110506329D01*
X124487287Y-110323086D01*
X124860167Y-110323086D01*
X124860167Y-110026771D01*
X124790728Y-110026679D01*
X124698699Y-110026740D01*
X124619486Y-110027007D01*
X124552523Y-110027486D01*
X124497244Y-110028182D01*
X124453083Y-110029101D01*
X124419475Y-110030249D01*
X124395853Y-110031631D01*
X124381652Y-110033252D01*
X124380495Y-110033476D01*
X124338277Y-110049021D01*
X124304911Y-110075711D01*
X124281523Y-110112403D01*
X124271556Y-110144068D01*
X124269061Y-110164406D01*
X124267123Y-110197288D01*
X124265716Y-110240762D01*
X124264817Y-110292878D01*
X124264400Y-110351683D01*
X124264440Y-110415227D01*
G36*
X121857518Y-113493887D02*
G01*
X121877357Y-113497809D01*
X121905926Y-113502681D01*
X121940399Y-113507996D01*
X121946464Y-113508881D01*
X122137941Y-113539767D01*
X122327220Y-113576498D01*
X122511495Y-113618423D01*
X122687960Y-113664890D01*
X122853808Y-113715247D01*
X122896829Y-113729571D01*
X123027908Y-113777029D01*
X123145176Y-113825734D01*
X123249308Y-113876050D01*
X123340981Y-113928338D01*
X123420871Y-113982962D01*
X123489652Y-114040283D01*
X123506877Y-114056732D01*
X123529897Y-114078714D01*
X123546155Y-114092812D01*
X123554555Y-114098159D01*
X123554048Y-114093976D01*
X123539732Y-114074099D01*
X123516526Y-114047658D01*
X123486938Y-114017075D01*
X123453473Y-113984776D01*
X123418637Y-113953185D01*
X123384937Y-113924727D01*
X123356914Y-113903270D01*
X123255021Y-113836488D01*
X123140551Y-113772814D01*
X123013175Y-113712105D01*
X122872561Y-113654216D01*
X122718379Y-113599005D01*
X122550297Y-113546329D01*
X122500571Y-113531978D01*
X122442713Y-113516189D01*
X122376384Y-113499107D01*
X122305516Y-113481666D01*
X122234041Y-113464799D01*
X122165891Y-113449441D01*
X122104998Y-113436525D01*
X122068771Y-113429432D01*
X122042612Y-113424492D01*
X122020293Y-113420169D01*
X122009623Y-113418015D01*
X122005749Y-113416352D01*
X122003933Y-113412486D01*
X122004736Y-113405113D01*
X122008713Y-113392927D01*
X122016424Y-113374623D01*
X122028426Y-113348896D01*
X122045277Y-113314440D01*
X122067535Y-113269951D01*
X122095759Y-113214122D01*
X122102244Y-113201331D01*
X122128135Y-113150012D01*
X122159713Y-113086968D01*
X122196323Y-113013528D01*
X122237309Y-112931021D01*
X122282018Y-112840777D01*
X122329795Y-112744127D01*
X122379984Y-112642399D01*
X122431932Y-112536924D01*
X122484983Y-112429032D01*
X122538483Y-112320052D01*
X122591777Y-112211313D01*
X122644210Y-112104147D01*
X122695128Y-111999882D01*
X122743875Y-111899849D01*
X122789798Y-111805377D01*
X122805842Y-111772304D01*
X122840388Y-111700578D01*
X122869954Y-111638212D01*
X122894269Y-111585805D01*
X122913065Y-111543957D01*
X122926070Y-111513270D01*
X122933015Y-111494342D01*
X122933745Y-111487798D01*
X122924474Y-111485435D01*
X122903131Y-111480371D01*
X122871806Y-111473091D01*
X122832588Y-111464078D01*
X122787566Y-111453816D01*
X122758200Y-111447161D01*
X122710888Y-111436326D01*
X122668331Y-111426319D01*
X122632567Y-111417640D01*
X122605634Y-111410789D01*
X122589572Y-111406269D01*
X122585966Y-111404856D01*
X122587930Y-111397568D01*
X122596088Y-111379201D01*
X122609621Y-111351384D01*
X122627715Y-111315747D01*
X122649553Y-111273921D01*
X122674318Y-111227535D01*
X122680838Y-111215475D01*
X122729251Y-111125943D01*
X122779892Y-111031866D01*
X122832367Y-110933995D01*
X122886286Y-110833080D01*
X122941255Y-110729873D01*
X122996885Y-110625125D01*
X123052781Y-110519587D01*
X123108553Y-110414009D01*
X123163808Y-110309143D01*
X123218154Y-110205739D01*
X123271200Y-110104549D01*
X123322553Y-110006323D01*
X123371821Y-109911812D01*
X123418613Y-109821768D01*
X123462536Y-109736941D01*
X123503199Y-109658082D01*
X123540209Y-109585943D01*
X123573174Y-109521274D01*
X123601703Y-109464825D01*
X123625403Y-109417349D01*
X123643883Y-109379596D01*
X123656750Y-109352317D01*
X123663613Y-109336262D01*
X123664079Y-109332184D01*
X123663736Y-109332486D01*
X123656367Y-109342390D01*
X123642221Y-109364064D01*
X123621771Y-109396704D01*
X123595486Y-109439505D01*
X123563837Y-109491661D01*
X123527297Y-109552368D01*
X123486335Y-109620821D01*
X123441422Y-109696215D01*
X123393030Y-109777745D01*
X123341630Y-109864606D01*
X123287692Y-109955994D01*
X123231688Y-110051102D01*
X123174088Y-110149127D01*
X123115364Y-110249264D01*
X123055987Y-110350707D01*
X122996426Y-110452652D01*
X122937155Y-110554294D01*
X122878642Y-110654827D01*
X122821361Y-110753447D01*
X122765780Y-110849349D01*
X122712372Y-110941728D01*
X122661608Y-111029780D01*
X122613958Y-111112698D01*
X122569893Y-111189679D01*
X122529885Y-111259917D01*
X122494404Y-111322608D01*
X122463921Y-111376946D01*
X122438908Y-111422127D01*
X122419835Y-111457345D01*
X122414580Y-111467303D01*
X122412405Y-111472341D01*
X122412762Y-111476684D01*
X122417232Y-111480888D01*
X122427400Y-111485508D01*
X122444847Y-111491103D01*
X122471157Y-111498228D01*
X122507913Y-111507440D01*
X122556697Y-111519295D01*
X122575021Y-111523718D01*
X122623008Y-111535385D01*
X122666733Y-111546192D01*
X122704067Y-111555597D01*
X122732885Y-111563062D01*
X122751056Y-111568046D01*
X122756090Y-111569672D01*
X122758232Y-111572326D01*
X122758165Y-111578344D01*
X122755431Y-111588758D01*
X122749573Y-111604596D01*
X122740133Y-111626889D01*
X122726651Y-111656665D01*
X122708671Y-111694956D01*
X122685734Y-111742791D01*
X122657381Y-111801199D01*
X122623155Y-111871210D01*
X122610076Y-111897886D01*
X122557030Y-112006194D01*
X122503349Y-112116128D01*
X122449401Y-112226914D01*
X122395556Y-112337779D01*
X122342183Y-112447949D01*
X122289652Y-112556653D01*
X122238330Y-112663116D01*
X122188589Y-112766565D01*
X122140795Y-112866227D01*
X122095320Y-112961330D01*
X122052532Y-113051099D01*
X122012799Y-113134761D01*
X121976493Y-113211544D01*
X121943980Y-113280674D01*
X121915631Y-113341378D01*
X121891816Y-113392883D01*
X121872902Y-113434415D01*
X121859259Y-113465202D01*
X121851256Y-113484470D01*
X121849233Y-113491424D01*
X121857518Y-113493887D01*
G37*
X121857518Y-113493887D02*
X121877357Y-113497809D01*
X121905926Y-113502681D01*
X121940399Y-113507996D01*
X121946464Y-113508881D01*
X122137941Y-113539767D01*
X122327220Y-113576498D01*
X122511495Y-113618423D01*
X122687960Y-113664890D01*
X122853808Y-113715247D01*
X122896829Y-113729571D01*
X123027908Y-113777029D01*
X123145176Y-113825734D01*
X123249308Y-113876050D01*
X123340981Y-113928338D01*
X123420871Y-113982962D01*
X123489652Y-114040283D01*
X123506877Y-114056732D01*
X123529897Y-114078714D01*
X123546155Y-114092812D01*
X123554555Y-114098159D01*
X123554048Y-114093976D01*
X123539732Y-114074099D01*
X123516526Y-114047658D01*
X123486938Y-114017075D01*
X123453473Y-113984776D01*
X123418637Y-113953185D01*
X123384937Y-113924727D01*
X123356914Y-113903270D01*
X123255021Y-113836488D01*
X123140551Y-113772814D01*
X123013175Y-113712105D01*
X122872561Y-113654216D01*
X122718379Y-113599005D01*
X122550297Y-113546329D01*
X122500571Y-113531978D01*
X122442713Y-113516189D01*
X122376384Y-113499107D01*
X122305516Y-113481666D01*
X122234041Y-113464799D01*
X122165891Y-113449441D01*
X122104998Y-113436525D01*
X122068771Y-113429432D01*
X122042612Y-113424492D01*
X122020293Y-113420169D01*
X122009623Y-113418015D01*
X122005749Y-113416352D01*
X122003933Y-113412486D01*
X122004736Y-113405113D01*
X122008713Y-113392927D01*
X122016424Y-113374623D01*
X122028426Y-113348896D01*
X122045277Y-113314440D01*
X122067535Y-113269951D01*
X122095759Y-113214122D01*
X122102244Y-113201331D01*
X122128135Y-113150012D01*
X122159713Y-113086968D01*
X122196323Y-113013528D01*
X122237309Y-112931021D01*
X122282018Y-112840777D01*
X122329795Y-112744127D01*
X122379984Y-112642399D01*
X122431932Y-112536924D01*
X122484983Y-112429032D01*
X122538483Y-112320052D01*
X122591777Y-112211313D01*
X122644210Y-112104147D01*
X122695128Y-111999882D01*
X122743875Y-111899849D01*
X122789798Y-111805377D01*
X122805842Y-111772304D01*
X122840388Y-111700578D01*
X122869954Y-111638212D01*
X122894269Y-111585805D01*
X122913065Y-111543957D01*
X122926070Y-111513270D01*
X122933015Y-111494342D01*
X122933745Y-111487798D01*
X122924474Y-111485435D01*
X122903131Y-111480371D01*
X122871806Y-111473091D01*
X122832588Y-111464078D01*
X122787566Y-111453816D01*
X122758200Y-111447161D01*
X122710888Y-111436326D01*
X122668331Y-111426319D01*
X122632567Y-111417640D01*
X122605634Y-111410789D01*
X122589572Y-111406269D01*
X122585966Y-111404856D01*
X122587930Y-111397568D01*
X122596088Y-111379201D01*
X122609621Y-111351384D01*
X122627715Y-111315747D01*
X122649553Y-111273921D01*
X122674318Y-111227535D01*
X122680838Y-111215475D01*
X122729251Y-111125943D01*
X122779892Y-111031866D01*
X122832367Y-110933995D01*
X122886286Y-110833080D01*
X122941255Y-110729873D01*
X122996885Y-110625125D01*
X123052781Y-110519587D01*
X123108553Y-110414009D01*
X123163808Y-110309143D01*
X123218154Y-110205739D01*
X123271200Y-110104549D01*
X123322553Y-110006323D01*
X123371821Y-109911812D01*
X123418613Y-109821768D01*
X123462536Y-109736941D01*
X123503199Y-109658082D01*
X123540209Y-109585943D01*
X123573174Y-109521274D01*
X123601703Y-109464825D01*
X123625403Y-109417349D01*
X123643883Y-109379596D01*
X123656750Y-109352317D01*
X123663613Y-109336262D01*
X123664079Y-109332184D01*
X123663736Y-109332486D01*
X123656367Y-109342390D01*
X123642221Y-109364064D01*
X123621771Y-109396704D01*
X123595486Y-109439505D01*
X123563837Y-109491661D01*
X123527297Y-109552368D01*
X123486335Y-109620821D01*
X123441422Y-109696215D01*
X123393030Y-109777745D01*
X123341630Y-109864606D01*
X123287692Y-109955994D01*
X123231688Y-110051102D01*
X123174088Y-110149127D01*
X123115364Y-110249264D01*
X123055987Y-110350707D01*
X122996426Y-110452652D01*
X122937155Y-110554294D01*
X122878642Y-110654827D01*
X122821361Y-110753447D01*
X122765780Y-110849349D01*
X122712372Y-110941728D01*
X122661608Y-111029780D01*
X122613958Y-111112698D01*
X122569893Y-111189679D01*
X122529885Y-111259917D01*
X122494404Y-111322608D01*
X122463921Y-111376946D01*
X122438908Y-111422127D01*
X122419835Y-111457345D01*
X122414580Y-111467303D01*
X122412405Y-111472341D01*
X122412762Y-111476684D01*
X122417232Y-111480888D01*
X122427400Y-111485508D01*
X122444847Y-111491103D01*
X122471157Y-111498228D01*
X122507913Y-111507440D01*
X122556697Y-111519295D01*
X122575021Y-111523718D01*
X122623008Y-111535385D01*
X122666733Y-111546192D01*
X122704067Y-111555597D01*
X122732885Y-111563062D01*
X122751056Y-111568046D01*
X122756090Y-111569672D01*
X122758232Y-111572326D01*
X122758165Y-111578344D01*
X122755431Y-111588758D01*
X122749573Y-111604596D01*
X122740133Y-111626889D01*
X122726651Y-111656665D01*
X122708671Y-111694956D01*
X122685734Y-111742791D01*
X122657381Y-111801199D01*
X122623155Y-111871210D01*
X122610076Y-111897886D01*
X122557030Y-112006194D01*
X122503349Y-112116128D01*
X122449401Y-112226914D01*
X122395556Y-112337779D01*
X122342183Y-112447949D01*
X122289652Y-112556653D01*
X122238330Y-112663116D01*
X122188589Y-112766565D01*
X122140795Y-112866227D01*
X122095320Y-112961330D01*
X122052532Y-113051099D01*
X122012799Y-113134761D01*
X121976493Y-113211544D01*
X121943980Y-113280674D01*
X121915631Y-113341378D01*
X121891816Y-113392883D01*
X121872902Y-113434415D01*
X121859259Y-113465202D01*
X121851256Y-113484470D01*
X121849233Y-113491424D01*
X121857518Y-113493887D01*
G36*
X122774804Y-109181959D02*
G01*
X122786079Y-109179585D01*
X122805106Y-109172872D01*
X122832555Y-109161515D01*
X122869096Y-109145209D01*
X122915401Y-109123651D01*
X122972140Y-109096537D01*
X123039985Y-109063561D01*
X123119605Y-109024420D01*
X123179114Y-108994971D01*
X123250702Y-108959229D01*
X123319547Y-108924396D01*
X123384528Y-108891071D01*
X123444524Y-108859855D01*
X123498412Y-108831348D01*
X123545073Y-108806150D01*
X123583383Y-108784861D01*
X123612221Y-108768080D01*
X123630467Y-108756409D01*
X123636998Y-108750447D01*
X123636869Y-108750051D01*
X123628477Y-108750524D01*
X123607973Y-108755198D01*
X123576975Y-108763559D01*
X123537099Y-108775096D01*
X123489962Y-108789295D01*
X123437180Y-108805644D01*
X123380370Y-108823630D01*
X123321148Y-108842741D01*
X123261132Y-108862463D01*
X123201937Y-108882284D01*
X123145181Y-108901692D01*
X123092479Y-108920173D01*
X123045449Y-108937214D01*
X123037986Y-108939987D01*
X123009037Y-108950482D01*
X122985633Y-108958394D01*
X122970758Y-108962745D01*
X122967037Y-108963171D01*
X122968526Y-108955662D01*
X122974636Y-108936380D01*
X122984722Y-108907076D01*
X122998137Y-108869500D01*
X123014231Y-108825402D01*
X123032359Y-108776535D01*
X123051873Y-108724647D01*
X123072125Y-108671491D01*
X123092469Y-108618816D01*
X123112257Y-108568374D01*
X123122972Y-108541458D01*
X123136864Y-108507064D01*
X123155609Y-108461093D01*
X123178460Y-108405359D01*
X123204667Y-108341674D01*
X123233485Y-108271851D01*
X123264164Y-108197704D01*
X123295957Y-108121045D01*
X123328116Y-108043688D01*
X123345778Y-108001286D01*
X123400858Y-107868914D01*
X123450371Y-107749431D01*
X123494296Y-107642881D01*
X123532617Y-107549310D01*
X123565314Y-107468765D01*
X123592368Y-107401291D01*
X123613763Y-107346935D01*
X123629478Y-107305742D01*
X123639496Y-107277758D01*
X123643798Y-107263028D01*
X123643613Y-107260572D01*
X123637404Y-107266488D01*
X123624612Y-107283208D01*
X123606286Y-107309190D01*
X123583474Y-107342894D01*
X123557226Y-107382776D01*
X123528590Y-107427296D01*
X123507843Y-107460143D01*
X123393385Y-107649713D01*
X123284681Y-107843767D01*
X123182789Y-108040110D01*
X123088767Y-108236546D01*
X123003675Y-108430882D01*
X122928570Y-108620921D01*
X122875214Y-108771904D01*
X122864945Y-108804343D01*
X122853167Y-108844223D01*
X122840434Y-108889378D01*
X122827302Y-108937644D01*
X122814323Y-108986855D01*
X122802054Y-109034845D01*
X122791049Y-109079450D01*
X122781863Y-109118503D01*
X122775049Y-109149840D01*
X122771164Y-109171296D01*
X122770610Y-109180297D01*
X122774804Y-109181959D01*
G37*
X122774804Y-109181959D02*
X122786079Y-109179585D01*
X122805106Y-109172872D01*
X122832555Y-109161515D01*
X122869096Y-109145209D01*
X122915401Y-109123651D01*
X122972140Y-109096537D01*
X123039985Y-109063561D01*
X123119605Y-109024420D01*
X123179114Y-108994971D01*
X123250702Y-108959229D01*
X123319547Y-108924396D01*
X123384528Y-108891071D01*
X123444524Y-108859855D01*
X123498412Y-108831348D01*
X123545073Y-108806150D01*
X123583383Y-108784861D01*
X123612221Y-108768080D01*
X123630467Y-108756409D01*
X123636998Y-108750447D01*
X123636869Y-108750051D01*
X123628477Y-108750524D01*
X123607973Y-108755198D01*
X123576975Y-108763559D01*
X123537099Y-108775096D01*
X123489962Y-108789295D01*
X123437180Y-108805644D01*
X123380370Y-108823630D01*
X123321148Y-108842741D01*
X123261132Y-108862463D01*
X123201937Y-108882284D01*
X123145181Y-108901692D01*
X123092479Y-108920173D01*
X123045449Y-108937214D01*
X123037986Y-108939987D01*
X123009037Y-108950482D01*
X122985633Y-108958394D01*
X122970758Y-108962745D01*
X122967037Y-108963171D01*
X122968526Y-108955662D01*
X122974636Y-108936380D01*
X122984722Y-108907076D01*
X122998137Y-108869500D01*
X123014231Y-108825402D01*
X123032359Y-108776535D01*
X123051873Y-108724647D01*
X123072125Y-108671491D01*
X123092469Y-108618816D01*
X123112257Y-108568374D01*
X123122972Y-108541458D01*
X123136864Y-108507064D01*
X123155609Y-108461093D01*
X123178460Y-108405359D01*
X123204667Y-108341674D01*
X123233485Y-108271851D01*
X123264164Y-108197704D01*
X123295957Y-108121045D01*
X123328116Y-108043688D01*
X123345778Y-108001286D01*
X123400858Y-107868914D01*
X123450371Y-107749431D01*
X123494296Y-107642881D01*
X123532617Y-107549310D01*
X123565314Y-107468765D01*
X123592368Y-107401291D01*
X123613763Y-107346935D01*
X123629478Y-107305742D01*
X123639496Y-107277758D01*
X123643798Y-107263028D01*
X123643613Y-107260572D01*
X123637404Y-107266488D01*
X123624612Y-107283208D01*
X123606286Y-107309190D01*
X123583474Y-107342894D01*
X123557226Y-107382776D01*
X123528590Y-107427296D01*
X123507843Y-107460143D01*
X123393385Y-107649713D01*
X123284681Y-107843767D01*
X123182789Y-108040110D01*
X123088767Y-108236546D01*
X123003675Y-108430882D01*
X122928570Y-108620921D01*
X122875214Y-108771904D01*
X122864945Y-108804343D01*
X122853167Y-108844223D01*
X122840434Y-108889378D01*
X122827302Y-108937644D01*
X122814323Y-108986855D01*
X122802054Y-109034845D01*
X122791049Y-109079450D01*
X122781863Y-109118503D01*
X122775049Y-109149840D01*
X122771164Y-109171296D01*
X122770610Y-109180297D01*
X122774804Y-109181959D01*
%TD*%
M02*
