%TF.GenerationSoftware,KiCad,Pcbnew,(5.1.10)-1*%
%TF.CreationDate,2022-01-11T17:35:31-08:00*%
%TF.ProjectId,science_cake_mosfets_2,73636965-6e63-4655-9f63-616b655f6d6f,rev?*%
%TF.SameCoordinates,Original*%
%TF.FileFunction,Copper,L2,Bot*%
%TF.FilePolarity,Positive*%
%FSLAX46Y46*%
G04 Gerber Fmt 4.6, Leading zero omitted, Abs format (unit mm)*
G04 Created by KiCad (PCBNEW (5.1.10)-1) date 2022-01-11 17:35:31*
%MOMM*%
%LPD*%
G01*
G04 APERTURE LIST*
%TA.AperFunction,ComponentPad*%
%ADD10O,1.905000X2.000000*%
%TD*%
%TA.AperFunction,ComponentPad*%
%ADD11R,1.905000X2.000000*%
%TD*%
%TA.AperFunction,ComponentPad*%
%ADD12R,1.700000X1.700000*%
%TD*%
%TA.AperFunction,ComponentPad*%
%ADD13O,1.700000X1.700000*%
%TD*%
%TA.AperFunction,ComponentPad*%
%ADD14R,3.000000X3.000000*%
%TD*%
%TA.AperFunction,ComponentPad*%
%ADD15C,3.000000*%
%TD*%
%TA.AperFunction,ComponentPad*%
%ADD16R,2.200000X2.200000*%
%TD*%
%TA.AperFunction,ComponentPad*%
%ADD17O,2.200000X2.200000*%
%TD*%
%TA.AperFunction,ViaPad*%
%ADD18C,5.000000*%
%TD*%
%TA.AperFunction,Conductor*%
%ADD19C,2.790000*%
%TD*%
%TA.AperFunction,Conductor*%
%ADD20C,2.760000*%
%TD*%
%TA.AperFunction,Conductor*%
%ADD21C,0.250000*%
%TD*%
%TA.AperFunction,Conductor*%
%ADD22C,0.760000*%
%TD*%
G04 APERTURE END LIST*
D10*
%TO.P,Q5,3*%
%TO.N,COM*%
X148590000Y-100330000D03*
%TO.P,Q5,2*%
%TO.N,D_PUMP_C*%
X146050000Y-100330000D03*
D11*
%TO.P,Q5,1*%
%TO.N,G_PUMP_C*%
X143510000Y-100330000D03*
%TD*%
D12*
%TO.P,J3,1*%
%TO.N,RX*%
X116840000Y-86360000D03*
D13*
%TO.P,J3,2*%
%TO.N,TX*%
X116840000Y-88900000D03*
%TO.P,J3,3*%
%TO.N,Net-(J3-Pad3)*%
X116840000Y-91440000D03*
%TO.P,J3,4*%
%TO.N,Net-(J3-Pad4)*%
X116840000Y-93980000D03*
%TO.P,J3,5*%
%TO.N,Net-(J3-Pad5)*%
X116840000Y-96520000D03*
%TO.P,J3,6*%
%TO.N,Net-(J3-Pad6)*%
X116840000Y-99060000D03*
%TO.P,J3,7*%
%TO.N,Net-(J3-Pad7)*%
X116840000Y-101600000D03*
%TO.P,J3,8*%
%TO.N,Net-(J3-Pad8)*%
X116840000Y-104140000D03*
%TO.P,J3,9*%
%TO.N,Net-(J3-Pad9)*%
X116840000Y-106680000D03*
%TO.P,J3,10*%
%TO.N,Net-(J3-Pad10)*%
X116840000Y-109220000D03*
%TO.P,J3,11*%
%TO.N,Net-(J3-Pad11)*%
X116840000Y-111760000D03*
%TO.P,J3,12*%
%TO.N,Net-(J3-Pad12)*%
X116840000Y-114300000D03*
%TO.P,J3,13*%
%TO.N,Net-(J3-Pad13)*%
X116840000Y-116840000D03*
%TO.P,J3,14*%
%TO.N,Net-(J3-Pad14)*%
X116840000Y-119380000D03*
%TO.P,J3,15*%
%TO.N,Net-(J3-Pad15)*%
X116840000Y-121920000D03*
%TO.P,J3,16*%
%TO.N,Net-(J3-Pad16)*%
X116840000Y-124460000D03*
%TO.P,J3,17*%
%TO.N,Net-(J3-Pad17)*%
X116840000Y-127000000D03*
%TO.P,J3,18*%
%TO.N,COM*%
X116840000Y-129540000D03*
%TO.P,J3,19*%
%TO.N,Net-(J3-Pad19)*%
X116840000Y-132080000D03*
%TO.P,J3,20*%
%TO.N,Net-(J3-Pad20)*%
X116840000Y-134620000D03*
%TD*%
%TO.P,J2,20*%
%TO.N,Net-(J2-Pad20)*%
X110490000Y-134620000D03*
%TO.P,J2,19*%
%TO.N,Net-(J2-Pad19)*%
X110490000Y-132080000D03*
%TO.P,J2,18*%
%TO.N,Net-(J2-Pad18)*%
X110490000Y-129540000D03*
%TO.P,J2,17*%
%TO.N,Net-(J2-Pad17)*%
X110490000Y-127000000D03*
%TO.P,J2,16*%
%TO.N,Net-(J2-Pad16)*%
X110490000Y-124460000D03*
%TO.P,J2,15*%
%TO.N,Net-(J2-Pad15)*%
X110490000Y-121920000D03*
%TO.P,J2,14*%
%TO.N,Net-(J2-Pad14)*%
X110490000Y-119380000D03*
%TO.P,J2,13*%
%TO.N,Net-(J2-Pad13)*%
X110490000Y-116840000D03*
%TO.P,J2,12*%
%TO.N,Net-(J2-Pad12)*%
X110490000Y-114300000D03*
%TO.P,J2,11*%
%TO.N,Net-(J2-Pad11)*%
X110490000Y-111760000D03*
%TO.P,J2,10*%
%TO.N,Net-(J2-Pad10)*%
X110490000Y-109220000D03*
%TO.P,J2,9*%
%TO.N,Net-(J2-Pad9)*%
X110490000Y-106680000D03*
%TO.P,J2,8*%
%TO.N,Net-(J2-Pad8)*%
X110490000Y-104140000D03*
%TO.P,J2,7*%
%TO.N,Net-(J2-Pad7)*%
X110490000Y-101600000D03*
%TO.P,J2,6*%
%TO.N,Net-(J2-Pad6)*%
X110490000Y-99060000D03*
%TO.P,J2,5*%
%TO.N,Net-(J2-Pad5)*%
X110490000Y-96520000D03*
%TO.P,J2,4*%
%TO.N,Net-(J2-Pad4)*%
X110490000Y-93980000D03*
%TO.P,J2,3*%
%TO.N,Net-(J2-Pad3)*%
X110490000Y-91440000D03*
%TO.P,J2,2*%
%TO.N,Net-(J2-Pad2)*%
X110490000Y-88900000D03*
D12*
%TO.P,J2,1*%
%TO.N,VBUS*%
X110490000Y-86360000D03*
%TD*%
D11*
%TO.P,Q6,1*%
%TO.N,G_PUMP_D*%
X143510000Y-107950000D03*
D10*
%TO.P,Q6,2*%
%TO.N,D_PUMP_D*%
X146050000Y-107950000D03*
%TO.P,Q6,3*%
%TO.N,COM*%
X148590000Y-107950000D03*
%TD*%
D14*
%TO.P,J7,2*%
%TO.N,D_PUMP_D*%
X160020000Y-107950000D03*
%TO.P,J7,3*%
%TO.N,D_PUMP_C*%
X160020000Y-102870000D03*
%TO.P,J7,1*%
%TO.N,D_PUMP_E*%
X160020000Y-113030000D03*
%TO.P,J7,4*%
%TO.N,D_PUMP_B*%
X160020000Y-97790000D03*
%TO.P,J7,5*%
%TO.N,D_PUMP_A*%
X160020000Y-92710000D03*
D15*
%TO.P,J7,6*%
%TO.N,PUMPS_12V*%
X160020000Y-87630000D03*
%TD*%
D16*
%TO.P,D1,1*%
%TO.N,PUMPS_12V*%
X153670000Y-139700000D03*
D17*
%TO.P,D1,2*%
%TO.N,D_WATER*%
X153670000Y-129540000D03*
%TD*%
D13*
%TO.P,J1,20*%
%TO.N,Net-(J1-Pad20)*%
X92710000Y-134620000D03*
%TO.P,J1,19*%
%TO.N,Net-(J1-Pad19)*%
X92710000Y-132080000D03*
%TO.P,J1,18*%
%TO.N,Net-(J1-Pad18)*%
X92710000Y-129540000D03*
%TO.P,J1,17*%
%TO.N,Net-(J1-Pad17)*%
X92710000Y-127000000D03*
%TO.P,J1,16*%
%TO.N,Net-(J1-Pad16)*%
X92710000Y-124460000D03*
%TO.P,J1,15*%
%TO.N,Net-(J1-Pad15)*%
X92710000Y-121920000D03*
%TO.P,J1,14*%
%TO.N,Net-(J1-Pad14)*%
X92710000Y-119380000D03*
%TO.P,J1,13*%
%TO.N,Net-(J1-Pad13)*%
X92710000Y-116840000D03*
%TO.P,J1,12*%
%TO.N,Net-(J1-Pad12)*%
X92710000Y-114300000D03*
%TO.P,J1,11*%
%TO.N,Net-(J1-Pad11)*%
X92710000Y-111760000D03*
%TO.P,J1,10*%
%TO.N,Net-(J1-Pad10)*%
X92710000Y-109220000D03*
%TO.P,J1,9*%
%TO.N,Net-(J1-Pad9)*%
X92710000Y-106680000D03*
%TO.P,J1,8*%
%TO.N,Net-(J1-Pad8)*%
X92710000Y-104140000D03*
%TO.P,J1,7*%
%TO.N,RX*%
X92710000Y-101600000D03*
%TO.P,J1,6*%
%TO.N,TX*%
X92710000Y-99060000D03*
%TO.P,J1,5*%
%TO.N,SWDIO*%
X92710000Y-96520000D03*
%TO.P,J1,4*%
%TO.N,SWCLK*%
X92710000Y-93980000D03*
%TO.P,J1,3*%
%TO.N,COM*%
X92710000Y-91440000D03*
%TO.P,J1,2*%
%TO.N,Net-(J1-Pad2)*%
X92710000Y-88900000D03*
D12*
%TO.P,J1,1*%
%TO.N,Net-(J1-Pad1)*%
X92710000Y-86360000D03*
%TD*%
%TO.P,J4,1*%
%TO.N,SWCLK*%
X123190000Y-134620000D03*
D13*
%TO.P,J4,2*%
%TO.N,COM*%
X125730000Y-134620000D03*
%TO.P,J4,3*%
%TO.N,SWDIO*%
X128270000Y-134620000D03*
%TD*%
D12*
%TO.P,J5,1*%
%TO.N,VBUS*%
X134620000Y-86360000D03*
D13*
%TO.P,J5,2*%
%TO.N,Net-(J5-Pad2)*%
X134620000Y-88900000D03*
%TO.P,J5,3*%
%TO.N,COM*%
X134620000Y-91440000D03*
%TO.P,J5,4*%
%TO.N,Net-(J5-Pad4)*%
X134620000Y-93980000D03*
%TO.P,J5,5*%
%TO.N,Net-(J5-Pad5)*%
X134620000Y-96520000D03*
%TO.P,J5,6*%
%TO.N,Net-(J5-Pad6)*%
X134620000Y-99060000D03*
%TO.P,J5,7*%
%TO.N,Net-(J5-Pad7)*%
X134620000Y-101600000D03*
%TO.P,J5,8*%
%TO.N,Net-(J5-Pad8)*%
X134620000Y-104140000D03*
%TO.P,J5,9*%
%TO.N,Net-(J5-Pad9)*%
X134620000Y-106680000D03*
%TO.P,J5,10*%
%TO.N,Net-(J5-Pad10)*%
X134620000Y-109220000D03*
%TO.P,J5,11*%
%TO.N,Net-(J5-Pad11)*%
X134620000Y-111760000D03*
%TO.P,J5,12*%
%TO.N,G_PUMP_A*%
X134620000Y-114300000D03*
%TO.P,J5,13*%
%TO.N,Net-(J5-Pad13)*%
X134620000Y-116840000D03*
%TO.P,J5,14*%
%TO.N,G_PUMP_B*%
X134620000Y-119380000D03*
%TO.P,J5,15*%
%TO.N,G_PUMP_C*%
X134620000Y-121920000D03*
%TO.P,J5,16*%
%TO.N,G_PUMP_D*%
X134620000Y-124460000D03*
%TO.P,J5,17*%
%TO.N,G_PUMP_E*%
X134620000Y-127000000D03*
%TO.P,J5,18*%
%TO.N,COM*%
X134620000Y-129540000D03*
%TO.P,J5,19*%
%TO.N,G_VACUUM*%
X134620000Y-132080000D03*
%TO.P,J5,20*%
%TO.N,G_WATER*%
X134620000Y-134620000D03*
%TD*%
D14*
%TO.P,J6,1*%
%TO.N,COM*%
X143510000Y-138430000D03*
D15*
%TO.P,J6,2*%
%TO.N,PUMPS_12V*%
X148590000Y-138430000D03*
%TD*%
D14*
%TO.P,J8,2*%
%TO.N,D_WATER*%
X160020000Y-129540000D03*
D15*
%TO.P,J8,3*%
%TO.N,PUMPS_12V*%
X160020000Y-124460000D03*
%TO.P,J8,1*%
X160020000Y-134620000D03*
D14*
%TO.P,J8,4*%
%TO.N,D_VACUUM*%
X160020000Y-119380000D03*
%TD*%
D11*
%TO.P,Q1,1*%
%TO.N,G_WATER*%
X143510000Y-130810000D03*
D10*
%TO.P,Q1,2*%
%TO.N,D_WATER*%
X146050000Y-130810000D03*
%TO.P,Q1,3*%
%TO.N,COM*%
X148590000Y-130810000D03*
%TD*%
%TO.P,Q2,3*%
%TO.N,COM*%
X148590000Y-85090000D03*
%TO.P,Q2,2*%
%TO.N,D_PUMP_A*%
X146050000Y-85090000D03*
D11*
%TO.P,Q2,1*%
%TO.N,G_PUMP_A*%
X143510000Y-85090000D03*
%TD*%
%TO.P,Q3,1*%
%TO.N,G_PUMP_B*%
X143510000Y-92710000D03*
D10*
%TO.P,Q3,2*%
%TO.N,D_PUMP_B*%
X146050000Y-92710000D03*
%TO.P,Q3,3*%
%TO.N,COM*%
X148590000Y-92710000D03*
%TD*%
D11*
%TO.P,Q4,1*%
%TO.N,G_VACUUM*%
X143510000Y-123190000D03*
D10*
%TO.P,Q4,2*%
%TO.N,D_VACUUM*%
X146050000Y-123190000D03*
%TO.P,Q4,3*%
%TO.N,COM*%
X148590000Y-123190000D03*
%TD*%
%TO.P,Q7,3*%
%TO.N,COM*%
X148590000Y-115570000D03*
%TO.P,Q7,2*%
%TO.N,D_PUMP_E*%
X146050000Y-115570000D03*
D11*
%TO.P,Q7,1*%
%TO.N,G_PUMP_E*%
X143510000Y-115570000D03*
%TD*%
D18*
%TO.N,*%
X162560000Y-140970000D03*
X92710000Y-140970000D03*
X92710000Y-81280000D03*
X162560000Y-81280000D03*
%TD*%
D19*
%TO.N,D_WATER*%
X160020000Y-129540000D02*
X153670000Y-129540000D01*
D20*
X146050000Y-130810000D02*
X146050000Y-129540000D01*
D19*
X151130000Y-127000000D02*
X153670000Y-129540000D01*
X148590000Y-127000000D02*
X151130000Y-127000000D01*
D20*
X146050000Y-129540000D02*
X148590000Y-127000000D01*
D21*
%TO.N,COM*%
X125730000Y-132080000D02*
X125730000Y-134620000D01*
X123190000Y-129540000D02*
X125730000Y-132080000D01*
X92710000Y-91440000D02*
X101600000Y-91440000D01*
X101600000Y-91440000D02*
X102870000Y-90170000D01*
X102870000Y-85087180D02*
X105407180Y-82550000D01*
X102870000Y-90170000D02*
X102870000Y-85087180D01*
X125730000Y-82550000D02*
X134620000Y-91440000D01*
X105407180Y-82550000D02*
X125730000Y-82550000D01*
X116840000Y-129540000D02*
X123190000Y-129540000D01*
%TO.N,RX*%
X92710000Y-101600000D02*
X101600000Y-101600000D01*
X101600000Y-101600000D02*
X104140000Y-99060000D01*
X104140000Y-99060000D02*
X104140000Y-85090000D01*
X104140000Y-85090000D02*
X105410000Y-83820000D01*
X116840000Y-85260000D02*
X116840000Y-86360000D01*
X115400000Y-83820000D02*
X116840000Y-85260000D01*
X105410000Y-83820000D02*
X115400000Y-83820000D01*
%TO.N,TX*%
X118110000Y-88900000D02*
X116840000Y-88900000D01*
X119380000Y-87630000D02*
X118110000Y-88900000D01*
X117659990Y-83369990D02*
X119380000Y-85090000D01*
X105223600Y-83369990D02*
X117659990Y-83369990D01*
X103689991Y-84903599D02*
X105223600Y-83369990D01*
X103689990Y-96970010D02*
X103689991Y-84903599D01*
X101600000Y-99060000D02*
X103689990Y-96970010D01*
X119380000Y-85090000D02*
X119380000Y-87630000D01*
X92710000Y-99060000D02*
X101600000Y-99060000D01*
%TO.N,G_PUMP_A*%
X143510000Y-85090000D02*
X140335000Y-85090000D01*
X140335000Y-85090000D02*
X137160000Y-88265000D01*
X137160000Y-88265000D02*
X137160000Y-111760000D01*
X137160000Y-111760000D02*
X134620000Y-114300000D01*
%TO.N,G_PUMP_B*%
X137714970Y-116285030D02*
X134620000Y-119380000D01*
X137714970Y-98505030D02*
X137714970Y-116285030D01*
X143510000Y-92710000D02*
X137714970Y-98505030D01*
%TO.N,G_PUMP_C*%
X143510000Y-100330000D02*
X140970000Y-100330000D01*
X140970000Y-100330000D02*
X138164980Y-103135020D01*
X138164980Y-118375020D02*
X134620000Y-121920000D01*
X138164980Y-103135020D02*
X138164980Y-118375020D01*
%TO.N,G_PUMP_D*%
X138614990Y-120465010D02*
X134620000Y-124460000D01*
X138614990Y-110305010D02*
X138614990Y-120465010D01*
X140970000Y-107950000D02*
X138614990Y-110305010D01*
X143510000Y-107950000D02*
X140970000Y-107950000D01*
%TO.N,G_PUMP_E*%
X143510000Y-115570000D02*
X141605000Y-115570000D01*
X141605000Y-115570000D02*
X139065000Y-118110000D01*
X139065000Y-122555000D02*
X134620000Y-127000000D01*
X139065000Y-118110000D02*
X139065000Y-122555000D01*
%TO.N,G_WATER*%
X138430000Y-130810000D02*
X134620000Y-134620000D01*
X143510000Y-130810000D02*
X138430000Y-130810000D01*
%TO.N,G_VACUUM*%
X143510000Y-123190000D02*
X141605000Y-123190000D01*
X141605000Y-123190000D02*
X137795000Y-127000000D01*
X137795000Y-128905000D02*
X134620000Y-132080000D01*
X137795000Y-127000000D02*
X137795000Y-128905000D01*
%TO.N,D_PUMP_D*%
X158750000Y-107950000D02*
X160020000Y-107950000D01*
D22*
X146050000Y-107950000D02*
X146050000Y-106680000D01*
X146050000Y-106680000D02*
X147320000Y-105410000D01*
X157480000Y-105410000D02*
X160020000Y-107950000D01*
X147320000Y-105410000D02*
X157480000Y-105410000D01*
%TO.N,D_PUMP_C*%
X146050000Y-100330000D02*
X146050000Y-101600000D01*
X147320000Y-102870000D02*
X160020000Y-102870000D01*
X146050000Y-101600000D02*
X147320000Y-102870000D01*
%TO.N,D_PUMP_E*%
X147320000Y-113030000D02*
X160020000Y-113030000D01*
X146050000Y-114300000D02*
X147320000Y-113030000D01*
X146050000Y-115570000D02*
X146050000Y-114300000D01*
%TO.N,D_PUMP_B*%
X146050000Y-92710000D02*
X146050000Y-93980000D01*
X149860000Y-97790000D02*
X160020000Y-97790000D01*
X146050000Y-93980000D02*
X149860000Y-97790000D01*
%TO.N,D_PUMP_A*%
X146050000Y-85090000D02*
X146050000Y-86360000D01*
X152400000Y-92710000D02*
X160020000Y-92710000D01*
X146050000Y-86360000D02*
X152400000Y-92710000D01*
D20*
%TO.N,D_VACUUM*%
X146050000Y-121920000D02*
X148590000Y-119380000D01*
D19*
X148590000Y-119380000D02*
X160020000Y-119380000D01*
D20*
X146050000Y-123190000D02*
X146050000Y-121920000D01*
%TD*%
M02*
