%TF.GenerationSoftware,KiCad,Pcbnew,(5.1.10)-1*%
%TF.CreationDate,2022-01-11T17:35:31-08:00*%
%TF.ProjectId,science_cake_mosfets_2,73636965-6e63-4655-9f63-616b655f6d6f,rev?*%
%TF.SameCoordinates,Original*%
%TF.FileFunction,Paste,Top*%
%TF.FilePolarity,Positive*%
%FSLAX46Y46*%
G04 Gerber Fmt 4.6, Leading zero omitted, Abs format (unit mm)*
G04 Created by KiCad (PCBNEW (5.1.10)-1) date 2022-01-11 17:35:31*
%MOMM*%
%LPD*%
G01*
G04 APERTURE LIST*
G04 APERTURE END LIST*
%TO.C,R1*%
G36*
G01*
X144110000Y-126549999D02*
X144110000Y-127450001D01*
G75*
G02*
X143860001Y-127700000I-249999J0D01*
G01*
X143159999Y-127700000D01*
G75*
G02*
X142910000Y-127450001I0J249999D01*
G01*
X142910000Y-126549999D01*
G75*
G02*
X143159999Y-126300000I249999J0D01*
G01*
X143860001Y-126300000D01*
G75*
G02*
X144110000Y-126549999I0J-249999D01*
G01*
G37*
G36*
G01*
X142110000Y-126549999D02*
X142110000Y-127450001D01*
G75*
G02*
X141860001Y-127700000I-249999J0D01*
G01*
X141159999Y-127700000D01*
G75*
G02*
X140910000Y-127450001I0J249999D01*
G01*
X140910000Y-126549999D01*
G75*
G02*
X141159999Y-126300000I249999J0D01*
G01*
X141860001Y-126300000D01*
G75*
G02*
X142110000Y-126549999I0J-249999D01*
G01*
G37*
%TD*%
%TO.C,R2*%
G36*
G01*
X144110000Y-80829999D02*
X144110000Y-81730001D01*
G75*
G02*
X143860001Y-81980000I-249999J0D01*
G01*
X143159999Y-81980000D01*
G75*
G02*
X142910000Y-81730001I0J249999D01*
G01*
X142910000Y-80829999D01*
G75*
G02*
X143159999Y-80580000I249999J0D01*
G01*
X143860001Y-80580000D01*
G75*
G02*
X144110000Y-80829999I0J-249999D01*
G01*
G37*
G36*
G01*
X142110000Y-80829999D02*
X142110000Y-81730001D01*
G75*
G02*
X141860001Y-81980000I-249999J0D01*
G01*
X141159999Y-81980000D01*
G75*
G02*
X140910000Y-81730001I0J249999D01*
G01*
X140910000Y-80829999D01*
G75*
G02*
X141159999Y-80580000I249999J0D01*
G01*
X141860001Y-80580000D01*
G75*
G02*
X142110000Y-80829999I0J-249999D01*
G01*
G37*
%TD*%
%TO.C,R3*%
G36*
G01*
X142110000Y-87814999D02*
X142110000Y-88715001D01*
G75*
G02*
X141860001Y-88965000I-249999J0D01*
G01*
X141159999Y-88965000D01*
G75*
G02*
X140910000Y-88715001I0J249999D01*
G01*
X140910000Y-87814999D01*
G75*
G02*
X141159999Y-87565000I249999J0D01*
G01*
X141860001Y-87565000D01*
G75*
G02*
X142110000Y-87814999I0J-249999D01*
G01*
G37*
G36*
G01*
X144110000Y-87814999D02*
X144110000Y-88715001D01*
G75*
G02*
X143860001Y-88965000I-249999J0D01*
G01*
X143159999Y-88965000D01*
G75*
G02*
X142910000Y-88715001I0J249999D01*
G01*
X142910000Y-87814999D01*
G75*
G02*
X143159999Y-87565000I249999J0D01*
G01*
X143860001Y-87565000D01*
G75*
G02*
X144110000Y-87814999I0J-249999D01*
G01*
G37*
%TD*%
%TO.C,R4*%
G36*
G01*
X142110000Y-118929999D02*
X142110000Y-119830001D01*
G75*
G02*
X141860001Y-120080000I-249999J0D01*
G01*
X141159999Y-120080000D01*
G75*
G02*
X140910000Y-119830001I0J249999D01*
G01*
X140910000Y-118929999D01*
G75*
G02*
X141159999Y-118680000I249999J0D01*
G01*
X141860001Y-118680000D01*
G75*
G02*
X142110000Y-118929999I0J-249999D01*
G01*
G37*
G36*
G01*
X144110000Y-118929999D02*
X144110000Y-119830001D01*
G75*
G02*
X143860001Y-120080000I-249999J0D01*
G01*
X143159999Y-120080000D01*
G75*
G02*
X142910000Y-119830001I0J249999D01*
G01*
X142910000Y-118929999D01*
G75*
G02*
X143159999Y-118680000I249999J0D01*
G01*
X143860001Y-118680000D01*
G75*
G02*
X144110000Y-118929999I0J-249999D01*
G01*
G37*
%TD*%
%TO.C,R5*%
G36*
G01*
X144110000Y-96069999D02*
X144110000Y-96970001D01*
G75*
G02*
X143860001Y-97220000I-249999J0D01*
G01*
X143159999Y-97220000D01*
G75*
G02*
X142910000Y-96970001I0J249999D01*
G01*
X142910000Y-96069999D01*
G75*
G02*
X143159999Y-95820000I249999J0D01*
G01*
X143860001Y-95820000D01*
G75*
G02*
X144110000Y-96069999I0J-249999D01*
G01*
G37*
G36*
G01*
X142110000Y-96069999D02*
X142110000Y-96970001D01*
G75*
G02*
X141860001Y-97220000I-249999J0D01*
G01*
X141159999Y-97220000D01*
G75*
G02*
X140910000Y-96970001I0J249999D01*
G01*
X140910000Y-96069999D01*
G75*
G02*
X141159999Y-95820000I249999J0D01*
G01*
X141860001Y-95820000D01*
G75*
G02*
X142110000Y-96069999I0J-249999D01*
G01*
G37*
%TD*%
%TO.C,R6*%
G36*
G01*
X144110000Y-103689999D02*
X144110000Y-104590001D01*
G75*
G02*
X143860001Y-104840000I-249999J0D01*
G01*
X143159999Y-104840000D01*
G75*
G02*
X142910000Y-104590001I0J249999D01*
G01*
X142910000Y-103689999D01*
G75*
G02*
X143159999Y-103440000I249999J0D01*
G01*
X143860001Y-103440000D01*
G75*
G02*
X144110000Y-103689999I0J-249999D01*
G01*
G37*
G36*
G01*
X142110000Y-103689999D02*
X142110000Y-104590001D01*
G75*
G02*
X141860001Y-104840000I-249999J0D01*
G01*
X141159999Y-104840000D01*
G75*
G02*
X140910000Y-104590001I0J249999D01*
G01*
X140910000Y-103689999D01*
G75*
G02*
X141159999Y-103440000I249999J0D01*
G01*
X141860001Y-103440000D01*
G75*
G02*
X142110000Y-103689999I0J-249999D01*
G01*
G37*
%TD*%
%TO.C,R7*%
G36*
G01*
X142110000Y-111309999D02*
X142110000Y-112210001D01*
G75*
G02*
X141860001Y-112460000I-249999J0D01*
G01*
X141159999Y-112460000D01*
G75*
G02*
X140910000Y-112210001I0J249999D01*
G01*
X140910000Y-111309999D01*
G75*
G02*
X141159999Y-111060000I249999J0D01*
G01*
X141860001Y-111060000D01*
G75*
G02*
X142110000Y-111309999I0J-249999D01*
G01*
G37*
G36*
G01*
X144110000Y-111309999D02*
X144110000Y-112210001D01*
G75*
G02*
X143860001Y-112460000I-249999J0D01*
G01*
X143159999Y-112460000D01*
G75*
G02*
X142910000Y-112210001I0J249999D01*
G01*
X142910000Y-111309999D01*
G75*
G02*
X143159999Y-111060000I249999J0D01*
G01*
X143860001Y-111060000D01*
G75*
G02*
X144110000Y-111309999I0J-249999D01*
G01*
G37*
%TD*%
M02*
